<?xml version="1.0" encoding="utf-8"?>
<!-- Generator: Adobe Illustrator 23.0.3, SVG Export Plug-In . SVG Version: 6.00 Build 0)  -->
<svg version="1.1" id="OBJECTS" xmlns="http://www.w3.org/2000/svg" xmlns:xlink="http://www.w3.org/1999/xlink" x="0px" y="0px"
	 viewBox="0 0 1920 1080" style="enable-background:new 0 0 1920 1080;" xml:space="preserve">
<style type="text/css">
	.st0{opacity:0.4;}
	.st1{fill:#C3E5D7;}
	.st2{fill:#87AA65;}
	.st3{fill:#678C3F;}
	.st4{fill:#7DBCA5;}
	.st5{fill:#17563B;}
	.st6{fill:#093521;}
	.st7{fill:#FF6C6C;}
	.st8{fill:#5EA597;}
	.st9{fill:#488C7F;}
	.st10{fill:#2C685D;}
	.st11{fill:#134731;}
	.st12{fill:#222D16;}
	.st13{fill:#4E662F;}
	.st14{fill:#99D6C2;}
	.st15{fill:#4D8770;}
	.st16{fill:#48662E;}
	.st17{fill:#3A5620;}
	.st18{fill:#2A4211;}
	.st19{fill:#73AA3A;}
	.st20{fill:#20350C;}
	.st21{fill:#A2DBC1;}
</style>
<g class="st0">
	<path class="st1" d="M967.65-201.81c-19.27,50.59-7.34,121.58,23.56,155.73c62.79,72.84,195.91,42.7,278.8,37.68
		c72.84-2.51,221.03,0,153.21,105.49c-35.16,50.23-120.56,153.21-7.54,178.33c72.84,15.07,145.68-55.26,216.01-30.14
		c80.37,27.63,20.09,133.12,42.7,190.89c30.14,90.42,168.28,57.77,223.54,12.56c8.56-7.74,16.04-16.42,22.61-25.79v-624.74H967.65z"
		/>
</g>
<g>
	<g class="st0">
		<path class="st1" d="M1195.41,1036.42c-32.28-44.39-68.6-44.39-72.63-104.92c-4.04-36.32,16.14-72.63,16.14-108.95
			c0-145.27-100.88-137.2-213.86-125.09c-129.13,12.11-173.51-12.1-193.69-137.2C691.01,289.9,424.69,491.67,299.6,346.4
			c-60.53-68.6-52.46-161.41-145.27-217.9C111.86,103.72,50.76,97.58,0.99,107.33v991.01c6.74,8.37,14.65,16.03,23.94,22.83h1196.48
			C1225.92,1090.8,1209.67,1053.53,1195.41,1036.42z"/>
	</g>
	<g>
		<g>
			<path class="st2" d="M1559.24,1111.36c6-24.42,9-49.89,7.35-74.78c-3.52-48.4-43.42-56.66-83.33-46.04
				c1.17-36.59,7.04-87.35-31.68-108.6c-41.07-21.25-82.15,25.97-91.54,62.56c-29.34-12.99-48.12-64.92-79.8-25.97
				c-25.82,31.87-9.39,62.56-17.6,96.79c-29.34-23.61-63.37-37.77-86.85,1.18c-17.42,27.82-23.2,62.84-14.24,94.85H1559.24z"/>
		</g>
		<path class="st3" d="M1196.09,1068.38c-4.88-2.44-9.67-4.97-14.08-8.21c-2.29-1.68-4.48,2.14-2.22,3.8
			c4.41,3.24,9.2,5.77,14.08,8.21C1196.4,1073.44,1198.63,1069.65,1196.09,1068.38z"/>
		<path class="st3" d="M1206.49,1041.53c-1.27-5.95-3.42-11.66-4.69-17.6c-0.59-2.78-4.84-1.6-4.25,1.17
			c1.27,5.95,3.42,11.65,4.69,17.6C1202.84,1045.47,1207.08,1044.3,1206.49,1041.53z"/>
		<path class="st3" d="M1235.47,1056.42c-5.63,1.04-11.31,1.09-17.02,1.09c-2.84,0.01-2.84,4.4,0,4.4c6.11,0,12.17-0.14,18.19-1.25
			C1239.43,1060.15,1238.24,1055.91,1235.47,1056.42z"/>
		<path class="st3" d="M1245.83,1038.21c-5.33-6.4-10.57-12.86-16.43-18.78c-2-2.02-5.11,1.09-3.11,3.11
			c5.86,5.92,11.11,12.38,16.43,18.78C1244.53,1043.5,1247.63,1040.38,1245.83,1038.21z"/>
		<path class="st3" d="M1246.03,1082.24c-6.59,2.22-13.08,4.63-19.95,5.87c-2.79,0.5-1.61,4.74,1.17,4.24
			c6.87-1.24,13.36-3.65,19.95-5.86C1249.88,1085.58,1248.73,1081.33,1246.03,1082.24z"/>
		<path class="st3" d="M1275.73,1080.26c-2.53-7.29-6.36-13.7-11.13-19.75c-1.76-2.23-4.85,0.91-3.11,3.11
			c4.28,5.42,7.73,11.27,10,17.81C1272.41,1084.09,1276.66,1082.95,1275.73,1080.26z"/>
		<path class="st3" d="M1287.63,1042.56c-6.57-3.25-13.23-5.96-20.47-7.26c-2.77-0.5-3.96,3.75-1.17,4.24
			c6.88,1.24,13.18,3.73,19.43,6.82C1287.94,1047.62,1290.17,1043.82,1287.63,1042.56z"/>
		<path class="st3" d="M1314.91,1029.79c-2.25,6.69-4.79,13.27-7.04,19.95c-0.9,2.69,3.35,3.84,4.25,1.16
			c2.25-6.68,4.79-13.26,7.04-19.95C1320.06,1028.27,1315.81,1027.12,1314.91,1029.79z"/>
		<path class="st3" d="M1299.43,1009.4c-6.77-0.16-13.11-2.15-19.36-4.62c-2.64-1.04-3.78,3.22-1.17,4.25
			c6.63,2.61,13.37,4.6,20.53,4.77C1302.27,1013.87,1302.26,1009.46,1299.43,1009.4z"/>
		<path class="st3" d="M1330.17,984.03c-2.43,7.35-4.61,14.79-8,21.77c-1.23,2.54,2.56,4.77,3.8,2.22
			c3.55-7.33,5.89-15.11,8.44-22.82C1335.3,982.49,1331.05,981.35,1330.17,984.03z"/>
		<path class="st3" d="M1311.55,974.84c-4.09-5.13-7.98-10.37-11.39-15.99c-1.47-2.42-5.27-0.21-3.8,2.22
			c3.6,5.94,7.75,11.45,12.08,16.88C1310.2,980.17,1313.3,977.03,1311.55,974.84z"/>
		<path class="st3" d="M1329.21,949.47c-2.66,5.42-4.83,11.04-6.09,16.96c-0.59,2.76,3.65,3.94,4.25,1.17
			c1.18-5.55,3.14-10.82,5.64-15.91C1334.26,949.15,1330.46,946.92,1329.21,949.47z"/>
		<path class="st3" d="M1307.19,934.21c-2.38-4.76-4.52-9.5-5.65-14.73c-0.6-2.78-4.84-1.6-4.24,1.17c1.2,5.59,3.55,10.7,6.09,15.78
			C1304.66,938.97,1308.46,936.74,1307.19,934.21z"/>
		<path class="st3" d="M1369.05,994.79c-5.56-5.44-12.04-9.81-17.6-15.25c-2.03-1.98-5.14,1.13-3.11,3.11
			c5.56,5.45,12.04,9.82,17.6,15.26C1367.97,999.89,1371.08,996.77,1369.05,994.79z"/>
		<path class="st3" d="M1374.68,951.75v23.47c0,2.84,4.4,2.84,4.4,0v-23.47C1379.08,948.91,1374.68,948.91,1374.68,951.75z"/>
		<path class="st3" d="M1406,964.07c-1.26-7.79-4.5-14.89-7.04-22.3c-0.91-2.67-5.17-1.53-4.25,1.17
			c2.55,7.41,5.78,14.51,7.04,22.29C1402.2,968.04,1406.45,966.85,1406,964.07z"/>
		<path class="st3" d="M1426.76,914.42c-7.01-1.09-14.12-1.27-21.12-2.34c-2.77-0.43-3.97,3.81-1.17,4.24
			c7.01,1.08,14.12,1.26,21.12,2.35C1428.36,919.09,1429.56,914.85,1426.76,914.42z"/>
		<path class="st3" d="M1435.79,931.21c-3.44,9.58-5.1,19.66-8.21,29.34c-0.87,2.71,3.37,3.86,4.24,1.17
			c3.11-9.68,4.78-19.76,8.22-29.34C1440.99,929.71,1436.74,928.56,1435.79,931.21z"/>
		<path class="st3" d="M1453.1,904.08c-5.38-3.26-10.33-6.97-14.81-11.39c-2.02-2-5.14,1.11-3.11,3.11
			c4.74,4.68,10.01,8.63,15.7,12.08C1453.31,909.36,1455.53,905.55,1453.1,904.08z"/>
		<path class="st3" d="M1466.3,933.56c-2.6,9.6-8.48,17.19-15.86,23.67c-2.14,1.87,0.99,4.98,3.11,3.11
			c7.94-6.97,14.2-15.32,17-25.62C1471.29,931.99,1467.04,930.82,1466.3,933.56z"/>
		<path class="st3" d="M1468.04,981.88c-3.91,3.91-7.82,7.82-11.74,11.74c-2.01,2.01,1.1,5.12,3.11,3.11
			c3.91-3.91,7.82-7.82,11.74-11.73C1473.16,982.98,1470.05,979.87,1468.04,981.88z"/>
		<path class="st3" d="M1421.26,1006.32c-2.42-7.03-5.65-13.78-7.04-21.12c-0.53-2.79-4.77-1.6-4.24,1.17
			c1.39,7.34,4.62,14.1,7.04,21.13C1417.93,1010.16,1422.18,1009.01,1421.26,1006.32z"/>
		<path class="st3" d="M1446.92,1017.09c-4.29,5.25-9.4,9.67-14.81,13.74c-2.23,1.68-0.05,5.5,2.22,3.8
			c5.71-4.3,11.16-8.87,15.7-14.43C1451.8,1018.02,1448.71,1014.89,1446.92,1017.09z"/>
		<path class="st3" d="M1385.32,1002.8c-1.23,6.25-2.29,12.53-3.52,18.78c-0.55,2.77,3.69,3.95,4.24,1.17
			c1.23-6.25,2.29-12.53,3.52-18.78C1390.11,1001.2,1385.87,1000.02,1385.32,1002.8z"/>
		<path class="st3" d="M1355.7,1043.73c-6.15-3.66-12.49-6.99-17.16-12.57c-1.82-2.18-4.92,0.95-3.11,3.11
			c4.9,5.85,11.59,9.41,18.05,13.25C1355.92,1048.99,1358.13,1045.18,1355.7,1043.73z"/>
		<path class="st3" d="M1402.32,1035.86c-4.73,6-8.64,12.41-12.08,19.22c-1.28,2.53,2.52,4.76,3.8,2.22
			c3.26-6.45,6.91-12.64,11.39-18.33C1407.16,1036.78,1404.08,1033.64,1402.32,1035.86z"/>
		<path class="st3" d="M1368.44,1066.17c0.51-2.77-3.73-3.96-4.25-1.17c-1.16,6.3-1.16,12.48,0,18.77c0.52,2.79,4.76,1.6,4.25-1.17
			C1367.43,1077.11,1367.43,1071.67,1368.44,1066.17z"/>
		<path class="st3" d="M1320.33,1089.65c-2.49-6.06-5.72-11.69-9.61-16.96c-1.67-2.26-5.49-0.06-3.8,2.22
			c3.65,4.94,6.83,10.22,9.17,15.9C1317.15,1093.4,1321.41,1092.27,1320.33,1089.65z"/>
		<path class="st3" d="M1344.47,1069.17c-2.53,5.21-3.75,10.58-3.83,16.37c-0.03,2.84,4.37,2.84,4.4,0c0.07-5,1.04-9.64,3.22-14.15
			C1349.5,1068.85,1345.71,1066.61,1344.47,1069.17z"/>
		<path class="st3" d="M1419.86,1089.12c-4.57-6.68-10.5-11.85-16.77-16.88c-2.19-1.76-5.33,1.34-3.11,3.11
			c5.96,4.77,11.74,9.64,16.09,15.99C1417.65,1093.67,1421.47,1091.47,1419.86,1089.12z"/>
		<path class="st3" d="M1441.58,1058.54c-0.08,6.25-1.21,12.35-3.44,18.19c-1.01,2.66,3.24,3.79,4.25,1.17
			c2.36-6.19,3.51-12.74,3.6-19.36C1446.01,1055.71,1441.61,1055.71,1441.58,1058.54z"/>
		<path class="st3" d="M1484.79,1095.37c-6.06-3.52-12.71-5.86-18.78-9.39c-2.46-1.43-4.68,2.37-2.22,3.8
			c6.06,3.52,12.71,5.87,18.78,9.39C1485.03,1100.6,1487.24,1096.8,1484.79,1095.37z"/>
		<path class="st3" d="M1481.56,1038.01c-1.15,6.77-2.57,13.41-4.7,19.95c-0.88,2.71,3.37,3.86,4.25,1.17
			c2.13-6.54,3.55-13.18,4.69-19.96C1486.27,1036.4,1482.03,1035.21,1481.56,1038.01z"/>
		<path class="st3" d="M1523.96,1075.76c-5.03-4.89-10.93-8.47-17.4-11.13c-2.63-1.08-3.76,3.18-1.17,4.24
			c5.74,2.36,11,5.66,15.46,10C1522.88,1080.85,1526,1077.75,1523.96,1075.76z"/>
		<path class="st3" d="M1540.8,1026.47c-4.59,5.91-7.6,12.56-10.91,19.22c-1.26,2.54,2.54,4.77,3.8,2.22
			c3.11-6.28,5.89-12.76,10.22-18.33C1545.63,1027.38,1542.54,1024.24,1540.8,1026.47z"/>
		<path class="st3" d="M1509.43,1014.4c-5.19-2.56-10.54-4.8-15.26-8.22c-2.3-1.67-4.49,2.15-2.22,3.8
			c4.71,3.42,10.06,5.65,15.25,8.22C1509.75,1019.45,1511.98,1015.65,1509.43,1014.4z"/>
		<path class="st3" d="M1528.5,1001.63c-1.17,3.52-2.34,7.04-3.52,10.56c-0.9,2.7,3.35,3.85,4.24,1.17
			c1.18-3.52,2.34-7.04,3.52-10.56C1533.64,1000.1,1529.39,998.95,1528.5,1001.63z"/>
		<path class="st3" d="M1547.5,1071.52c-2.59,5.53-2.51,11.05-1.4,16.95c0.53,2.79,4.77,1.61,4.25-1.17
			c-0.88-4.64-1.1-9.19,0.95-13.56C1552.5,1071.19,1548.7,1068.95,1547.5,1071.52z"/>
	</g>
	<g>
		<g>
			<path class="st4" d="M795.93,609.36c0.67-14.79-1.35-30.26,3.36-44.39c8.74-23.54,32.95-46.41,51.11-62.54
				C865.2,544.12,829.56,591.2,795.93,609.36"/>
		</g>
		<g>
			<path class="st4" d="M817.45,636.26c4.71-14.8,22.87-29.59,34.97-37.66c18.16-12.78,40.35-19.5,60.53-25.56
				c6.05,31.61-66.58,81.38-94.16,63.89"/>
		</g>
		<g>
			<path class="st4" d="M736.07,678.63c-30.26-24.21-35.64-71.96-26.23-107.61c17.49,13.45,26.9,41.7,27.57,63.22
				c0.67,12.11,4.71,29.59-1.34,40.35"/>
		</g>
		<g>
			<g>
				<path class="st5" d="M780.87,908.68c-11.63-20.18-14.41-44.61-15.64-67.46c-1.2-22.2-0.76-44.57-0.29-66.79
					c1.18-54.7,10.99-109.82,30.92-160.86c11.18-28.63,25.72-55.86,43.52-80.92c0.93-1.31-1.23-2.56-2.16-1.26
					c-32.23,45.36-53.28,97.72-64.5,152.09c-10.34,50.1-12.37,102.15-10.21,153.19c1.05,24.74,3.6,51.41,16.2,73.27
					C779.51,911.33,781.67,910.08,780.87,908.68L780.87,908.68z"/>
			</g>
		</g>
		<g>
			<g>
				<path class="st5" d="M715.36,600.28c5.14,21.96,9.54,44.14,16.63,65.59c3.41,10.34,7.44,20.54,12.62,30.13
					c5.7,10.56,13.56,19.58,19.97,29.67c0.86,1.35,3.03,0.1,2.16-1.26c-6.28-9.88-13.98-18.72-19.62-29.02
					c-5.51-10.06-9.68-20.8-13.22-31.69c-6.81-20.98-11.11-42.64-16.13-64.08C717.41,598.05,715,598.71,715.36,600.28L715.36,600.28
					z"/>
			</g>
		</g>
		<g>
			<g>
				<path class="st5" d="M892.14,591.47c-31.66,23.14-64.1,49.87-105.63,48.25c-1.61-0.06-1.61,2.44,0,2.5
					c42.01,1.63,74.83-25.17,106.89-48.59C894.69,592.69,893.44,590.51,892.14,591.47L892.14,591.47z"/>
			</g>
		</g>
	</g>
	<g>
		<g>
			<path class="st6" d="M261.03,782.45c-28.25-80.7-44.39-209.83-16.14-290.53c32.28-86.76,52.46,36.31,54.47,70.62
				c2.02,50.44,6.05,102.9,8.07,153.34c16.14-32.28,115-282.47,173.51-232.02c52.46,46.41-110.97,232.02-135.18,276.41
				c50.44-40.35,104.92-72.63,163.43-100.88c14.12-8.07,56.49-34.3,74.65-22.2c26.23,18.16,0,48.42-14.12,62.55
				c-54.48,54.48-157.37,121.05-234.04,135.18"/>
		</g>
		<path class="st4" d="M295.56,771.11c-6.51,0-6.51,10.09,0,10.09C302.07,781.19,302.07,771.11,295.56,771.11z"/>
		<path class="st4" d="M327.84,750.93c-6.5,0-6.5,10.09,0,10.09C334.35,761.02,334.35,750.93,327.84,750.93z"/>
		<path class="st4" d="M335.91,694.43c-6.5,0-6.5,10.09,0,10.09C342.42,704.52,342.42,694.43,335.91,694.43z"/>
		<path class="st4" d="M376.27,688.38c-6.51,0-6.51,10.09,0,10.09C382.77,698.47,382.77,688.38,376.27,688.38z"/>
		<path class="st4" d="M358.11,644c-6.5,0-6.5,10.09,0,10.09C364.61,654.08,364.61,644,358.11,644z"/>
		<path class="st4" d="M404.51,633.91c-6.51,0-6.51,10.09,0,10.09C411.02,644,411.02,633.91,404.51,633.91z"/>
		<path class="st4" d="M390.39,585.48c-6.51,0-6.51,10.09,0,10.09C396.89,595.57,396.89,585.48,390.39,585.48z"/>
		<path class="st4" d="M430.74,593.55c-6.5,0-6.5,10.09,0,10.09C437.25,603.64,437.25,593.55,430.74,593.55z"/>
		<path class="st4" d="M416.62,549.17c-6.5,0-6.5,10.09,0,10.09C423.12,559.26,423.12,549.17,416.62,549.17z"/>
		<path class="st4" d="M452.93,561.27c-6.51,0-6.51,10.09,0,10.09C459.44,571.36,459.44,561.27,452.93,561.27z"/>
		<path class="st4" d="M440.83,516.89c-6.51,0-6.51,10.09,0,10.09C447.33,526.97,447.33,516.89,440.83,516.89z"/>
		<path class="st4" d="M473.11,506.8c-6.51,0-6.51,10.09,0,10.09C479.62,516.89,479.62,506.8,473.11,506.8z"/>
		<path class="st4" d="M339.95,799.35c-6.5,0-6.5,10.09,0,10.09S346.45,799.35,339.95,799.35z"/>
		<path class="st4" d="M380.3,752.94c-6.5,0-6.5,10.09,0,10.09C386.81,763.04,386.81,752.94,380.3,752.94z"/>
		<path class="st4" d="M396.44,779.17c-6.51,0-6.51,10.09,0,10.09C402.95,789.26,402.95,779.17,396.44,779.17z"/>
		<path class="st4" d="M420.65,736.8c-6.51,0-6.51,10.09,0,10.09C427.16,746.9,427.16,736.8,420.65,736.8z"/>
		<path class="st4" d="M442.85,765.05c-6.51,0-6.51,10.09,0,10.09C449.35,775.14,449.35,765.05,442.85,765.05z"/>
		<path class="st4" d="M456.97,716.63c-6.51,0-6.51,10.09,0,10.09C463.48,726.72,463.48,716.63,456.97,716.63z"/>
		<path class="st4" d="M483.2,738.82c-6.5,0-6.5,10.09,0,10.09S489.7,738.82,483.2,738.82z"/>
		<path class="st4" d="M487.23,688.38c-6.5,0-6.5,10.09,0,10.09C493.74,698.47,493.74,688.38,487.23,688.38z"/>
		<path class="st4" d="M515.48,706.54c-6.51,0-6.51,10.09,0,10.09C521.99,716.63,521.99,706.54,515.48,706.54z"/>
		<path class="st4" d="M529.6,662.15c-6.5,0-6.5,10.09,0,10.09C536.11,672.24,536.11,662.15,529.6,662.15z"/>
		<path class="st4" d="M551.8,682.33c-6.51,0-6.51,10.09,0,10.09C558.3,692.42,558.3,682.33,551.8,682.33z"/>
		<path class="st4" d="M567.94,654.08c-6.51,0-6.51,10.09,0,10.09C574.44,664.17,574.44,654.08,567.94,654.08z"/>
		<path class="st4" d="M267.32,726.72c-6.5,0-6.5,10.09,0,10.09C273.82,736.8,273.82,726.72,267.32,726.72z"/>
		<path class="st4" d="M281.44,680.31c-6.51,0-6.51,10.09,0,10.09C287.94,690.4,287.94,680.31,281.44,680.31z"/>
		<path class="st4" d="M255.21,662.15c-6.5,0-6.5,10.09,0,10.09C261.72,672.24,261.72,662.15,255.21,662.15z"/>
		<path class="st4" d="M287.49,615.75c-6.5,0-6.5,10.09,0,10.09C294,625.84,294,615.75,287.49,615.75z"/>
		<path class="st4" d="M255.21,601.62c-6.5,0-6.5,10.09,0,10.09C261.72,611.71,261.72,601.62,255.21,601.62z"/>
		<path class="st4" d="M283.46,571.36c-6.51,0-6.51,10.09,0,10.09C289.96,581.45,289.96,571.36,283.46,571.36z"/>
		<path class="st4" d="M255.21,553.2c-6.5,0-6.5,10.09,0,10.09C261.72,563.29,261.72,553.2,255.21,553.2z"/>
		<path class="st4" d="M273.37,528.99c-6.51,0-6.51,10.09,0,10.09C279.87,539.08,279.87,528.99,273.37,528.99z"/>
		<path class="st4" d="M263.28,482.59c-6.51,0-6.51,10.09,0,10.09C269.79,492.68,269.79,482.59,263.28,482.59z"/>
	</g>
	<g>
		<g>
			<path class="st6" d="M1079.24,1039.51c-19.66-56.16-30.89-146.02-11.23-202.19c22.47-60.37,36.51,25.27,37.91,49.14
				c1.41,35.1,4.21,71.61,5.62,106.71c11.23-22.46,80.03-196.57,120.75-161.47c36.51,32.29-77.22,161.47-94.07,192.36
				c35.1-28.08,73.01-50.55,113.73-70.21c9.83-5.61,39.31-23.87,51.95-15.44c18.25,12.64,0,33.7-9.83,43.53
				c-37.91,37.91-109.52,84.24-162.87,94.07"/>
		</g>
		<g>
			<g>
				<path class="st4" d="M1213.03,847.96c-13.16,25.29-24.88,51.32-38.67,76.28c-13.66,24.73-30.24,47.66-43.84,72.45
					c-6.69,12.2-13.3,24.63-18.88,37.39c-1,2.29-1.65,5.04-3.08,7.06c-0.25,0.44-0.5,0.87-0.75,1.31c-1.07,1.15-1.57,0.79-1.48-1.06
					c-0.79-1.25-1.03-3.7-1.46-5.13c-2.03-6.86-4.31-13.65-6.6-20.43c-4.2-12.44-8.48-24.9-11.25-37.76
					c-3.16-14.64-3.28-29.35-3.16-44.26c0.13-16.56,0.68-33.15-0.34-49.7c-0.49-7.92-1.63-15.76-2.33-23.65
					c-0.52-5.85-1.31-11.67-3.77-17.05c-0.33-0.73-1.41-0.1-1.08,0.63c3.34,7.29,3.17,15.19,4.25,22.96
					c1.32,9.47,1.92,19.01,2.16,28.56c0.44,17.92-0.41,35.84-0.09,53.76c0.3,16.55,3.36,32.28,8.24,48.08
					c4.93,15.96,10.95,31.56,15.14,47.75c0.11,0.43,0.73,0.63,1.04,0.28c2.09-2.4,3.31-5.18,4.56-8.08
					c2.09-4.83,4.34-9.57,6.65-14.3c3.98-8.14,8.13-16.2,12.46-24.15c9.06-16.63,19.06-32.63,29.42-48.47
					c21.06-32.24,36.23-67.77,53.95-101.84C1214.48,847.88,1213.4,847.25,1213.03,847.96L1213.03,847.96z"/>
			</g>
		</g>
		<g>
			<g>
				<path class="st4" d="M1295.25,952.37c-9.09,12.94-25.94,19.32-38.93,27.54c-16.44,10.4-32.27,21.72-48.72,32.1
					c-14.06,8.88-28.61,17.06-44.37,22.52c-17.85,6.18-37.72,9.65-56.59,9.85c-0.8,0.01-0.81,1.26,0,1.25
					c28.25-0.29,56.79-7.57,81.69-20.83c26.64-14.18,50.27-33.23,76.24-48.51c11.15-6.56,24.1-12.38,31.75-23.28
					C1296.79,952.34,1295.71,951.72,1295.25,952.37L1295.25,952.37z"/>
			</g>
		</g>
		<g>
			<g>
				<path class="st4" d="M1153.45,1028.51c1.95,6.62,5.75,12.68,9.65,18.31c0.45,0.66,1.54,0.03,1.08-0.63
					c-3.83-5.54-7.6-11.51-9.52-18.01C1154.42,1027.41,1153.22,1027.74,1153.45,1028.51L1153.45,1028.51z"/>
			</g>
		</g>
		<g>
			<g>
				<path class="st4" d="M1172.17,1021.1c2.61,5.67,5.59,11.16,8.58,16.65c0.39,0.71,1.46,0.08,1.08-0.63
					c-2.99-5.48-5.96-10.97-8.58-16.65C1172.92,1019.74,1171.84,1020.37,1172.17,1021.1L1172.17,1021.1z"/>
			</g>
		</g>
		<g>
			<g>
				<path class="st4" d="M1187.81,1011.01c3.14,6.55,7.6,12.32,11.1,18.66c0.39,0.7,1.47,0.07,1.08-0.63
					c-3.5-6.35-7.96-12.11-11.1-18.66C1188.54,1009.66,1187.46,1010.29,1187.81,1011.01L1187.81,1011.01z"/>
			</g>
		</g>
		<g>
			<g>
				<path class="st4" d="M1206.41,1000.27c1.95,6.72,7.41,11.6,11.16,17.3c0.44,0.67,1.52,0.04,1.08-0.63
					c-3.69-5.6-9.12-10.41-11.03-17C1207.39,999.16,1206.18,999.49,1206.41,1000.27L1206.41,1000.27z"/>
			</g>
		</g>
		<g>
			<g>
				<path class="st4" d="M1226.14,989.83c3.13,5.76,6.1,11.6,9.59,17.15c0.43,0.68,1.51,0.05,1.08-0.63
					c-3.48-5.55-6.46-11.39-9.59-17.15C1226.84,988.49,1225.76,989.12,1226.14,989.83L1226.14,989.83z"/>
			</g>
		</g>
		<g>
			<g>
				<path class="st4" d="M1245.81,976.21c3.47,4.6,5.94,9.82,9.08,14.63c0.44,0.67,1.52,0.05,1.08-0.63
					c-3.14-4.81-5.61-10.03-9.08-14.63C1246.41,974.94,1245.33,975.56,1245.81,976.21L1245.81,976.21z"/>
			</g>
		</g>
		<g>
			<g>
				<path class="st4" d="M1270.53,961.58c3.82,5.35,8.4,10.15,10.53,16.5c0.25,0.76,1.46,0.43,1.21-0.33
					c-2.17-6.46-6.76-11.35-10.65-16.8C1271.15,960.3,1270.06,960.92,1270.53,961.58L1270.53,961.58z"/>
			</g>
		</g>
		<g>
			<g>
				<path class="st4" d="M1120.82,997.52c4.49,5.37,10.7,8.84,16.14,13.12c0.63,0.49,1.52-0.39,0.88-0.88
					c-5.44-4.28-11.66-7.75-16.14-13.12C1121.19,996.02,1120.31,996.91,1120.82,997.52L1120.82,997.52z"/>
			</g>
		</g>
		<g>
			<g>
				<path class="st4" d="M1131.03,973.41c6.89,4.06,12.78,9.56,19.67,13.62c0.69,0.41,1.32-0.67,0.63-1.08
					c-6.89-4.06-12.78-9.56-19.67-13.62C1130.97,971.92,1130.34,973,1131.03,973.41L1131.03,973.41z"/>
			</g>
		</g>
		<g>
			<g>
				<path class="st4" d="M1150.58,952.12c4.02,4.96,9.53,8.52,15.26,11.2c0.72,0.34,1.36-0.74,0.63-1.08
					c-5.65-2.64-11.04-6.12-15.01-11C1150.96,950.61,1150.08,951.5,1150.58,952.12L1150.58,952.12z"/>
			</g>
		</g>
		<g>
			<g>
				<path class="st4" d="M1164.2,922.87c4.71,4.53,10.72,7.32,15.63,11.6c0.6,0.53,1.49-0.35,0.88-0.88
					c-4.91-4.28-10.93-7.08-15.63-11.6C1164.5,921.43,1163.62,922.31,1164.2,922.87L1164.2,922.87z"/>
			</g>
		</g>
		<g>
			<g>
				<path class="st4" d="M1175.29,900.17c4.76,6.02,11.67,9.18,18.29,12.71c0.71,0.38,1.34-0.7,0.63-1.08
					c-6.52-3.48-13.34-6.57-18.03-12.51C1175.68,898.65,1174.8,899.54,1175.29,900.17L1175.29,900.17z"/>
			</g>
		</g>
		<g>
			<g>
				<path class="st4" d="M1186.9,877.47c4.89,5.7,11.58,9.09,18.29,12.2c0.73,0.34,1.36-0.74,0.63-1.08
					c-6.61-3.06-13.21-6.39-18.03-12.01C1187.26,875.97,1186.38,876.86,1186.9,877.47L1186.9,877.47z"/>
			</g>
		</g>
		<g>
			<g>
				<path class="st4" d="M1199.51,858.81c5.44,4.46,10.76,8.76,17.43,11.26c0.75,0.28,1.08-0.92,0.33-1.21
					c-6.45-2.42-11.61-6.62-16.87-10.94C1199.77,857.42,1198.88,858.3,1199.51,858.81L1199.51,858.81z"/>
			</g>
		</g>
		<g>
			<g>
				<path class="st4" d="M1072.33,867.06c6.13,0.3,12.03-1.82,18.16-1.52c0.8,0.04,0.8-1.21,0-1.25c-6.13-0.3-12.03,1.82-18.16,1.52
					C1071.53,865.77,1071.53,867.02,1072.33,867.06L1072.33,867.06z"/>
			</g>
		</g>
		<g>
			<g>
				<path class="st4" d="M1073.35,887.74c5.82-0.04,11.59-0.54,17.32-1.54c0.79-0.14,0.46-1.34-0.33-1.21
					c-5.62,0.98-11.28,1.45-16.98,1.49C1072.54,886.5,1072.54,887.75,1073.35,887.74L1073.35,887.74z"/>
			</g>
		</g>
		<g>
			<g>
				<path class="st4" d="M1071.83,910.44c5.9-0.07,11.75-0.94,17.65-1.01c0.8-0.01,0.81-1.26,0-1.25
					c-5.9,0.07-11.75,0.94-17.65,1.01C1071.03,909.2,1071.03,910.45,1071.83,910.44L1071.83,910.44z"/>
			</g>
		</g>
		<g>
			<g>
				<path class="st4" d="M1072.84,930.62c6.99,0.45,13.92-0.08,20.85-1.03c0.79-0.11,0.46-1.31-0.33-1.21
					c-6.82,0.94-13.64,1.44-20.52,0.99C1072.04,929.32,1072.04,930.57,1072.84,930.62L1072.84,930.62z"/>
			</g>
		</g>
		<g>
			<g>
				<path class="st4" d="M1071.83,953.82c6.96-0.63,13.67-2.85,20.68-3.02c0.8-0.02,0.81-1.27,0-1.25
					c-7.02,0.17-13.71,2.39-20.68,3.02C1071.04,952.64,1071.03,953.89,1071.83,953.82L1071.83,953.82z"/>
			</g>
		</g>
		<g>
			<g>
				<path class="st4" d="M1075.02,974.48c6.62-1.06,13.15-2.53,19.67-4.03c0.78-0.18,0.45-1.39-0.33-1.21
					c-6.53,1.5-13.06,2.98-19.67,4.03C1073.9,973.4,1074.24,974.6,1075.02,974.48L1075.02,974.48z"/>
			</g>
		</g>
		<g>
			<g>
				<path class="st4" d="M1078.55,993.14c6.52-1.14,12.89-2.97,19.17-5.04c0.76-0.25,0.43-1.46-0.33-1.21
					c-6.28,2.07-12.65,3.9-19.17,5.04C1077.43,992.07,1077.77,993.28,1078.55,993.14L1078.55,993.14z"/>
			</g>
		</g>
		<g>
			<g>
				<path class="st4" d="M1088.14,1015.33c5.83-1.2,11.11-3.98,16.65-6.05c0.75-0.28,0.42-1.49-0.33-1.21
					c-5.53,2.08-10.82,4.86-16.65,6.05C1087.02,1014.29,1087.35,1015.49,1088.14,1015.33L1088.14,1015.33z"/>
			</g>
		</g>
		<g>
			<g>
				<path class="st6" d="M1138.45,1024.63c11.86-15.59,25.57-29.58,39.58-43.23c13.38-13.04,26.52-26.37,40.05-39.24
					c27.98-26.61,59.48-49.18,92.15-69.64c0.68-0.43,0.05-1.51-0.63-1.08c-25.4,15.91-50.07,33.07-72.98,52.44
					c-23.12,19.55-44.38,41.6-65.87,62.91c-11.84,11.75-23.27,23.91-33.38,37.2C1136.88,1024.64,1137.97,1025.26,1138.45,1024.63
					L1138.45,1024.63z"/>
			</g>
		</g>
		<g>
			<g>
				<path class="st6" d="M1230.68,913.66c4.36,6.82,10.53,12.15,15.73,18.29c0.52,0.61,1.4-0.27,0.88-0.88
					c-5.14-6.05-11.24-11.3-15.54-18.03C1231.33,912.35,1230.25,912.98,1230.68,913.66L1230.68,913.66z"/>
			</g>
		</g>
		<g>
			<g>
				<path class="st6" d="M1238.75,907.11c4.12,6.85,11,11.23,15.64,17.65c0.47,0.65,1.55,0.02,1.08-0.63
					c-4.63-6.42-11.52-10.82-15.64-17.65C1239.42,905.79,1238.34,906.41,1238.75,907.11L1238.75,907.11z"/>
			</g>
		</g>
		<g>
			<g>
				<path class="st6" d="M1247.33,900.04c3.19,6.16,7.52,11.57,11.6,17.15c0.47,0.64,1.56,0.02,1.08-0.63
					c-4.08-5.58-8.42-10.99-11.6-17.15C1248.04,898.7,1246.96,899.33,1247.33,900.04L1247.33,900.04z"/>
			</g>
		</g>
		<g>
			<g>
				<path class="st6" d="M1255.84,897.37c2.69,6.45,8.31,10.97,11.16,17.3c0.33,0.73,1.41,0.1,1.08-0.63
					c-2.81-6.24-8.39-10.66-11.03-17C1256.74,896.31,1255.53,896.63,1255.84,897.37L1255.84,897.37z"/>
			</g>
		</g>
		<g>
			<g>
				<path class="st6" d="M1110.29,1000.1c1.21-9.32,4.39-18.28,6.22-27.49c1.74-8.74,3.38-17.49,5.01-26.25
					c2.83-15.16,6.27-30.13,10.45-44.98c7.5-26.66,17.08-53.46,33.09-76.3c9.16-13.08,20.51-24.44,34.2-32.75
					c0.69-0.42,0.06-1.5-0.63-1.08c-23.87,14.5-40.02,37.94-51.33,63.01c-12.16,26.94-20.11,56.17-25.72,85.14
					c-2,10.34-3.77,20.72-5.89,31.03c-2.04,9.91-5.35,19.64-6.65,29.68C1108.93,1000.9,1110.19,1000.89,1110.29,1000.1
					L1110.29,1000.1z"/>
			</g>
		</g>
		<g>
			<g>
				<path class="st6" d="M1159.48,784.72c0.85,13.12,0.06,26.07,5.07,38.5c0.3,0.74,1.51,0.42,1.21-0.33
					c-4.96-12.32-4.18-25.18-5.02-38.17C1160.68,783.92,1159.43,783.92,1159.48,784.72L1159.48,784.72z"/>
			</g>
		</g>
		<path class="st7" d="M1159.6,772.11c-13.01,0-13.01,20.17,0,20.17C1172.61,792.29,1172.61,772.11,1159.6,772.11z"/>
		<path class="st7" d="M1202.98,779.68c-13.01,0-13.01,20.17,0,20.17C1215.99,799.85,1215.99,779.68,1202.98,779.68z"/>
		<path class="st7" d="M1311.42,859.88c-5.5,0-10.09,4.59-10.09,10.09v0.51c0,5.5,4.59,10.09,10.09,10.09
			c5.5,0,10.09-4.59,10.09-10.09v-0.51C1321.51,864.47,1316.92,859.88,1311.42,859.88z"/>
	</g>
	<g>
		<g>
			<path class="st4" d="M227.21,322.97c-4.03-11.93-8.2-24.7-7.16-37.43c0.95-10.54,5.47-20.35,9.58-30.09
				c3.59-7.49,4.74-16.77,8.46-23.42c10.07,28.31,23.69,73.82-9.21,93.27"/>
		</g>
		<g>
			<path class="st4" d="M199.81,391.37c-29.63-20.48-21.8-58.96-16.58-89.23c11.44,17.7,23.74,32.66,23.38,55.24
				c-0.32,11.75-6.05,22.18-6.45,33.5"/>
		</g>
		<g>
			<path class="st4" d="M237.18,339.6c4.6-9.38,9.26-18.34,17.14-26.07c8.6-8.71,28.87-17.52,40.78-18.95
				c0.07,14.28-19.62,35.13-31.08,42.12c-8.28,5.2-17.23,6.17-26.44,5.44"/>
		</g>
		<g>
			<path class="st4" d="M244.06,405.66c-3.54-11.57,8.29-27.29,15.26-35.31c12.1-14.03,27.75-24.71,41.8-37.31
				c2.31,23.03-5.32,40.69-20.47,57.35c-10.38,11.15-20.91,15.84-34.99,17.18"/>
		</g>
		<g>
			<path class="st4" d="M168.77,436.52c-13.2-9.63-22.82-26.74-24.13-43.43c-0.39-10.77,1.27-22.29,3.06-32.96
				c1.34-8.01,0.86-16.6,3.19-23.89c4.35,8.41,11.17,16.01,14.68,24.55c4.13,9.75,6.34,21.1,7.57,31.73
				c1.83,14.44-0.5,29.97-5.28,43.71"/>
		</g>
		<g>
			<path class="st4" d="M231.75,448.74c-2.9-12.97,20.39-27.45,29.45-33.2c16.63-9.97,38.06-14.19,55.87-22.18
				c-2.71,18.62-22.67,37.77-38.52,47.19c-10.75,6.02-32.01,14.11-44.29,10.4"/>
		</g>
		<g>
			<g>
				<path class="st5" d="M116.68,588.64c29.64-33.57,50.57-73.36,68.65-114.05c8.96-20.17,18.03-40.49,25.08-61.41
					c7.29-21.62,10.92-43.53,14.63-65.95c2.24-13.54,5.34-26.93,7.24-40.52c0.83-5.91,1.43-11.86,1.62-17.83
					c0.2-6.32,0.48-13.19-0.38-19.44c-0.22-1.59-2.63-0.91-2.41,0.66c0.42,3.07,0.14,7.26,0.27,10.45c0.1,2.47,0.11,4.94,0.05,7.41
					c-0.16,6.67-0.85,13.32-1.82,19.92c-1.67,11.42-4.15,22.7-6.18,34.05c-3.86,21.68-6.74,43.12-13.35,64.22
					c-6.53,20.83-15.38,40.89-24.12,60.87c-8.77,20.06-18.06,39.92-28.73,59.05c-12.05,21.63-25.91,42.23-42.31,60.81
					C113.85,588.08,115.61,589.85,116.68,588.64L116.68,588.64z"/>
			</g>
		</g>
		<g>
			<g>
				<path class="st5" d="M189.46,336.06c-0.74,12.66,1.53,25.68,4.7,37.89c2.87,11.04,6.68,23.18,14.27,31.98
					c1.05,1.22,2.81-0.55,1.77-1.77c-7.6-8.81-11.21-21.18-13.98-32.25c-2.91-11.62-4.97-23.85-4.26-35.86
					C192.05,334.45,189.55,334.45,189.46,336.06L189.46,336.06z"/>
			</g>
		</g>
		<g>
			<g>
				<path class="st5" d="M293.38,345.16c-18.32,32.43-46.37,70.5-85.97,76.25c-1.59,0.23-0.91,2.64,0.66,2.41
					c40.22-5.84,68.85-44.45,87.47-77.4C296.33,345.02,294.17,343.76,293.38,345.16L293.38,345.16z"/>
			</g>
		</g>
		<g>
			<g>
				<path class="st5" d="M153.26,359.39c5.29,34.57,1.56,80.31,33.91,102.95c1.32,0.92,2.57-1.24,1.26-2.16
					c-31.52-22.05-27.61-67.8-32.76-101.45C155.43,357.14,153.02,357.82,153.26,359.39L153.26,359.39z"/>
			</g>
		</g>
		<g>
			<g>
				<path class="st5" d="M301.55,406.9c-29.48,26.03-65.17,49.4-106.22,45.87c-1.6-0.14-1.59,2.36,0,2.5
					c41.7,3.58,78.04-20.15,107.99-46.6C304.53,407.6,302.76,405.83,301.55,406.9L301.55,406.9z"/>
			</g>
		</g>
		<g>
			<g>
				<path class="st5" d="M271.1,312.04c-13.56,12.81-26.83,26.35-44.38,33.58c-1.47,0.6-0.82,3.02,0.66,2.41
					c18.01-7.41,31.56-21.07,45.49-34.22C274.04,312.7,272.27,310.94,271.1,312.04L271.1,312.04z"/>
			</g>
		</g>
	</g>
	<g>
		<g>
			<path class="st2" d="M682.13,1109.05c6.87-27.99,10.31-57.18,8.42-85.7c-4.03-55.47-49.77-64.94-95.5-52.77
				c1.35-41.94,8.07-100.12-36.32-124.47c-47.08-24.35-94.15,29.76-104.91,71.7c-33.63-14.88-55.15-74.41-91.47-29.76
				c-29.59,36.53-10.76,71.7-20.18,110.94c-33.63-27.06-72.63-43.3-99.53,1.35c-19.96,31.88-26.59,72.02-16.33,108.7H682.13z"/>
		</g>
		<path class="st3" d="M265.91,1059.8c-5.6-2.8-11.08-5.7-16.14-9.42c-2.62-1.93-5.14,2.45-2.55,4.36
			c5.06,3.71,10.54,6.61,16.14,9.41C266.26,1065.6,268.81,1061.25,265.91,1059.8z"/>
		<path class="st3" d="M277.82,1029.02c-1.46-6.82-3.92-13.36-5.38-20.17c-0.68-3.18-5.54-1.83-4.86,1.34
			c1.45,6.82,3.92,13.36,5.38,20.17C273.64,1033.54,278.5,1032.19,277.82,1029.02z"/>
		<path class="st3" d="M311.04,1046.09c-6.45,1.19-12.96,1.25-19.51,1.25c-3.25,0-3.25,5.05,0,5.05c7-0.01,13.94-0.16,20.85-1.43
			C315.58,1050.37,314.22,1045.5,311.04,1046.09z"/>
		<path class="st3" d="M322.91,1025.22c-6.1-7.33-12.11-14.74-18.83-21.52c-2.29-2.31-5.86,1.25-3.57,3.57
			c6.72,6.78,12.73,14.19,18.83,21.52C321.43,1031.29,324.97,1027.7,322.91,1025.22z"/>
		<path class="st3" d="M323.14,1075.68c-7.55,2.55-15,5.31-22.87,6.73c-3.2,0.58-1.84,5.44,1.34,4.86
			c7.87-1.42,15.31-4.18,22.87-6.73C327.55,1079.51,326.24,1074.64,323.14,1075.68z"/>
		<path class="st3" d="M357.19,1073.41c-2.9-8.36-7.29-15.71-12.75-22.63c-2.01-2.56-5.56,1.04-3.57,3.57
			c4.9,6.21,8.86,12.91,11.46,20.41C353.38,1077.8,358.25,1076.49,357.19,1073.41z"/>
		<path class="st3" d="M370.82,1030.21c-7.53-3.72-15.16-6.83-23.47-8.32c-3.18-0.57-4.54,4.29-1.34,4.86
			c7.88,1.42,15.11,4.28,22.27,7.82C371.18,1036,373.74,1031.65,370.82,1030.21z"/>
		<path class="st3" d="M402.09,1015.57c-2.58,7.66-5.49,15.21-8.07,22.87c-1.04,3.09,3.83,4.41,4.86,1.34
			c2.58-7.66,5.49-15.2,8.07-22.87C407.99,1013.82,403.12,1012.51,402.09,1015.57z"/>
		<path class="st3" d="M384.34,992.2c-7.76-0.18-15.03-2.47-22.19-5.29c-3.03-1.19-4.33,3.68-1.34,4.86
			c7.6,2.99,15.32,5.28,23.54,5.47C387.6,997.32,387.59,992.27,384.34,992.2z"/>
		<path class="st3" d="M419.57,963.12c-2.78,8.42-5.28,16.95-9.16,24.95c-1.41,2.91,2.93,5.47,4.35,2.55
			c4.08-8.4,6.75-17.32,9.67-26.16C425.46,961.35,420.59,960.04,419.57,963.12z"/>
		<path class="st3" d="M398.23,952.59c-4.69-5.88-9.15-11.89-13.06-18.32c-1.68-2.78-6.05-0.24-4.35,2.54
			c4.13,6.81,8.89,13.13,13.85,19.34C396.69,958.7,400.24,955.1,398.23,952.59z"/>
		<path class="st3" d="M418.48,923.5c-3.05,6.21-5.53,12.65-6.98,19.44c-0.68,3.17,4.19,4.52,4.86,1.34
			c1.36-6.36,3.61-12.4,6.47-18.23C424.27,923.14,419.92,920.58,418.48,923.5z"/>
		<path class="st3" d="M393.25,906.02c-2.73-5.46-5.18-10.89-6.47-16.89c-0.68-3.18-5.55-1.83-4.86,1.34
			c1.38,6.41,4.07,12.26,6.98,18.09C390.35,911.47,394.7,908.92,393.25,906.02z"/>
		<path class="st3" d="M464.14,975.45c-6.37-6.24-13.8-11.25-20.18-17.49c-2.33-2.28-5.89,1.29-3.57,3.57
			c6.37,6.24,13.8,11.25,20.18,17.49C462.9,981.29,466.47,977.73,464.14,975.45z"/>
		<path class="st3" d="M470.6,926.12v26.9c0,3.25,5.04,3.25,5.04,0v-26.9C475.64,922.87,470.6,922.87,470.6,926.12z"/>
		<path class="st3" d="M506.49,940.25c-1.44-8.93-5.16-17.06-8.07-25.56c-1.05-3.06-5.92-1.74-4.86,1.34
			c2.91,8.49,6.63,16.63,8.07,25.55C502.14,944.79,507,943.43,506.49,940.25z"/>
		<path class="st3" d="M530.28,883.34c-8.04-1.24-16.18-1.45-24.21-2.69c-3.18-0.49-4.55,4.37-1.34,4.86
			c8.04,1.24,16.18,1.45,24.21,2.69C532.12,888.69,533.49,883.83,530.28,883.34z"/>
		<path class="st3" d="M540.63,902.59c-3.94,10.98-5.85,22.53-9.42,33.62c-1,3.11,3.87,4.42,4.87,1.34
			c3.57-11.09,5.47-22.65,9.42-33.63C546.6,900.86,541.72,899.55,540.63,902.59z"/>
		<path class="st3" d="M560.48,871.48c-6.17-3.74-11.84-7.98-16.98-13.06c-2.32-2.29-5.89,1.28-3.57,3.57
			c5.43,5.36,11.47,9.89,18,13.85C560.72,877.53,563.25,873.17,560.48,871.48z"/>
		<path class="st3" d="M575.6,905.28c-2.99,11-9.72,19.71-18.18,27.13c-2.45,2.15,1.13,5.7,3.57,3.57
			c9.1-7.99,16.28-17.56,19.48-29.36C581.32,903.47,576.45,902.14,575.6,905.28z"/>
		<path class="st3" d="M577.6,960.66c-4.48,4.48-8.97,8.97-13.45,13.45c-2.3,2.3,1.27,5.87,3.57,3.57
			c4.48-4.49,8.97-8.97,13.45-13.45C583.47,961.92,579.9,958.35,577.6,960.66z"/>
		<path class="st3" d="M523.97,988.67c-2.77-8.06-6.48-15.8-8.07-24.21c-0.6-3.19-5.47-1.84-4.87,1.34
			c1.6,8.42,5.3,16.16,8.07,24.21C520.16,993.06,525.04,991.75,523.97,988.67z"/>
		<path class="st3" d="M553.39,1001.01c-4.92,6.02-10.78,11.08-16.98,15.74c-2.56,1.93-0.06,6.31,2.54,4.35
			c6.54-4.93,12.8-10.17,18-16.53C558.99,1002.08,555.44,998.49,553.39,1001.01z"/>
		<path class="st3" d="M482.79,984.63c-1.41,7.16-2.62,14.36-4.03,21.52c-0.63,3.18,4.23,4.53,4.86,1.34
			c1.42-7.16,2.62-14.36,4.03-21.52C488.28,982.8,483.42,981.44,482.79,984.63z"/>
		<path class="st3" d="M448.83,1031.55c-7.05-4.19-14.32-8-19.67-14.4c-2.09-2.5-5.64,1.09-3.57,3.57
			c5.61,6.71,13.29,10.79,20.69,15.19C449.09,1037.57,451.63,1033.21,448.83,1031.55z"/>
		<path class="st3" d="M502.27,1022.53c-5.42,6.87-9.9,14.23-13.85,22.03c-1.46,2.9,2.89,5.45,4.36,2.55
			c3.73-7.4,7.92-14.49,13.06-21.01C507.83,1023.57,504.28,1019.98,502.27,1022.53z"/>
		<path class="st3" d="M463.44,1057.26c0.59-3.18-4.27-4.54-4.86-1.34c-1.33,7.22-1.33,14.3,0,21.52c0.59,3.2,5.45,1.84,4.86-1.34
			C462.28,1069.8,462.28,1063.56,463.44,1057.26z"/>
		<path class="st3" d="M408.3,1084.17c-2.86-6.94-6.56-13.39-11.02-19.43c-1.91-2.59-6.29-0.08-4.36,2.55
			c4.18,5.65,7.82,11.72,10.51,18.23C404.66,1088.48,409.54,1087.18,408.3,1084.17z"/>
		<path class="st3" d="M435.97,1060.7c-2.89,5.98-4.3,12.13-4.38,18.76c-0.04,3.25,5,3.25,5.04,0c0.07-5.73,1.19-11.05,3.69-16.22
			C441.74,1060.33,437.39,1057.77,435.97,1060.7z"/>
		<path class="st3" d="M522.37,1083.57c-5.24-7.66-12.03-13.58-19.22-19.34c-2.51-2.01-6.11,1.53-3.57,3.57
			c6.83,5.46,13.45,11.05,18.44,18.32C519.84,1088.78,524.22,1086.26,522.37,1083.57z"/>
		<path class="st3" d="M547.26,1048.52c-0.09,7.16-1.39,14.16-3.95,20.85c-1.16,3.04,3.72,4.35,4.87,1.34
			c2.71-7.09,4.02-14.61,4.12-22.19C552.35,1045.27,547.31,1045.27,547.26,1048.52z"/>
		<path class="st3" d="M596.79,1090.73c-6.95-4.04-14.57-6.72-21.52-10.76c-2.82-1.64-5.36,2.72-2.55,4.35
			c6.95,4.04,14.57,6.73,21.52,10.76C597.07,1096.72,599.6,1092.37,596.79,1090.73z"/>
		<path class="st3" d="M593.09,1024.99c-1.31,7.75-2.94,15.37-5.38,22.87c-1.01,3.1,3.86,4.42,4.87,1.34
			c2.44-7.49,4.07-15.11,5.38-22.87C598.49,1023.15,593.63,1021.79,593.09,1024.99z"/>
		<path class="st3" d="M641.69,1068.26c-5.77-5.61-12.53-9.7-19.94-12.75c-3.01-1.24-4.31,3.64-1.34,4.86
			c6.58,2.71,12.61,6.49,17.72,11.46C640.46,1074.09,644.03,1070.53,641.69,1068.26z"/>
		<path class="st3" d="M660.99,1011.77c-5.26,6.77-8.72,14.4-12.5,22.03c-1.44,2.9,2.91,5.46,4.36,2.54
			c3.57-7.2,6.75-14.63,11.71-21.01C666.53,1012.8,662.98,1009.2,660.99,1011.77z"/>
		<path class="st3" d="M625.04,997.92c-5.95-2.94-12.08-5.5-17.49-9.42c-2.64-1.91-5.15,2.47-2.54,4.35
			c5.4,3.92,11.53,6.48,17.49,9.42C625.4,1003.71,627.96,999.36,625.04,997.92z"/>
		<path class="st3" d="M646.89,983.29c-1.34,4.04-2.69,8.07-4.04,12.11c-1.03,3.09,3.84,4.41,4.86,1.34
			c1.35-4.04,2.69-8.07,4.04-12.11C652.79,981.54,647.91,980.22,646.89,983.29z"/>
		<path class="st3" d="M668.67,1063.39c-2.97,6.34-2.88,12.66-1.6,19.43c0.61,3.19,5.47,1.84,4.87-1.34
			c-1.01-5.32-1.26-10.53,1.09-15.54C674.39,1063.01,670.04,1060.45,668.67,1063.39z"/>
	</g>
	<g>
		<g>
			<path class="st8" d="M650.49,1131.57c-18.56,2.35-35.87,5.52-54.1,1.81c-23.48-5.31-43.5-17.36-61.48-32.57
				c-34.47-28.56-49.4-65.13-63.56-105.68c-4.99-13.1-8.94-26.41-9.76-40.41c74.68,5.21,137.79,35.26,176.1,99.5
				C643.47,1063.34,657.25,1114.19,650.49,1131.57"/>
		</g>
		<g>
			<path class="st9" d="M554.45,1051.04c-16.11-15.91-31.25-32.42-45.99-49.59c-13.85-16.13-28.01-32.5-46.14-43.96
				c-0.18-0.12-0.35-0.24-0.52-0.36c1.11,13.12,4.85,25.66,9.56,38.01c14.15,40.55,29.09,77.12,63.56,105.68
				c17.98,15.21,38,27.26,61.48,32.57c17.1,3.48,33.37,0.91,50.64-1.36C614.7,1106.79,583.62,1079.85,554.45,1051.04z"/>
		</g>
		<g>
			<g>
				<path class="st10" d="M651.18,1130.13c-14.27-8.87-26.13-20.79-39.01-31.45c-13.49-11.17-27.07-22.03-39.94-33.95
					c-12.45-11.53-25.05-23.1-36.95-35.2c-10.45-10.62-19.34-22.62-28.7-34.18c-10.32-12.75-21.35-24.97-35.13-34.04
					c-1.35-0.89-2.6,1.28-1.26,2.16c25.43,16.74,40.59,43.9,61.16,65.59c11.52,12.15,24.13,23.46,36.37,34.88
					c12.89,12.04,26.27,23.33,40.04,34.35c14.11,11.29,26.73,24.41,42.15,34C651.29,1133.14,652.54,1130.98,651.18,1130.13
					L651.18,1130.13z"/>
			</g>
		</g>
		<g>
			<g>
				<path class="st10" d="M484.83,993.2c7.15,2.17,14.26,4.17,21.72,4.9c0.72,0.07,1.19-0.63,1.25-1.25
					c0.86-8.78,0.45-17.91-1.67-26.5c-0.38-1.56-2.8-0.9-2.41,0.66c2.06,8.38,2.42,17.27,1.58,25.84c0.42-0.42,0.83-0.83,1.25-1.25
					c-7.23-0.71-14.13-2.71-21.05-4.81C483.96,990.32,483.3,992.74,484.83,993.2L484.83,993.2z"/>
			</g>
		</g>
		<g>
			<g>
				<path class="st10" d="M489.96,1020.44c13.41,3.65,27.27,4.63,41.09,5.46c0.74,0.04,1.17-0.61,1.25-1.25
					c1.98-15.08,0.33-30.29,0.05-45.42c-0.03-1.61-2.53-1.61-2.5,0c0.27,15.13,1.93,30.34-0.05,45.42c0.42-0.42,0.83-0.83,1.25-1.25
					c-13.6-0.82-27.22-1.78-40.43-5.37C489.07,1017.6,488.4,1020.01,489.96,1020.44L489.96,1020.44z"/>
			</g>
		</g>
		<g>
			<g>
				<path class="st10" d="M511.85,1051.34c18.3,6.74,37.8,9.03,56.49,14.39c0.63,0.18,1.39-0.22,1.54-0.87
					c4.59-20.58-1.13-42.28-3.2-62.84c-0.16-1.59-2.66-1.6-2.5,0c2.04,20.28,7.81,41.88,3.29,62.18c0.51-0.29,1.03-0.58,1.54-0.87
					c-18.69-5.37-38.19-7.65-56.49-14.39C511,1048.37,510.35,1050.78,511.85,1051.34L511.85,1051.34z"/>
			</g>
		</g>
		<g>
			<g>
				<path class="st10" d="M538,1088.58c20.36,4.11,41.52,6.15,62.25,4.19c0.64-0.06,1.29-0.52,1.25-1.25
					c-1.24-23.12-4.09-46.11-6.13-69.16c-0.14-1.59-2.64-1.6-2.5,0c2.04,23.05,4.89,46.04,6.13,69.16c0.42-0.42,0.83-0.83,1.25-1.25
					c-20.51,1.94-41.44-0.03-61.58-4.1C537.1,1085.85,536.43,1088.26,538,1088.58L538,1088.58z"/>
			</g>
		</g>
		<g>
			<g>
				<path class="st10" d="M550.69,1026.04c1.61,0,1.61-2.5,0-2.5C549.08,1023.54,549.08,1026.04,550.69,1026.04L550.69,1026.04z"/>
			</g>
		</g>
		<g>
			<g>
				<path class="st10" d="M544.11,1014.01c1.61,0,1.61-2.5,0-2.5C542.5,1011.51,542.5,1014.01,544.11,1014.01L544.11,1014.01z"/>
			</g>
		</g>
		<g>
			<g>
				<path class="st10" d="M554.85,1014.98c1.61,0,1.61-2.5,0-2.5C553.24,1012.48,553.24,1014.98,554.85,1014.98L554.85,1014.98z"/>
			</g>
		</g>
		<g>
			<g>
				<path class="st10" d="M522.92,1042.17c1.61,0,1.61-2.5,0-2.5C521.31,1039.67,521.3,1042.17,522.92,1042.17L522.92,1042.17z"/>
			</g>
		</g>
		<g>
			<g>
				<path class="st10" d="M511.77,1037c0.14,0.09,0.28,0.18,0.42,0.27c0.57,0.37,1.38,0.11,1.71-0.45c0.36-0.61,0.12-1.34-0.45-1.71
					c-0.14-0.09-0.28-0.18-0.42-0.27c-0.57-0.37-1.38-0.11-1.71,0.45C510.96,1035.89,511.2,1036.63,511.77,1037L511.77,1037z"/>
			</g>
		</g>
		<g>
			<g>
				<path class="st10" d="M519.89,1034.83c1.61,0,1.61-2.5,0-2.5C518.28,1032.33,518.27,1034.83,519.89,1034.83L519.89,1034.83z"/>
			</g>
		</g>
		<g>
			<g>
				<path class="st10" d="M518.23,996.68c1.61,0,1.61-2.5,0-2.5C516.63,994.18,516.62,996.68,518.23,996.68L518.23,996.68z"/>
			</g>
		</g>
		<g>
			<g>
				<path class="st10" d="M519.1,988.87c1.61,0,1.61-2.5,0-2.5C517.49,986.37,517.49,988.87,519.1,988.87L519.1,988.87z"/>
			</g>
		</g>
		<g>
			<g>
				<path class="st10" d="M480.15,983.43c1.61,0,1.61-2.5,0-2.5C478.54,980.93,478.54,983.43,480.15,983.43L480.15,983.43z"/>
			</g>
		</g>
		<g>
			<g>
				<path class="st10" d="M473.68,978.64c1.61,0,1.61-2.5,0-2.5C472.07,976.14,472.07,978.64,473.68,978.64L473.68,978.64z"/>
			</g>
		</g>
		<g>
			<g>
				<path class="st10" d="M493.86,967.77c1.61,0,1.61-2.5,0-2.5C492.26,965.27,492.25,967.77,493.86,967.77L493.86,967.77z"/>
			</g>
		</g>
		<g>
			<g>
				<path class="st10" d="M552.25,1077.29c1.61,0,1.61-2.5,0-2.5C550.64,1074.79,550.64,1077.29,552.25,1077.29L552.25,1077.29z"/>
			</g>
		</g>
		<g>
			<g>
				<path class="st10" d="M560.06,1078.15c1.61,0,1.61-2.5,0-2.5C558.45,1075.65,558.45,1078.15,560.06,1078.15L560.06,1078.15z"/>
			</g>
		</g>
		<g>
			<g>
				<path class="st10" d="M581.88,1044.41c1.61,0,1.61-2.5,0-2.5C580.27,1041.91,580.27,1044.41,581.88,1044.41L581.88,1044.41z"/>
			</g>
		</g>
		<g>
			<g>
				<path class="st10" d="M581.77,1037.17c1.61,0,1.61-2.5,0-2.5C580.17,1034.67,580.16,1037.17,581.77,1037.17L581.77,1037.17z"/>
			</g>
		</g>
		<g>
			<g>
				<path class="st10" d="M609.24,1058.51c1.61,0,1.61-2.5,0-2.5C607.63,1056.01,607.63,1058.51,609.24,1058.51L609.24,1058.51z"/>
			</g>
		</g>
		<g>
			<g>
				<path class="st10" d="M616.61,1067.46c1.61,0,1.61-2.5,0-2.5C615,1064.96,615,1067.46,616.61,1067.46L616.61,1067.46z"/>
			</g>
		</g>
		<g>
			<g>
				<path class="st10" d="M586.13,1111.03c0.09-0.14,0.18-0.28,0.27-0.42c0.36-0.57,0.12-1.38-0.45-1.71
					c-0.6-0.35-1.34-0.12-1.71,0.45c-0.09,0.14-0.18,0.28-0.27,0.42c-0.36,0.57-0.12,1.38,0.45,1.71
					C585.03,1111.84,585.77,1111.6,586.13,1111.03L586.13,1111.03z"/>
			</g>
		</g>
		<g>
			<g>
				<path class="st10" d="M595.94,1113.31c1.61,0,1.61-2.5,0-2.5C594.33,1110.81,594.33,1113.31,595.94,1113.31L595.94,1113.31z"/>
			</g>
		</g>
	</g>
	<g>
		<g>
			<path class="st11" d="M770.99,1045.26c-17.49-14.8-22.87-49.77-29.59-71.29c-5.38-17.49-10.76-39.01-8.07-57.84
				c4.03-28.24,13.45-28.24,24.21-4.03c6.73,16.14,22.87,44.38,24.21,10.76c0-17.48-12.11-37.66-16.14-53.8
				c-1.35-9.42-9.42-44.38,10.76-36.31c12.11,5.38,14.8,44.38,17.49,55.15c2.69,13.45,5.38,36.31,16.14,14.8
				c8.07-14.8-2.69-40.36-6.73-53.8c-4.04-14.8-12.11-34.98-9.42-49.77c5.38-22.86,14.8-18.83,22.87-1.35
				c5.38,10.77,5.38,37.67,16.14,44.39c20.18,13.45,18.83-12.11,16.14-25.55c-2.69-20.18-25.56-78.02,8.07-86.09
				c6.72,16.14-2.69,37.66,6.72,52.46c18.83,28.25,22.87-16.14,20.18-29.59c-1.34-10.76-9.42-98.19,17.49-64.56
				c8.07,9.42-6.73,49.77,13.45,52.46c21.52,2.69,13.45-40.35,12.1-49.77c-1.35-6.73-8.07-45.73,9.42-41.7
				c6.73,1.35,6.73,40.35,12.1,47.08c13.45-9.42,37.66-69.94,55.14-65.91c28.25,6.73-32.28,78.01-36.32,90.12
				c16.14,5.38,36.32-16.14,52.46-9.42c29.59,13.45-10.76,24.21-22.87,28.25c-12.11,2.69-52.45,9.41-53.8,25.55
				c-2.69,20.18,32.28,1.34,44.38,2.69c20.17,2.69,32.28,16.14,10.76,28.25c-18.83,9.41-44.38-1.34-64.56,5.38
				c-22.87,6.73-26.9,22.87-2.69,28.24c12.11,2.7,52.45-6.72,55.14,14.8c4.03,39.01-104.91,0-95.49,33.63
				c4.03,13.45,45.73,5.38,55.15,20.17c17.48,25.56-14.8,21.52-29.59,18.83c-13.45-1.35-49.77-10.76-56.49,8.07
				c-9.41,22.87,32.28,13.45,44.39,13.45c14.8,1.35,48.42,10.76,25.56,26.9c-13.45,10.76-45.73-4.03-60.53-4.03
				c-8.07,0-26.9,0-30.94,10.76c-6.73,17.49,20.18,12.11,30.94,13.45c33.63,6.73,36.32,24.21,4.03,36.32
				c-22.87,6.72-78.02,26.9-96.85,22.87"/>
		</g>
		<g>
			<path class="st6" d="M996.95,739.93c12.1-4.04,52.46-14.8,22.87-28.25c-16.14-6.72-36.32,14.8-52.46,9.42
				c3.87-11.6,59.63-77.57,39.37-88.95c0.41,2.09,0.08,4.43-1.35,6.85c-3.85,6.54-8.18,12.74-12.7,18.79
				c-21.2,30.75-43.69,60.63-63.83,92.1c-24.07,37.63-42.79,78.36-64.92,117.13c-22.48,39.39-44.69,78.63-63.34,120.01
				c-8.75,19.42-17.32,39.45-27.84,58.22h3.6c18.83,4.03,73.98-16.14,96.85-22.87c32.28-12.1,29.59-29.59-4.03-36.32
				c-10.76-1.34-37.66,4.03-30.94-13.45c4.03-10.76,22.87-10.76,30.94-10.76c14.8,0,47.08,14.79,60.53,4.03
				c22.87-16.14-10.76-25.56-25.56-26.9c-12.11,0-53.8,9.42-44.39-13.45c6.73-18.83,43.04-9.42,56.49-8.07
				c14.8,2.69,47.07,6.72,29.59-18.83c-9.42-14.8-51.11-6.73-55.15-20.17c-9.42-33.63,99.53,5.38,95.49-33.63
				c-2.69-21.52-43.04-12.1-55.14-14.8c-24.21-5.37-20.18-21.52,2.69-28.24c20.17-6.72,45.73,4.03,64.56-5.38
				c21.52-12.11,9.42-25.56-10.76-28.25c-12.11-1.35-47.07,17.49-44.38-2.69C944.5,749.34,984.84,742.62,996.95,739.93z"/>
		</g>
		<g>
			<g>
				<path class="st4" d="M981.47,677.66c-32.06,48.06-67.16,94.13-96.19,144.14c-28.45,49.03-54.23,99.61-79.55,150.31
					c-12.05,24.12-23.92,48.33-35.84,72.51c-0.71,1.44,1.45,2.71,2.16,1.26c22.9-46.47,45.71-92.98,69.63-138.93
					c24.1-46.3,48.52-93.24,78.47-136.11c21.33-30.53,42.79-60.93,63.47-91.92C984.53,677.58,982.36,676.33,981.47,677.66
					L981.47,677.66z"/>
			</g>
		</g>
		<g>
			<g>
				<path class="st4" d="M773.49,958.74c0.03,23.9,0.99,47.81,3.03,71.63c0.08,0.94,1,1.57,1.88,1.08
					c16.57-9.21,34.54-15.81,50.44-26.23c1.34-0.88,0.09-3.04-1.26-2.16c-15.9,10.42-33.87,17.02-50.44,26.23
					c0.63,0.36,1.25,0.72,1.88,1.08c-2.04-23.82-3-47.72-3.03-71.63C775.99,957.13,773.49,957.13,773.49,958.74L773.49,958.74z"/>
			</g>
		</g>
		<g>
			<g>
				<path class="st4" d="M797.71,927.47c-0.99,19.17,0,38.36,1.01,57.5c0.04,0.78,0.77,1.46,1.58,1.21
					c15.46-4.83,25.11-19.03,37.63-28.37c1.27-0.95,0.03-3.12-1.26-2.16c-12.27,9.16-21.91,23.39-37.03,28.12
					c0.53,0.4,1.05,0.8,1.58,1.21c-1-19.14-2-38.34-1.01-57.5C800.29,925.86,797.79,925.87,797.71,927.47L797.71,927.47z"/>
			</g>
		</g>
		<g>
			<g>
				<path class="st4" d="M831.04,870.64c-2.78,17.2,0.76,34.53-1.05,51.78c-0.12,1.15,1.41,1.55,2.13,0.88
					c15.59-14.23,36.03-21.17,53.21-33.1c1.31-0.91,0.06-3.08-1.26-2.16c-17.36,12.06-37.95,19.1-53.72,33.49
					c0.71,0.29,1.42,0.59,2.13,0.88c1.78-17.03-1.78-34.15,0.96-51.12C833.7,869.73,831.3,869.06,831.04,870.64L831.04,870.64z"/>
			</g>
		</g>
		<g>
			<g>
				<path class="st4" d="M865.3,812.47c0,14.26-0.01,28.56,2.06,42.7c0.13,0.87,1.19,1.04,1.84,0.75
					c12.03-5.54,23.49-12.2,35.31-18.16c1.44-0.72,0.17-2.88-1.26-2.16c-11.82,5.95-23.28,12.62-35.31,18.16
					c0.61,0.25,1.22,0.5,1.84,0.75c-2.03-13.91-1.97-28.01-1.97-42.04C867.8,810.86,865.3,810.86,865.3,812.47L865.3,812.47z"/>
			</g>
		</g>
		<g>
			<g>
				<path class="st4" d="M901.61,753.96c-0.12,13.93-2.82,28.03,1.05,41.69c0.18,0.62,0.89,1.09,1.54,0.87
					c13.12-4.38,26.4-8.72,38.63-15.26c1.42-0.76,0.16-2.92-1.26-2.16c-12.05,6.44-25.12,10.7-38.04,15.01
					c0.51,0.29,1.03,0.58,1.54,0.87c-3.81-13.42-1.08-27.34-0.96-41.03C904.13,752.35,901.63,752.35,901.61,753.96L901.61,753.96z"
					/>
			</g>
		</g>
		<g>
			<g>
				<path class="st4" d="M940.96,710.58c0,8.09-0.08,16.16-1.01,24.21c-0.08,0.72,0.64,1.19,1.25,1.25
					c8.71,0.91,17.49-2.12,25.55-5.09c1.5-0.55,0.85-2.97-0.66-2.41c-7.84,2.89-16.4,5.89-24.88,5c0.42,0.42,0.83,0.83,1.25,1.25
					c0.93-8.05,1.01-16.12,1.01-24.21C943.46,708.97,940.96,708.96,940.96,710.58L940.96,710.58z"/>
			</g>
		</g>
	</g>
	<g>
		<g>
			<path class="st12" d="M114.34,1171.48c-38.34-16.14-82.72-60.53-108.95-90.79c-16.14-18.16-40.35-46.41-42.37-72.63
				c-4.03-42.37,32.28-30.26,56.49-46.41C-4.7,921.3-55.14,891.03-65.22,840.59C-75.31,786.12-39,790.15,1.36,800.24
				c-20.18-32.28-70.61-68.6-78.69-106.93c-8.07-48.42,62.78-25.7,91.03-25.7c-20.18-14.12-72.87-69.12-78.92-93.34
				c-14.12-52.46,40.35-40.35,72.63-34.3C5.39,517.78-4.7,400.75,33.64,404.79c42.37,4.03,44.39,123.07,50.44,153.34
				c18.16-22.2,86.76-76.67,74.65-12.11c-4.04,32.28-49.12,73.76-61.22,106.04c32.28-2.02,99.56-41.48,85.43,13
				c-10.09,40.35-40.62,68.52-66.58,106.94c22.19-10.09,82.72-36.32,88.77-2.02c6.05,34.3-56.49,78.69-70.61,106.93
				c20.18-4.04,80.7-34.3,78.69,10.09c-2.02,28.25-58.51,64.56-72.63,86.76c16.14,2.02,56.49-6.05,64.56,10.09
				c12.11,20.18-24.21,58.51-36.32,74.65c-24.21,32.28-44.39,58.51-50.44,100.88"/>
		</g>
		<g>
			<g>
				<path class="st13" d="M44.13,491.67c1.14,38.65,4.41,77.26,7.62,115.78c4.49,53.72,9.59,107.39,14.85,161.04
					c5.55,56.62,11.31,113.23,17.09,169.83c4.91,48.12,9.88,96.23,14.58,144.37c2.63,26.98,5.87,54.09,6.96,81.19
					c0.05,1.33,0.1,2.66,0.1,3.99c0,1.61,2.5,1.61,2.5,0c-0.04-23.75-3.46-47.79-5.72-71.39c-4.42-46.09-9.17-92.14-13.87-138.2
					c-5.74-56.16-11.48-112.32-17.04-168.5c-5.43-54.86-10.71-109.73-15.45-164.66c-3.52-40.87-7.01-81.81-8.74-122.81
					c-0.15-3.55-0.28-7.1-0.38-10.65C46.58,490.06,44.08,490.06,44.13,491.67L44.13,491.67z"/>
			</g>
		</g>
		<g>
			<g>
				<path class="st13" d="M-5.27,570.56c20.24,22.77,45.4,41.74,58.99,69.69c0.41,0.85,1.73,0.78,2.16,0
					c12.22-21.97,20.32-45.87,30.94-68.6c0.68-1.45-1.48-2.72-2.16-1.26c-10.62,22.73-18.71,46.63-30.94,68.6c0.72,0,1.44,0,2.16,0
					c-13.69-28.15-38.99-47.27-59.38-70.2C-4.57,567.59-6.34,569.36-5.27,570.56L-5.27,570.56z"/>
			</g>
		</g>
		<g>
			<g>
				<path class="st13" d="M-3.93,687.59c24.1,22.72,49.87,44.32,69.75,71.03c0.58,0.78,1.58,0.82,2.16,0
					c16.86-23.86,34.41-47.54,47.08-73.98c0.69-1.44-1.46-2.71-2.16-1.26c-12.67,26.44-30.22,50.12-47.08,73.98
					c0.72,0,1.44,0,2.16,0c-20.02-26.9-45.87-48.66-70.14-71.54C-3.33,684.72-5.1,686.48-3.93,687.59L-3.93,687.59z"/>
			</g>
		</g>
		<g>
			<g>
				<path class="st13" d="M4.14,824.78c26.17,23.58,51.77,47.79,78.01,71.29c0.54,0.48,1.62,0.53,1.96-0.25
					c9.97-22.49,24.04-42.98,32.41-66.21c0.55-1.52-1.87-2.17-2.41-0.66c-8.3,23.02-22.27,43.32-32.16,65.61
					c0.65-0.08,1.31-0.17,1.96-0.25c-26.24-23.5-51.84-47.71-78.01-71.29C4.72,821.94,2.94,823.7,4.14,824.78L4.14,824.78z"/>
			</g>
		</g>
		<g>
			<g>
				<path class="st13" d="M25.66,931.04c21.34,21.26,44.53,40.65,64.56,63.22c0.49,0.55,1.65,0.47,1.96-0.25
					c10.96-25.71,26.97-48.8,39.01-73.98c0.69-1.44-1.46-2.71-2.16-1.26C117,943.94,101,967.04,90.03,992.75
					c0.65-0.08,1.31-0.17,1.96-0.25c-20.03-22.56-43.22-41.95-64.56-63.22C26.29,928.14,24.52,929.91,25.66,931.04L25.66,931.04z"/>
			</g>
		</g>
		<g>
			<g>
				<path class="st13" d="M57.75,1027.64c10.65,14.85,25.63,25.92,39.2,37.92c0.6,0.53,1.53,0.47,1.96-0.25
					c8.17-13.67,15.84-27.69,25.56-40.35c0.98-1.28-1.19-2.52-2.16-1.26c-9.72,12.66-17.39,26.69-25.56,40.35
					c0.65-0.08,1.31-0.17,1.96-0.25c-13.39-11.84-28.3-22.76-38.81-37.41C58.98,1025.08,56.81,1026.32,57.75,1027.64L57.75,1027.64z
					"/>
			</g>
		</g>
		<path class="st13" d="M112.63,561.86c-4.88,0-4.88,7.57,0,7.57C117.51,569.43,117.51,561.86,112.63,561.86z"/>
		<path class="st13" d="M124.74,543.03c-4.88,0-4.88,7.57,0,7.57C129.62,550.6,129.62,543.03,124.74,543.03z"/>
		<path class="st13" d="M130.12,559.17c-4.88,0-4.88,7.56,0,7.56C135,566.74,135,559.17,130.12,559.17z"/>
		<path class="st13" d="M138.19,664.09h-1.35c-2.06,0-3.78,1.72-3.78,3.78c0,2.06,1.72,3.78,3.78,3.78h1.35
			c2.06,0,3.78-1.72,3.78-3.78C141.97,665.81,140.25,664.09,138.19,664.09z"/>
		<path class="st13" d="M154.33,657.36c-4.88,0-4.88,7.56,0,7.56C159.21,664.93,159.21,657.36,154.33,657.36z"/>
		<path class="st13" d="M146.26,678.88c-4.88,0-4.88,7.56,0,7.56C151.14,686.45,151.14,678.88,146.26,678.88z"/>
		<path class="st13" d="M150.29,785.14c-4.88,0-4.88,7.57,0,7.57S155.17,785.14,150.29,785.14z"/>
		<path class="st13" d="M163.74,778.42c-4.88,0-4.88,7.57,0,7.57C168.62,785.99,168.62,778.42,163.74,778.42z"/>
		<path class="st13" d="M161.05,798.6c-4.88,0-4.88,7.56,0,7.56C165.93,806.16,165.93,798.6,161.05,798.6z"/>
		<path class="st13" d="M45.38,799.94c-4.88,0-4.88,7.57,0,7.57C50.26,807.51,50.26,799.94,45.38,799.94z"/>
		<path class="st13" d="M45.38,779.76c-4.88,0-4.88,7.57,0,7.57C50.26,787.33,50.26,779.76,45.38,779.76z"/>
		<path class="st13" d="M-12.46,602.21c-2.06,0-3.78,1.72-3.78,3.78v1.35c0,2.06,1.72,3.78,3.78,3.78c2.06,0,3.78-1.72,3.78-3.78
			V606C-8.68,603.93-10.4,602.21-12.46,602.21z"/>
		<path class="st13" d="M-0.36,617.01c-4.88,0-4.88,7.57,0,7.57C4.52,624.58,4.52,617.01-0.36,617.01z"/>
		<path class="st13" d="M65.55,540.34c-4.88,0-4.88,7.56,0,7.56C70.43,547.91,70.43,540.34,65.55,540.34z"/>
		<path class="st13" d="M103.22,906.2c-4.88,0-4.88,7.57,0,7.57C108.1,913.77,108.1,906.2,103.22,906.2z"/>
		<path class="st13" d="M116.67,890.06c-4.88,0-4.88,7.57,0,7.57C121.55,897.63,121.55,890.06,116.67,890.06z"/>
		<path class="st13" d="M148.95,989.59c-4.88,0-4.88,7.57,0,7.57C153.83,997.16,153.83,989.59,148.95,989.59z"/>
		<path class="st13" d="M158.36,1013.81c-4.88,0-4.88,7.56,0,7.56C163.24,1021.37,163.24,1013.81,158.36,1013.81z"/>
		<path class="st13" d="M171.81,994.98c-4.88,0-4.88,7.57,0,7.57C176.69,1002.54,176.69,994.98,171.81,994.98z"/>
		<path class="st13" d="M5.03,1012.46c-4.88,0-4.88,7.57,0,7.57C9.9,1020.03,9.9,1012.46,5.03,1012.46z"/>
		<path class="st13" d="M3.68,990.94c-4.88,0-4.88,7.56,0,7.56S8.56,990.94,3.68,990.94z"/>
		<path class="st13" d="M-24.31,862.91v1.01c0,4.88,7.57,4.88,7.57,0v-1.01C-16.75,858.03-24.31,858.03-24.31,862.91z"/>
		<path class="st13" d="M-24.57,834.91c-4.88,0-4.88,7.57,0,7.57C-19.69,842.48-19.69,834.91-24.57,834.91z"/>
		<path class="st13" d="M179.89,888.72c-4.88,0-4.88,7.57,0,7.57C184.77,896.28,184.77,888.72,179.89,888.72z"/>
		<path class="st13" d="M-31.29,701.75c-4.88,0-4.88,7.57,0,7.57C-26.41,709.32-26.41,701.75-31.29,701.75z"/>
	</g>
	<g>
		<g>
			<g>
				<path class="st14" d="M165.75,1027.13c-14.34-7.65-29.64-37.29-38.25-50.68c-15.3-22.95-24.86-51.63-28.69-79.36
					c-7.65-58.33,19.12-109.01,53.55-154.9c35.38-46.86,85.1-84.14,133.87-114.74c31.25,46.2,52.59,108.05,54.5,164.46
					c1.91,49.73-10.52,104.23-34.42,147.26C278.58,987.93,220.26,1020.44,165.75,1027.13"/>
			</g>
			<g>
				<path class="st4" d="M340.74,791.91c-1.91-56.41-23.26-118.26-54.5-164.46c-0.79,0.49-1.57,1.01-2.36,1.5
					c-6,33.25-123.72,395.2-118.12,398.19c54.5-6.69,112.83-39.2,140.56-87.97C330.22,896.14,342.65,841.63,340.74,791.91z"/>
			</g>
			<g>
				<g>
					<path class="st15" d="M284.03,630.31c-3.19,28.55-14.71,54.88-23.5,81.95c-7.94,24.46-15.46,49.06-22.98,73.65
						c-18.57,60.76-36.71,121.65-55.05,182.47c-5.88,19.49-11.52,39.09-17.95,58.41c-0.51,1.53,1.9,2.19,2.41,0.66
						c14.87-44.7,27.52-90.22,41.08-135.32c17.4-57.89,34.56-115.88,53.04-173.43c9.37-29.19,22.02-57.7,25.45-88.39
						C286.71,628.72,284.2,628.73,284.03,630.31L284.03,630.31z"/>
				</g>
			</g>
			<g>
				<g>
					<path class="st15" d="M249.6,667.6c-0.9,21.24,1.68,42.63,5.78,63.44c0.19,0.95,1.46,1.17,2.09,0.55
						c14.07-13.82,31.8-23.42,44.94-38.25c1.06-1.2-0.7-2.98-1.77-1.77c-13.14,14.83-30.87,24.42-44.94,38.25
						c0.7,0.18,1.39,0.37,2.09,0.55c-4.06-20.6-6.58-41.75-5.69-62.78C252.17,666,249.67,666,249.6,667.6L249.6,667.6z"/>
				</g>
			</g>
			<g>
				<g>
					<path class="st15" d="M212.36,703.32c4.14,16.75,7.38,33.72,10.97,50.59c3.18,14.96,5.74,30.62,11.03,45.03
						c0.29,0.8,1.07,1.12,1.84,0.75c24.45-11.74,49.12-23.61,70.76-40.17c1.26-0.96,0.02-3.14-1.26-2.16
						c-21.64,16.55-46.31,28.42-70.76,40.17c0.61,0.25,1.22,0.5,1.84,0.75c-5.29-14.4-7.84-30.07-11.03-45.03
						c-3.59-16.87-6.83-33.85-10.97-50.59C214.38,701.09,211.97,701.75,212.36,703.32L212.36,703.32z"/>
				</g>
			</g>
			<g>
				<g>
					<path class="st15" d="M167.42,788.42c4.14,18.64,14.02,35.34,21.16,52.89c6.44,15.82,9.29,33.56,19.12,47.81
						c0.39,0.56,1.08,0.8,1.71,0.45c31.1-17.41,64.63-30.77,93.71-51.64c1.3-0.93,0.05-3.1-1.26-2.16
						c-29.08,20.87-62.61,34.23-93.71,51.64c0.57,0.15,1.14,0.3,1.71,0.45c-9.57-13.86-12.28-31.02-18.53-46.41
						c-7.23-17.83-17.31-34.78-21.51-53.7C169.48,786.18,167.07,786.85,167.42,788.42L167.42,788.42z"/>
				</g>
			</g>
			<g>
				<g>
					<path class="st15" d="M143.51,862.04c5.4,16.79,13.98,32.43,21.19,48.48c7,15.56,18.64,28.79,23.75,45.23
						c0.19,0.61,0.88,1.11,1.54,0.87c33.62-12.1,61.33-35.78,94-49.85c1.47-0.63,0.2-2.79-1.26-2.16
						c-32.48,13.98-60,37.57-93.41,49.6c0.51,0.29,1.03,0.58,1.54,0.87c-4.84-15.58-15.4-28.34-22.57-42.81
						c-3.91-7.89-7.37-16.04-11.17-24c-4.18-8.78-8.23-17.63-11.21-26.9C145.43,859.85,143.02,860.5,143.51,862.04L143.51,862.04z"
						/>
				</g>
			</g>
			<path class="st15" d="M185.83,774.22c-3.08,0-3.08,4.78,0,4.78C188.92,779,188.92,774.22,185.83,774.22z"/>
			<path class="st15" d="M189.66,758.92h-0.96c-3.08,0-3.08,4.78,0,4.78h0.96C192.74,763.7,192.74,758.92,189.66,758.92z"/>
			<path class="st15" d="M197.31,770.39c-3.08,0-3.08,4.78,0,4.78C200.39,775.18,200.39,770.39,197.31,770.39z"/>
			<path class="st15" d="M275.72,744.58c-3.08,0-3.08,4.78,0,4.78C278.8,749.36,278.8,744.58,275.72,744.58z"/>
			<path class="st15" d="M285.28,731.19c-3.08,0-3.08,4.78,0,4.78C288.36,735.97,288.36,731.19,285.28,731.19z"/>
			<path class="st15" d="M289.1,744.58c-3.08,0-3.08,4.78,0,4.78C292.19,749.36,292.19,744.58,289.1,744.58z"/>
			<path class="st15" d="M263.29,822.03c-3.08,0-3.08,4.78,0,4.78C266.37,826.81,266.37,822.03,263.29,822.03z"/>
			<path class="st15" d="M273.33,813.9v0.96c0,3.08,4.78,3.08,4.78,0v-0.96C278.11,810.82,273.33,810.82,273.33,813.9z"/>
			<path class="st15" d="M169.58,869.84c-3.08,0-3.08,4.78,0,4.78C172.66,874.62,172.66,869.84,169.58,869.84z"/>
			<path class="st15" d="M176.27,882.27c-3.08,0-3.08,4.78,0,4.78C179.35,887.05,179.35,882.27,176.27,882.27z"/>
			<path class="st15" d="M142.33,928.65v0.95c0,3.08,4.78,3.08,4.78,0v-0.95C147.11,925.56,142.33,925.56,142.33,928.65z"/>
			<path class="st15" d="M150.45,940.6c-3.08,0-3.08,4.78,0,4.78C153.54,945.38,153.54,940.6,150.45,940.6z"/>
			<path class="st15" d="M242.25,958.77c-3.08,0-3.08,4.78,0,4.78C245.33,963.55,245.33,958.77,242.25,958.77z"/>
			<path class="st15" d="M251.81,953.99c-3.08,0-3.08,4.78,0,4.78C254.89,958.77,254.89,953.99,251.81,953.99z"/>
			<path class="st15" d="M259.46,883.23c-3.08,0-3.08,4.78,0,4.78C262.54,888.01,262.54,883.23,259.46,883.23z"/>
			<path class="st15" d="M272.85,876.53c-3.08,0-3.08,4.78,0,4.78C275.93,881.31,275.93,876.53,272.85,876.53z"/>
		</g>
		<path class="st15" d="M256.54,676.94c-3.25,0-3.25,5.04,0,5.04C259.8,681.98,259.8,676.94,256.54,676.94z"/>
		<path class="st15" d="M282.77,681.98c-3.25,0-3.25,5.05,0,5.05C286.03,687.03,286.03,681.98,282.77,681.98z"/>
	</g>
	<g>
		<g>
			<g>
				<path class="st14" d="M724.54,1207.33c-19.08-2.91-50.74-32.36-66.82-44.89c-28.14-21.23-53.27-52.09-71.87-84.36
					c-38.72-68.06-37.26-142.24-25.26-214.02c12.5-73.37,45.09-141.49,80.2-200.98c57.11,42.55,112.06,108.75,143.75,177.04
					c28.17,60.09,43.79,132.5,41.32,196.02C822.4,1108.43,778.25,1174.57,724.54,1207.33"/>
			</g>
			<g>
				<path class="st4" d="M784.54,840.14c-31.68-68.29-86.63-134.49-143.75-177.04c-0.57,0.95-1.12,1.94-1.69,2.9
					c11.19,43.47,77.99,540.2,85.44,541.34c53.71-32.77,97.85-98.9,101.32-171.18C828.32,972.64,812.71,900.22,784.54,840.14z"/>
			</g>
			<g>
				<g>
					<path class="st15" d="M640.09,667.37c11.47,35.62,13.39,72.91,18.33,109.72c4.5,33.55,9.54,67.03,14.57,100.51
						c6.47,43.01,13.08,85.99,19.71,128.97c6.21,40.22,12.46,80.44,18.64,120.67c3.87,25.18,7.86,50.35,11.35,75.59
						c0.21,1.5,0.41,3,0.6,4.51c0.2,1.57,2.7,1.59,2.5,0c-2.88-22.42-6.52-44.76-9.94-67.1c-5.99-39.1-12.06-78.19-18.1-117.29
						c-6.69-43.31-13.37-86.63-19.93-129.96c-5.38-35.57-10.74-71.15-15.66-106.79c-4.43-32.12-6.34-64.75-13.44-96.42
						c-1.74-7.78-3.77-15.48-6.21-23.07C642.01,665.18,639.6,665.83,640.09,667.37L640.09,667.37z"/>
				</g>
			</g>
			<g>
				<g>
					<path class="st15" d="M623.57,728.59c10.17,26.38,24.03,51.36,39.35,75.07c0.59,0.92,1.95,0.74,2.28-0.3
						c7.39-23.04,21.24-43.53,27.07-67.14c0.39-1.56-2.02-2.23-2.41-0.66c-5.83,23.6-19.68,44.09-27.07,67.14
						c0.76-0.1,1.52-0.2,2.28-0.3c-15.19-23.52-29.01-48.31-39.1-74.47C625.4,726.44,622.98,727.09,623.57,728.59L623.57,728.59z"/>
				</g>
			</g>
			<g>
				<g>
					<path class="st15" d="M603.14,789.07c13.31,18.88,25.73,38.39,38.5,57.63c11.16,16.81,21.88,34.6,35.09,49.93
						c0.58,0.68,1.51,0.33,1.96-0.25c19.7-25.67,39.45-51.64,53.17-81.12c0.67-1.45-1.48-2.72-2.16-1.26
						c-13.72,29.48-33.48,55.45-53.17,81.12c0.65-0.08,1.31-0.17,1.96-0.25c-13.35-15.49-24.17-33.53-35.44-50.53
						c-12.52-18.88-24.7-38.01-37.76-56.52C604.38,786.5,602.21,787.75,603.14,789.07L603.14,789.07z"/>
				</g>
			</g>
			<g>
				<g>
					<path class="st15" d="M600.73,913.64c13.61,20.29,32.46,36.1,48.85,54.01c15.48,16.92,27.83,37.79,46.59,51.41
						c0.57,0.41,1.37,0.07,1.71-0.45c23.47-35.34,52.02-67.46,71.23-105.52c0.72-1.43-1.43-2.7-2.16-1.26
						c-19.21,38.06-47.76,70.19-71.23,105.52c0.57-0.15,1.14-0.3,1.71-0.45c-18.53-13.46-30.79-34.28-46.08-51.02
						c-16.22-17.76-34.97-33.4-48.46-53.51C601.99,911.04,599.83,912.29,600.73,913.64L600.73,913.64z"/>
				</g>
			</g>
			<g>
				<g>
					<path class="st15" d="M614.55,1014.91c14.67,18.42,32.4,34.76,49.16,51.27c15.25,15.03,34.05,26.33,47.33,43.36
						c0.41,0.53,1.34,0.44,1.77,0c29.44-30.43,45.07-70.99,72.24-103.18c1.03-1.22-0.73-3-1.77-1.77
						c-27.16,32.18-42.81,72.76-72.24,103.18c0.59,0,1.18,0,1.77,0c-13.28-17.03-32.08-28.33-47.33-43.36
						c-16.75-16.51-34.49-32.84-49.16-51.27C615.32,1011.89,613.56,1013.67,614.55,1014.91L614.55,1014.91z"/>
				</g>
			</g>
			<path class="st15" d="M612.58,888.26c-3.24,1.39-0.72,7.25,2.52,5.86C618.34,892.72,615.82,886.87,612.58,888.26z"/>
			<path class="st15" d="M608.55,867.78l-1,0.43c-3.24,1.39-0.72,7.25,2.51,5.86l1-0.43C614.3,872.25,611.79,866.39,608.55,867.78z"
				/>
			<path class="st15" d="M622.62,878.39c-3.24,1.39-0.72,7.25,2.51,5.86C628.37,882.87,625.86,877,622.62,878.39z"/>
			<path class="st15" d="M691.37,811.41c-3.24,1.39-0.72,7.25,2.52,5.86C697.12,815.89,694.61,810.03,691.37,811.41z"/>
			<path class="st15" d="M694.36,790.7c-3.24,1.39-0.72,7.25,2.52,5.86C700.12,795.17,697.6,789.31,694.36,790.7z"/>
			<path class="st15" d="M705.42,805.38c-3.24,1.39-0.72,7.25,2.52,5.86C711.18,809.85,708.66,803.99,705.42,805.38z"/>
			<path class="st15" d="M719.06,911.96c-3.24,1.39-0.72,7.25,2.51,5.86C724.81,916.43,722.3,910.57,719.06,911.96z"/>
			<path class="st15" d="M725.33,897.47l0.5,1.17c1.62,3.78,6.64,1.63,5.02-2.15l-0.51-1.17
				C728.72,891.54,723.7,893.69,725.33,897.47z"/>
			<path class="st15" d="M645.82,1012.79c-3.24,1.39-0.72,7.25,2.51,5.86C651.57,1017.26,649.05,1011.4,645.82,1012.79z"/>
			<path class="st15" d="M659.38,1025.01c-3.24,1.39-0.72,7.25,2.52,5.86C665.14,1029.48,662.62,1023.62,659.38,1025.01z"/>
			<path class="st15" d="M648.14,1097.16l0.5,1.17c1.62,3.78,6.64,1.63,5.02-2.15l-0.5-1.17
				C651.53,1091.22,646.51,1093.38,648.14,1097.16z"/>
			<path class="st15" d="M662.96,1108.14c-3.24,1.39-0.72,7.25,2.52,5.86C668.71,1112.62,666.19,1106.76,662.96,1108.14z"/>
			<path class="st15" d="M768.9,1089.05c-3.24,1.39-0.72,7.26,2.51,5.86C774.65,1093.53,772.14,1087.66,768.9,1089.05z"/>
			<path class="st15" d="M776.43,1078.88c-3.24,1.39-0.72,7.25,2.51,5.86C782.18,1083.35,779.67,1077.5,776.43,1078.88z"/>
			<path class="st15" d="M747.24,988.7c-3.24,1.39-0.72,7.25,2.51,5.86C752.99,993.17,750.47,987.31,747.24,988.7z"/>
			<path class="st15" d="M757.77,974.46c-3.24,1.39-0.72,7.25,2.52,5.86C763.52,978.93,761.01,973.07,757.77,974.46z"/>
		</g>
		<path class="st15" d="M635.65,737.14c-3.42,1.47-0.76,7.65,2.65,6.18C641.72,741.85,639.07,735.68,635.65,737.14z"/>
		<path class="st15" d="M665.85,731.5c-3.42,1.47-0.76,7.65,2.65,6.19C671.92,736.22,669.26,730.04,665.85,731.5z"/>
	</g>
	<g>
		<g>
			<path class="st16" d="M158.36,1092.91c0-40.35,4.03-82.72,15.47-121.05c9.42-32.95,15.47-86.76,43.71-108.28
				c30.26-22.87,30.26,39.01,41.7,49.77c10.76-17.49,19.5-35.64,28.92-53.8c10.76-20.85,16.81-48.42,39.68-59.85
				c26.23-12.1,34.26,20.43,32.96,36.99c-2.02,25.56,3.36,19.5,12.78,13.45c8.74-6.05,39.68-31.6,48.42-37.66
				c14.12-9.42,50.44-34.97,44.39,2.69c-5.38,34.3-37.66,48.42-51.78,76c18.16-2.69,44.39-6.73,59.18,6.72
				c22.19,20.17-16.14,38.33-31.61,45.06c-18.83,8.74-38.33,13.45-57.17,19.5c-8.74,2.69-23.54,6.73-30.26,13.45
				c-8.74,10.09,3.36,12.78,13.45,16.14c14.8,5.38,51.79,8.74,52.46,29.59c0.67,21.52-39.01,22.87-53.8,23.54
				c-19.5,0.67-38.33-1.34-57.17,0c-6.73,0.67-23.54,1.34-20.85,11.43c2.02,7.4,20.85,10.76,27.57,12.11
				c14.8,4.03,45.06,16.81,18.83,30.94c-16.14,8.07-39.01,8.74-56.49,9.42c-33.63,1.34-65.24-2.02-97.52-10.09
				c-7.4-2.02-16.14-4.04-22.19-6.05"/>
		</g>
		<g>
			<path class="st16" d="M158.36,1092.91c0-40.35,4.03-82.72,15.47-121.05c9.42-32.95,15.47-86.76,43.71-108.28
				c30.26-22.87,30.26,39.01,41.7,49.77c10.76-17.49,19.5-35.64,28.92-53.8c10.76-20.85,16.81-48.42,39.68-59.85
				c26.23-12.1,34.26,20.43,32.96,36.99c-2.02,25.56,3.36,19.5,12.78,13.45c8.74-6.05,39.68-31.6,48.42-37.66
				c14.12-9.42,50.44-34.97,44.39,2.69c-5.38,34.3-37.66,48.42-51.78,76c18.16-2.69,44.39-6.73,59.18,6.72
				c22.19,20.17-16.14,38.33-31.61,45.06c-18.83,8.74-38.33,13.45-57.17,19.5c-8.74,2.69-23.54,6.73-30.26,13.45
				c-8.74,10.09,3.36,12.78,13.45,16.14c14.8,5.38,51.79,8.74,52.46,29.59c0.67,21.52-39.01,22.87-53.8,23.54
				c-19.5,0.67-38.33-1.34-57.17,0c-6.73,0.67-23.54,1.34-20.85,11.43c2.02,7.4,20.85,10.76,27.57,12.11
				c14.8,4.03,45.06,16.81,18.83,30.94c-16.14,8.07-39.01,8.74-56.49,9.42c-33.63,1.34-65.24-2.02-97.52-10.09
				c-7.4-2.02-16.14-4.04-22.19-6.05"/>
		</g>
		<g>
			<path class="st17" d="M473.78,897.88c-14.8-13.45-41.02-9.42-59.18-6.72c14.12-27.58,46.4-41.7,51.78-76
				c1.12-6.96,0.78-11.74-0.58-14.89c-0.46,0.63-1.02,1.25-1.7,1.85c-64.2,55.5-305.74,286.18-305.74,290.8h0.67
				c6.05,2.02,14.8,4.04,22.19,6.05c32.28,8.07,63.89,11.43,97.52,10.09c17.49-0.67,40.35-1.35,56.49-9.42
				c26.23-14.12-4.03-26.9-18.83-30.94c-6.73-1.35-25.56-4.71-27.57-12.11c-2.69-10.09,14.12-10.76,20.85-11.43
				c18.83-1.34,37.66,0.67,57.17,0c14.8-0.67,54.48-2.02,53.8-23.54c-0.67-20.85-37.66-24.21-52.46-29.59
				c-10.09-3.36-22.19-6.05-13.45-16.14c6.73-6.72,21.52-10.76,30.26-13.45c18.83-6.05,38.34-10.76,57.17-19.5
				C457.64,936.21,495.98,918.05,473.78,897.88z"/>
		</g>
		<g>
			<g>
				<path class="st18" d="M455.41,808.22c-16.33,13.38-32.15,27.35-47.35,42.02c-15.43,14.89-29.81,30.66-44.77,46
					c-13.66,13.99-28.78,26.77-42.92,40.29c-39.64,37.88-78.82,76.23-118.35,114.23c-14.45,13.89-28.71,28.14-43.86,41.28
					c-1.22,1.06,0.56,2.82,1.77,1.77c12.94-11.22,25.15-23.33,37.5-35.17c19.73-18.92,39.36-37.95,59.01-56.96
					c31.91-30.88,63.19-62.76,96.51-92.14c9.59-8.46,18.14-17.89,26.81-27.27c7.98-8.63,16.37-16.85,24.76-25.07
					c16.86-16.52,34.42-32.24,52.67-47.19C458.43,808.97,456.65,807.21,455.41,808.22L455.41,808.22z"/>
			</g>
		</g>
		<g>
			<g>
				<path class="st18" d="M350.3,869.67c-7.31,17.12-8.84,36.02-16.14,53.13c-0.35,0.81,0.03,1.92,1.08,1.88
					c19-0.72,38.02-1.92,56.83-4.75c1.59-0.24,0.91-2.65-0.66-2.41c-18.59,2.8-37.4,3.95-56.16,4.66c0.36,0.63,0.72,1.25,1.08,1.88
					c7.31-17.12,8.84-36.02,16.14-53.13C353.09,869.47,350.93,868.2,350.3,869.67L350.3,869.67z"/>
			</g>
		</g>
		<g>
			<g>
				<path class="st18" d="M309.82,865.26c-10.33,31.37-14.66,64.29-19.5,96.85c-0.13,0.88,0.33,1.47,1.21,1.58
					c26,3.39,52.22-1.87,78.01-4.71c1.58-0.17,1.6-2.68,0-2.5c-25.8,2.84-52.02,8.1-78.01,4.71c0.4,0.53,0.8,1.05,1.21,1.58
					c4.84-32.55,9.18-65.47,19.5-96.85C312.74,864.4,310.33,863.74,309.82,865.26L309.82,865.26z"/>
			</g>
		</g>
		<g>
			<g>
				<path class="st18" d="M254.63,930.83c1.19,28.13-8.17,55.77-16.1,82.39c-0.19,0.62,0.22,1.39,0.87,1.54
					c12.92,2.87,25.82-0.84,38.72-2.03c13.84-1.28,27.76-1.28,41.64-1.28c1.61,0,1.61-2.5,0-2.5c-13.24,0-26.5,0-39.71,1.11
					c-13.23,1.11-26.78,5.22-39.99,2.29c0.29,0.51,0.58,1.03,0.87,1.54c7.99-26.83,17.39-54.7,16.19-83.05
					C257.07,929.23,254.56,929.22,254.63,930.83L254.63,930.83z"/>
			</g>
		</g>
		<g>
			<g>
				<path class="st18" d="M218.99,952.35c-2.06,18.98-6.86,37.47-10.81,56.11c-3.28,15.46-4.01,31.68-9.99,46.46
					c-0.33,0.81,0.49,1.53,1.21,1.58c27.15,2.12,54.06,7.26,81.38,6.73c1.61-0.03,1.61-2.53,0-2.5
					c-27.32,0.53-54.23-4.61-81.38-6.73c0.4,0.53,0.8,1.05,1.21,1.58c6.2-15.32,6.94-32.27,10.38-48.3
					c3.92-18.24,8.49-36.36,10.51-54.94C221.66,950.75,219.16,950.77,218.99,952.35L218.99,952.35z"/>
			</g>
		</g>
		<g>
			<g>
				<path class="st18" d="M412.58,919.3c1.61,0,1.61-2.5,0-2.5C410.97,916.8,410.97,919.3,412.58,919.3L412.58,919.3z"/>
			</g>
		</g>
		<g>
			<g>
				<path class="st18" d="M424.02,909.89c0.22,0,0.45,0,0.67,0c1.61,0,1.61-2.5,0-2.5c-0.22,0-0.45,0-0.67,0
					C422.41,907.39,422.41,909.89,424.02,909.89L424.02,909.89z"/>
			</g>
		</g>
		<g>
			<g>
				<path class="st18" d="M424.69,924.01c1.61,0,1.61-2.5,0-2.5C423.08,921.51,423.08,924.01,424.69,924.01L424.69,924.01z"/>
			</g>
		</g>
		<g>
			<g>
				<path class="st18" d="M328.52,840.61c0.22,0,0.45,0,0.67,0c1.61,0,1.61-2.5,0-2.5c-0.22,0-0.45,0-0.67,0
					C326.91,838.11,326.91,840.61,328.52,840.61L328.52,840.61z"/>
			</g>
		</g>
		<g>
			<g>
				<path class="st18" d="M333.22,854.74c1.61,0,1.61-2.5,0-2.5C331.62,852.24,331.61,854.74,333.22,854.74L333.22,854.74z"/>
			</g>
		</g>
		<g>
			<g>
				<path class="st18" d="M341.29,843.98c1.61,0,1.61-2.5,0-2.5C339.69,841.48,339.68,843.98,341.29,843.98L341.29,843.98z"/>
			</g>
		</g>
		<g>
			<g>
				<path class="st18" d="M210.82,922.66c0.22,0,0.45,0,0.67,0c1.61,0,1.61-2.5,0-2.5c-0.22,0-0.45,0-0.67,0
					C209.21,920.16,209.21,922.66,210.82,922.66L210.82,922.66z"/>
			</g>
		</g>
		<g>
			<g>
				<path class="st18" d="M223.7,921.41c0,0.22,0,0.45,0,0.67c0,1.61,2.5,1.61,2.5,0c0-0.22,0-0.45,0-0.67
					C226.2,919.81,223.7,919.8,223.7,921.41L223.7,921.41z"/>
			</g>
		</g>
		<g>
			<g>
				<path class="st18" d="M219.57,910.56c1.61,0,1.61-2.5,0-2.5C217.96,908.06,217.96,910.56,219.57,910.56L219.57,910.56z"/>
			</g>
		</g>
		<g>
			<g>
				<path class="st18" d="M343.31,1020.18c1.61,0,1.61-2.5,0-2.5C341.7,1017.68,341.7,1020.18,343.31,1020.18L343.31,1020.18z"/>
			</g>
		</g>
		<g>
			<g>
				<path class="st18" d="M354.07,1007.41c1.61,0,1.61-2.5,0-2.5C352.46,1004.91,352.46,1007.41,354.07,1007.41L354.07,1007.41z"/>
			</g>
		</g>
		<g>
			<g>
				<path class="st18" d="M358.11,1020.18c1.61,0,1.61-2.5,0-2.5C356.5,1017.68,356.5,1020.18,358.11,1020.18L358.11,1020.18z"/>
			</g>
		</g>
		<g>
			<g>
				<path class="st18" d="M267.32,1082.06c1.61,0,1.61-2.5,0-2.5C265.71,1079.56,265.7,1082.06,267.32,1082.06L267.32,1082.06z"/>
			</g>
		</g>
		<g>
			<g>
				<path class="st18" d="M279.42,1078.02c1.61,0,1.61-2.5,0-2.5C277.81,1075.52,277.81,1078.02,279.42,1078.02L279.42,1078.02z"/>
			</g>
		</g>
		<g>
			<g>
				<path class="st18" d="M278.75,1087.44c1.61,0,1.61-2.5,0-2.5C277.14,1084.94,277.14,1087.44,278.75,1087.44L278.75,1087.44z"/>
			</g>
		</g>
	</g>
	<g>
		<g>
			<path class="st8" d="M99.41,1216.19c-16.14-19.17-32.28-36.32-41.36-59.52c-11.1-30.26-12.11-61.54-8.07-92.81
				c7.06-59.52,37.32-102.9,72.63-148.3c11.1-15.13,23.2-29.25,38.34-40.35c48.42,87.77,60.53,180.58,16.14,270.36
				C171.03,1158.69,123.87,1211.14,99.41,1216.19"/>
		</g>
		<g>
			<path class="st9" d="M120.14,1049.65c6.18-29.68,13.74-58.71,22.33-87.77c8.07-27.3,16.18-55.13,15.89-83.84
				c0-0.29,0.02-0.57,0.03-0.85c-13.94,10.78-25.33,24.11-35.79,38.37c-35.31,45.4-65.57,88.78-72.63,148.3
				c-4.04,31.27-3.03,62.55,8.07,92.81c8.51,21.75,23.23,38.19,38.34,55.95C101.26,1157.92,108.95,1103.4,120.14,1049.65z"/>
		</g>
		<g>
			<g>
				<path class="st10" d="M101.1,1215.99c-0.43-22.26,4.24-44.08,6.92-66.08c2.81-23.11,5.02-46.13,9.01-69.1
					c3.87-22.25,7.82-44.6,12.56-66.68c4.22-19.67,11.28-38.57,17.56-57.65c6.98-21.19,12.98-42.86,13.14-65.32
					c0.01-1.61-2.49-1.61-2.5,0c-0.29,41.61-20.61,79.11-29.85,118.92c-5.06,21.82-8.73,44.14-12.63,66.2
					c-3.83,21.63-6.87,43.31-8.87,65.18c-2.28,24.9-8.31,49.41-7.83,74.53C98.64,1217.59,101.14,1217.6,101.1,1215.99L101.1,1215.99
					z"/>
			</g>
		</g>
		<g>
			<g>
				<path class="st10" d="M134.97,929.15c2.73,9.56,5.6,19.03,10.21,27.87c0.32,0.62,1.13,0.74,1.71,0.45
					c10.43-5.34,20.48-12.45,28.5-21.04c1.1-1.18-0.67-2.95-1.77-1.77c-7.89,8.46-17.72,15.39-27.99,20.65
					c0.57,0.15,1.14,0.3,1.71,0.45c-4.52-8.66-7.29-17.92-9.96-27.27C136.93,926.94,134.52,927.6,134.97,929.15L134.97,929.15z"/>
			</g>
		</g>
		<g>
			<g>
				<path class="st10" d="M108.06,954.7c5.59,17.71,14.57,33.97,23.66,50.07c0.35,0.62,1.11,0.73,1.71,0.45
					c18.41-8.68,34.3-21.67,51.11-32.96c1.33-0.89,0.08-3.06-1.26-2.16c-16.82,11.28-32.7,24.27-51.11,32.96
					c0.57,0.15,1.14,0.3,1.71,0.45c-8.99-15.91-17.89-31.97-23.41-49.47C109.99,952.51,107.58,953.16,108.06,954.7L108.06,954.7z"/>
			</g>
		</g>
		<g>
			<g>
				<path class="st10" d="M89.23,1001.78c5.68,25.49,17.36,49.06,24.88,73.98c0.18,0.61,0.89,1.11,1.54,0.87
					c26.52-9.71,46.86-32.16,68.48-49.42c1.26-1-0.52-2.76-1.77-1.77c-21.27,16.97-41.29,39.23-67.37,48.77
					c0.51,0.29,1.03,0.58,1.54,0.87c-7.52-24.92-19.21-48.49-24.88-73.98C91.29,999.55,88.88,1000.21,89.23,1001.78L89.23,1001.78z"
					/>
			</g>
		</g>
		<g>
			<g>
				<path class="st10" d="M66.37,1058.27c10.17,25.95,23.32,51.28,40.67,73.19c0.31,0.39,1.11,0.49,1.51,0.2
					c25.19-18.25,49.03-38.25,73.56-57.36c1.27-0.99-0.51-2.75-1.77-1.77c-11.8,9.19-23.44,18.58-35.15,27.89
					c-5.73,4.56-11.48,9.1-17.27,13.59c-3.39,2.62-6.79,5.23-10.22,7.81c-1.49,1.12-2.98,2.23-4.47,3.34
					c-0.75,0.56-3.54,3.16-4.46,3.27c-1.98,0.25-5.37-5.85-6.6-7.58c-1.79-2.53-3.52-5.11-5.2-7.71
					c-3.63-5.61-7.03-11.36-10.25-17.21c-6.8-12.36-12.8-25.17-17.95-38.3C68.2,1056.13,65.78,1056.77,66.37,1058.27L66.37,1058.27z
					"/>
			</g>
		</g>
		<g>
			<g>
				<path class="st10" d="M146.93,1027.58c1.61,0,1.61-2.5,0-2.5C145.32,1025.08,145.32,1027.58,146.93,1027.58L146.93,1027.58z"/>
			</g>
		</g>
		<g>
			<g>
				<path class="st10" d="M155.67,1011.44c1.61,0,1.61-2.5,0-2.5C154.07,1008.94,154.06,1011.44,155.67,1011.44L155.67,1011.44z"/>
			</g>
		</g>
		<g>
			<g>
				<path class="st10" d="M162.4,1024.22c1.61,0,1.61-2.5,0-2.5C160.79,1021.72,160.79,1024.22,162.4,1024.22L162.4,1024.22z"/>
			</g>
		</g>
		<g>
			<g>
				<path class="st10" d="M108.6,1008.08c1.61,0,1.61-2.5,0-2.5C106.99,1005.58,106.99,1008.08,108.6,1008.08L108.6,1008.08z"/>
			</g>
		</g>
		<g>
			<g>
				<path class="st10" d="M105.33,991.36c0,0.22,0,0.45,0,0.67c0,1.61,2.5,1.61,2.5,0c0-0.22,0-0.45,0-0.67
					C107.83,989.75,105.33,989.75,105.33,991.36L105.33,991.36z"/>
			</g>
		</g>
		<g>
			<g>
				<path class="st10" d="M114.65,999.34c1.61,0,1.61-2.5,0-2.5C113.04,996.84,113.04,999.34,114.65,999.34L114.65,999.34z"/>
			</g>
		</g>
		<g>
			<g>
				<path class="st10" d="M156.35,969.74c1.61,0,1.61-2.5,0-2.5C154.74,967.24,154.74,969.74,156.35,969.74L156.35,969.74z"/>
			</g>
		</g>
		<g>
			<g>
				<path class="st10" d="M165.76,965.04c1.61,0,1.61-2.5,0-2.5C164.15,962.54,164.15,965.04,165.76,965.04L165.76,965.04z"/>
			</g>
		</g>
		<g>
			<g>
				<path class="st10" d="M143.57,917.29c1.61,0,1.61-2.5,0-2.5C141.96,914.79,141.96,917.29,143.57,917.29L143.57,917.29z"/>
			</g>
		</g>
		<g>
			<g>
				<path class="st10" d="M144.24,906.53c1.61,0,1.61-2.5,0-2.5C142.63,904.03,142.63,906.53,144.24,906.53L144.24,906.53z"/>
			</g>
		</g>
		<g>
			<g>
				<path class="st10" d="M171.14,921.32c1.61,0,1.61-2.5,0-2.5C169.53,918.82,169.53,921.32,171.14,921.32L171.14,921.32z"/>
			</g>
		</g>
		<g>
			<g>
				<path class="st10" d="M90.44,1066.59c1.61,0,1.61-2.5,0-2.5C88.83,1064.09,88.83,1066.59,90.44,1066.59L90.44,1066.59z"/>
			</g>
		</g>
		<g>
			<g>
				<path class="st10" d="M95.15,1076.01c1.61,0,1.61-2.5,0-2.5C93.54,1073.51,93.53,1076.01,95.15,1076.01L95.15,1076.01z"/>
			</g>
		</g>
		<g>
			<g>
				<path class="st10" d="M148.95,1076.01c1.61,0,1.61-2.5,0-2.5C147.34,1073.51,147.34,1076.01,148.95,1076.01L148.95,1076.01z"/>
			</g>
		</g>
		<g>
			<g>
				<path class="st10" d="M157.02,1070.62c1.61,0,1.61-2.5,0-2.5C155.41,1068.12,155.41,1070.62,157.02,1070.62L157.02,1070.62z"/>
			</g>
		</g>
		<g>
			<g>
				<path class="st10" d="M152.98,1117.03c1.61,0,1.61-2.5,0-2.5C151.38,1114.53,151.37,1117.03,152.98,1117.03L152.98,1117.03z"/>
			</g>
		</g>
		<g>
			<g>
				<path class="st10" d="M148.28,1131.82c1.61,0,1.61-2.5,0-2.5C146.67,1129.32,146.67,1131.82,148.28,1131.82L148.28,1131.82z"/>
			</g>
		</g>
		<g>
			<g>
				<path class="st10" d="M75.64,1128.46c0.22,0,0.45,0,0.67,0c1.61,0,1.61-2.5,0-2.5c-0.22,0-0.45,0-0.67,0
					C74.03,1125.96,74.03,1128.46,75.64,1128.46L75.64,1128.46z"/>
			</g>
		</g>
		<g>
			<g>
				<path class="st10" d="M81.69,1141.91c1.61,0,1.61-2.5,0-2.5C80.09,1139.41,80.08,1141.91,81.69,1141.91L81.69,1141.91z"/>
			</g>
		</g>
	</g>
	<g>
		<g>
			<path class="st8" d="M40.77,449.85c-16.14-19.17-32.28-36.32-41.36-59.52c-11.1-30.26-12.11-61.54-8.07-92.81
				c7.06-59.52,37.32-102.9,72.63-148.29c11.1-15.13,23.2-29.26,38.33-40.35c48.42,87.77,60.53,180.57,16.14,270.36
				C112.39,392.35,65.23,444.81,40.77,449.85"/>
		</g>
		<g>
			<path class="st9" d="M61.5,283.31c6.18-29.68,13.74-58.71,22.33-87.77c8.08-27.3,16.18-55.13,15.89-83.84
				c0-0.29,0.02-0.57,0.03-0.85c-13.94,10.78-25.33,24.11-35.79,38.38C28.66,194.63-1.6,238.01-8.66,297.52
				c-4.04,31.27-3.03,62.55,8.07,92.81c8.51,21.76,23.23,38.19,38.34,55.95C42.62,391.58,50.32,337.06,61.5,283.31z"/>
		</g>
		<g>
			<g>
				<path class="st10" d="M42.46,449.65c-0.43-22.26,4.24-44.09,6.92-66.08c2.81-23.11,5.02-46.13,9.01-69.1
					c3.87-22.25,7.82-44.6,12.56-66.68c4.22-19.67,11.28-38.58,17.56-57.65c6.98-21.19,12.98-42.86,13.14-65.32
					c0.01-1.61-2.49-1.61-2.5,0c-0.29,41.62-20.61,79.11-29.85,118.92c-5.06,21.82-8.73,44.14-12.63,66.2
					c-3.83,21.63-6.87,43.31-8.87,65.18c-2.28,24.9-8.31,49.41-7.83,74.54C40,451.26,42.5,451.26,42.46,449.65L42.46,449.65z"/>
			</g>
		</g>
		<g>
			<g>
				<path class="st10" d="M76.33,162.81c2.73,9.56,5.6,19.03,10.21,27.87c0.32,0.62,1.13,0.74,1.71,0.45
					c10.43-5.34,20.48-12.45,28.5-21.04c1.1-1.18-0.67-2.95-1.77-1.77c-7.89,8.46-17.72,15.39-27.99,20.65
					c0.57,0.15,1.14,0.3,1.71,0.45c-4.52-8.66-7.29-17.92-9.96-27.28C78.29,160.6,75.88,161.26,76.33,162.81L76.33,162.81z"/>
			</g>
		</g>
		<g>
			<g>
				<path class="st10" d="M49.43,188.37c5.59,17.71,14.57,33.97,23.66,50.06c0.35,0.62,1.11,0.73,1.71,0.45
					c18.41-8.68,34.3-21.67,51.11-32.95c1.33-0.89,0.08-3.06-1.26-2.16c-16.82,11.29-32.7,24.27-51.11,32.95
					c0.57,0.15,1.14,0.3,1.71,0.45c-8.99-15.91-17.89-31.97-23.41-49.47C51.35,186.17,48.94,186.83,49.43,188.37L49.43,188.37z"/>
			</g>
		</g>
		<g>
			<g>
				<path class="st10" d="M30.59,235.44c5.68,25.49,17.36,49.06,24.88,73.98c0.18,0.61,0.89,1.11,1.54,0.87
					c26.52-9.71,46.85-32.16,68.48-49.42c1.26-1-0.52-2.76-1.77-1.77c-21.27,16.97-41.29,39.23-67.37,48.77
					c0.51,0.29,1.03,0.58,1.54,0.87c-7.52-24.92-19.21-48.49-24.88-73.98C32.65,233.21,30.24,233.87,30.59,235.44L30.59,235.44z"/>
			</g>
		</g>
		<g>
			<g>
				<path class="st10" d="M7.73,291.93c10.18,25.95,23.33,51.29,40.68,73.19c0.31,0.39,1.11,0.49,1.51,0.2
					c25.19-18.25,49.03-38.25,73.56-57.36c1.27-0.99-0.51-2.75-1.77-1.77c-11.8,9.19-23.44,18.58-35.15,27.89
					c-5.73,4.56-11.48,9.1-17.27,13.59c-3.39,2.62-6.79,5.23-10.22,7.81c-1.49,1.12-2.98,2.23-4.47,3.34
					c-0.75,0.56-3.54,3.16-4.46,3.27c-1.98,0.25-5.37-5.85-6.6-7.58c-1.79-2.53-3.52-5.11-5.2-7.71
					c-3.63-5.61-7.03-11.36-10.25-17.22c-6.8-12.36-12.8-25.17-17.95-38.3C9.56,289.79,7.14,290.43,7.73,291.93L7.73,291.93z"/>
			</g>
		</g>
		<g>
			<g>
				<path class="st10" d="M88.29,261.24c1.61,0,1.61-2.5,0-2.5C86.68,258.74,86.68,261.24,88.29,261.24L88.29,261.24z"/>
			</g>
		</g>
		<g>
			<g>
				<path class="st10" d="M97.03,245.1c1.61,0,1.61-2.5,0-2.5C95.43,242.6,95.42,245.1,97.03,245.1L97.03,245.1z"/>
			</g>
		</g>
		<g>
			<g>
				<path class="st10" d="M103.76,257.88c1.61,0,1.61-2.5,0-2.5C102.15,255.38,102.15,257.88,103.76,257.88L103.76,257.88z"/>
			</g>
		</g>
		<g>
			<g>
				<path class="st10" d="M49.96,241.74c1.61,0,1.61-2.5,0-2.5C48.35,239.24,48.35,241.74,49.96,241.74L49.96,241.74z"/>
			</g>
		</g>
		<g>
			<g>
				<path class="st10" d="M46.69,225.02c0,0.22,0,0.45,0,0.67c0,1.61,2.5,1.61,2.5,0c0-0.22,0-0.45,0-0.67
					C49.19,223.41,46.69,223.41,46.69,225.02L46.69,225.02z"/>
			</g>
		</g>
		<g>
			<g>
				<path class="st10" d="M56.01,233c1.61,0,1.61-2.5,0-2.5C54.4,230.5,54.4,233,56.01,233L56.01,233z"/>
			</g>
		</g>
		<g>
			<g>
				<path class="st10" d="M97.71,203.41c1.61,0,1.61-2.5,0-2.5C96.1,200.91,96.1,203.41,97.71,203.41L97.71,203.41z"/>
			</g>
		</g>
		<g>
			<g>
				<path class="st10" d="M107.12,198.7c1.61,0,1.61-2.5,0-2.5C105.51,196.2,105.51,198.7,107.12,198.7L107.12,198.7z"/>
			</g>
		</g>
		<g>
			<g>
				<path class="st10" d="M84.93,150.95c1.61,0,1.61-2.5,0-2.5C83.32,148.45,83.32,150.95,84.93,150.95L84.93,150.95z"/>
			</g>
		</g>
		<g>
			<g>
				<path class="st10" d="M85.6,140.19c1.61,0,1.61-2.5,0-2.5C83.99,137.69,83.99,140.19,85.6,140.19L85.6,140.19z"/>
			</g>
		</g>
		<g>
			<g>
				<path class="st10" d="M112.5,154.98c1.61,0,1.61-2.5,0-2.5C110.89,152.48,110.89,154.98,112.5,154.98L112.5,154.98z"/>
			</g>
		</g>
		<g>
			<g>
				<path class="st10" d="M31.8,300.25c1.61,0,1.61-2.5,0-2.5C30.19,297.75,30.19,300.25,31.8,300.25L31.8,300.25z"/>
			</g>
		</g>
		<g>
			<g>
				<path class="st10" d="M36.51,309.67c1.61,0,1.61-2.5,0-2.5C34.9,307.17,34.89,309.67,36.51,309.67L36.51,309.67z"/>
			</g>
		</g>
		<g>
			<g>
				<path class="st10" d="M90.31,309.67c1.61,0,1.61-2.5,0-2.5C88.7,307.17,88.7,309.67,90.31,309.67L90.31,309.67z"/>
			</g>
		</g>
		<g>
			<g>
				<path class="st10" d="M98.38,304.29c1.61,0,1.61-2.5,0-2.5C96.77,301.79,96.77,304.29,98.38,304.29L98.38,304.29z"/>
			</g>
		</g>
		<g>
			<g>
				<path class="st10" d="M94.35,350.69c1.61,0,1.61-2.5,0-2.5C92.74,348.19,92.73,350.69,94.35,350.69L94.35,350.69z"/>
			</g>
		</g>
		<g>
			<g>
				<path class="st10" d="M89.64,365.49c1.61,0,1.61-2.5,0-2.5C88.03,362.99,88.03,365.49,89.64,365.49L89.64,365.49z"/>
			</g>
		</g>
		<g>
			<g>
				<path class="st10" d="M17,362.13c0.22,0,0.45,0,0.67,0c1.61,0,1.61-2.5,0-2.5c-0.22,0-0.45,0-0.67,0
					C15.39,359.63,15.39,362.13,17,362.13L17,362.13z"/>
			</g>
		</g>
		<g>
			<g>
				<path class="st10" d="M23.06,375.58c1.61,0,1.61-2.5,0-2.5C21.45,373.08,21.44,375.58,23.06,375.58L23.06,375.58z"/>
			</g>
		</g>
	</g>
	<g>
		<g>
			<path class="st16" d="M719.26,1107.04c-10.09-14.12-13.11-44.39-9.08-60.53c9.08-37.33,52.46-28.24,79.7-20.17
				c-7.06-26.23-11.1-44.39,2.02-70.62c12.11-24.21,32.28-42.37,60.53-43.38c22.19-1.01,54.48,4.03,71.63,20.18
				c16.14,14.12,19.17,38.34,31.27,55.48c22.19-27.24,63.55-45.4,96.84-32.28c16.14,7.06,32.28,18.16,39.34,34.3
				c6.05,14.12,4.03,32.28,10.09,45.4c21.18-22.2,59.52-19.17,79.7,1.01c18.16,18.16,21.19,52.46,20.17,76.67
				c-62.55,10.09-133.16,0-196.72,2.02c-54.47,2.02-108.94,5.04-162.41,5.04c-37.33,0-82.72,4.04-119.04-4.03"/>
		</g>
		<g>
			<g>
				<g>
					<path class="st19" d="M948.09,1116.42c-7.8-1.72-14.64-7.61-21.55-11.42c-7.52-4.14-14.63-9.04-21-14.82
						c-11.58-10.49-20.01-24.08-25.19-38.76c-5.38-15.25-6.73-31.69-7.97-47.72c-1.31-16.97-1.66-34.01-1.05-51.02
						c-0.53,0.4-1.05,0.8-1.58,1.21c7.71,2.06,12.98,8.62,19.37,12.99c7.65,5.23,15.83,9.39,22.7,15.73
						c12.84,11.85,24.59,25.32,33.96,40.08c9.01,14.19,12.47,31.3,12.14,47.95c-0.16,8.43-1.31,16.84-3.46,25
						c-1.58,5.96-2.28,14.86-7.08,19.08c-1.21,1.07,0.56,2.83,1.77,1.77c3.58-3.15,4.63-8.14,5.71-12.58
						c1.56-6.42,3.42-12.69,4.38-19.24c1.92-13.04,1.61-26.48-1.43-39.32c-3.34-14.14-10.59-26.06-19.41-37.45
						c-8.45-10.91-18.13-22.1-29.02-30.64c-7.04-5.51-15.22-9.37-22.2-14.92c-5.23-4.16-10.13-9.08-16.77-10.86
						c-0.81-0.22-1.55,0.39-1.58,1.21c-0.66,18.24-0.21,36.51,1.34,54.7c1.43,16.72,3.16,33.63,9.51,49.31
						c5.85,14.46,14.78,27.44,26.7,37.54c6.28,5.32,13.18,9.89,20.44,13.76c6.82,3.63,12.92,9.14,20.6,10.83
						C948.99,1119.18,949.66,1116.77,948.09,1116.42L948.09,1116.42z"/>
				</g>
			</g>
			<g>
				<g>
					<path class="st19" d="M871.71,956.6c9.44,8.99,12.66,22.06,17.65,33.68c5.89,13.72,13.94,26.6,20.42,40.07
						c7.07,14.7,13.02,29.72,18.45,45.08c4.99,14.12,10.67,28,15.8,42.03c0.55,1.5,2.96,0.85,2.41-0.66
						c-5.34-14.63-11.22-29.12-16.44-43.84c-5.31-14.96-11.18-29.56-18.07-43.88c-6.74-14-15.23-27.4-21.13-41.77
						c-4.67-11.36-8.17-23.76-17.33-32.48C872.32,953.72,870.54,955.49,871.71,956.6L871.71,956.6z"/>
				</g>
			</g>
			<g>
				<g>
					<path class="st19" d="M869.19,989.39c7.5,8.8,19.46,12.35,29,18.35c0.65,0.41,1.68,0.04,1.84-0.75
						c1.81-9.27,7.25-17.48,7.61-27.07c0.06-1.61-2.44-1.61-2.5,0c-0.35,9.32-5.76,17.37-7.52,26.4c0.61-0.25,1.22-0.5,1.84-0.75
						c-9.34-5.88-21.16-9.36-28.5-17.96C869.91,986.39,868.15,988.17,869.19,989.39L869.19,989.39z"/>
				</g>
			</g>
			<g>
				<g>
					<path class="st19" d="M872.98,1024.89c14,7.37,29.17,12.22,42.87,20.18c0.56,0.33,1.4,0.15,1.71-0.45
						c6.08-11.76,11.27-23.99,18.16-35.31c0.84-1.38-1.32-2.64-2.16-1.26c-6.89,11.32-12.08,23.55-18.16,35.31
						c0.57-0.15,1.14-0.3,1.71-0.45c-13.7-7.95-28.88-12.81-42.87-20.18C872.82,1021.98,871.55,1024.14,872.98,1024.89
						L872.98,1024.89z"/>
				</g>
			</g>
			<g>
				<g>
					<path class="st19" d="M887.9,1071.42c15.57,2.81,31.39,6.31,45.6,13.49c0.64,0.33,1.3,0.13,1.71-0.45
						c7.41-10.46,14.05-21.45,22-31.52c0.99-1.25-0.77-3.03-1.77-1.77c-8.08,10.24-14.85,21.4-22.39,32.03
						c0.57-0.15,1.14-0.3,1.71-0.45c-14.41-7.29-30.4-10.9-46.2-13.75C886.99,1068.72,886.32,1071.13,887.9,1071.42L887.9,1071.42z"
						/>
				</g>
			</g>
			<g>
				<g>
					<path class="st19" d="M1000.28,1111.95c-11.17-25.03-9.4-54.33,3.35-78.39c11.5-21.7,30.06-38.48,44.57-58.05
						c-0.76-0.1-1.52-0.2-2.28-0.3c7.48,28.01,12.91,55.86,0.7,83.41c-9.72,21.93-24.71,40.45-45.01,53.38
						c-1.35,0.86-0.1,3.03,1.26,2.16c21.14-13.46,36.62-32.8,46.54-55.71c11.97-27.66,6.41-55.86-1.08-83.9
						c-0.3-1.13-1.68-1.12-2.28-0.3c-15.7,21.18-36.28,39.23-47.29,63.6c-10.74,23.75-11.29,51.47-0.62,75.37
						C998.77,1114.68,1000.93,1113.41,1000.28,1111.95L1000.28,1111.95z"/>
				</g>
			</g>
			<g>
				<g>
					<path class="st19" d="M1045.41,979.6c-3.52,10.45-5.59,21.28-8.44,31.92c-3.04,11.32-7.51,22.12-12.02,32.92
						c-8.98,21.51-14.83,44.21-24.3,65.5c-0.65,1.46,1.51,2.73,2.16,1.26c9.3-20.91,15.01-43.2,23.81-64.32
						c4.51-10.81,9.13-21.59,12.27-32.9c3.11-11.21,5.21-22.67,8.93-33.71C1048.33,978.73,1045.92,978.08,1045.41,979.6
						L1045.41,979.6z"/>
				</g>
			</g>
			<g>
				<g>
					<path class="st19" d="M1024.22,1003.46c1.72,8.73,5.74,16.89,6.01,25.9c0.02,0.75,0.79,1.5,1.58,1.21
						c7.88-2.92,15.32-6.87,22.49-11.22c1.37-0.83,0.12-3-1.26-2.16c-6.98,4.24-14.22,8.13-21.89,10.97c0.53,0.4,1.05,0.8,1.58,1.21
						c-0.28-9.24-4.33-17.6-6.1-26.56C1026.32,1001.22,1023.91,1001.89,1024.22,1003.46L1024.22,1003.46z"/>
				</g>
			</g>
			<g>
				<g>
					<path class="st19" d="M1000.01,1038.26c3.12,14.08,8.39,27.65,10.04,42.04c0.08,0.73,0.74,1.52,1.58,1.21
						c12.16-4.56,23.55-11.26,34.09-18.79c1.3-0.93,0.05-3.1-1.26-2.16c-10.35,7.39-21.56,14.06-33.5,18.54
						c0.53,0.4,1.05,0.8,1.58,1.21c-1.68-14.63-6.96-28.39-10.13-42.7C1002.07,1036.03,999.66,1036.69,1000.01,1038.26
						L1000.01,1038.26z"/>
				</g>
			</g>
		</g>
		<path class="st16" d="M268.66,1221.03c-6.51,0-6.51,10.09,0,10.09C275.17,1231.11,275.17,1221.03,268.66,1221.03z"/>
		<path class="st20" d="M747.51,1063.66c-6.5,0-6.5,10.09,0,10.09C754.01,1073.74,754.01,1063.66,747.51,1063.66z"/>
		<path class="st20" d="M760.96,1039.44c-6.5,0-6.5,10.09,0,10.09C767.47,1049.53,767.47,1039.44,760.96,1039.44z"/>
		<path class="st20" d="M801.31,1074.42c-6.51,0-6.51,10.09,0,10.09C807.82,1084.5,807.82,1074.42,801.31,1074.42z"/>
		<path class="st20" d="M845.7,1070.38c-6.51,0-6.51,10.09,0,10.09C852.21,1080.47,852.21,1070.38,845.7,1070.38z"/>
		<path class="st20" d="M817.45,1031.37c-6.51,0-6.51,10.09,0,10.09C823.96,1041.46,823.96,1031.37,817.45,1031.37z"/>
		<path class="st20" d="M852.43,1005.82c-6.51,0-6.51,10.09,0,10.09C858.93,1015.91,858.93,1005.82,852.43,1005.82z"/>
		<path class="st20" d="M816.11,980.26c-6.51,0-6.51,10.09,0,10.09C822.61,990.35,822.61,980.26,816.11,980.26z"/>
		<path class="st20" d="M847.05,942.6c-6.51,0-6.51,10.09,0,10.09C853.55,952.68,853.55,942.6,847.05,942.6z"/>
		<path class="st20" d="M871.26,925.11c-6.51,0-6.51,10.09,0,10.09C877.76,935.2,877.76,925.11,871.26,925.11z"/>
		<path class="st20" d="M910.26,937.22c-6.51,0-6.51,10.09,0,10.09C916.77,947.3,916.77,937.22,910.26,937.22z"/>
		<path class="st20" d="M958.68,997.75c-6.5,0-6.5,10.09,0,10.09C965.19,1007.84,965.19,997.75,958.68,997.75z"/>
		<path class="st20" d="M1016.52,973.53c-6.5,0-6.5,10.09,0,10.09C1023.03,983.62,1023.03,973.53,1016.52,973.53z"/>
		<path class="st20" d="M985.58,1017.92c-6.51,0-6.51,10.09,0,10.09S992.09,1017.92,985.58,1017.92z"/>
		<path class="st20" d="M972.13,1070.38c-6.5,0-6.5,10.09,0,10.09C978.64,1080.47,978.64,1070.38,972.13,1070.38z"/>
		<path class="st20" d="M1060.9,1081.14c-6.51,0-6.51,10.09,0,10.09C1067.41,1091.23,1067.41,1081.14,1060.9,1081.14z"/>
		<path class="st20" d="M1081.08,1042.13c-6.51,0-6.51,10.09,0,10.09C1087.59,1052.22,1087.59,1042.13,1081.08,1042.13z"/>
		<path class="st20" d="M1077.05,995.05c-6.5,0-6.5,10.09,0,10.09C1083.55,1005.15,1083.55,995.05,1077.05,995.05z"/>
		<path class="st20" d="M1101.26,1071.72c-6.51,0-6.51,10.09,0,10.09C1107.76,1081.81,1107.76,1071.72,1101.26,1071.72z"/>
		<path class="st20" d="M1142.96,1036.75c-6.51,0-6.51,10.09,0,10.09C1149.46,1046.84,1149.46,1036.75,1142.96,1036.75z"/>
		<path class="st20" d="M1142.96,1071.72c-6.51,0-6.51,10.09,0,10.09C1149.46,1081.81,1149.46,1071.72,1142.96,1071.72z"/>
		<path class="st20" d="M1173.89,1063.66c-6.51,0-6.51,10.09,0,10.09C1180.4,1073.74,1180.4,1063.66,1173.89,1063.66z"/>
	</g>
</g>
<g>
	<path class="st5" d="M569.24,221.41c-8.1,0-8.1,12.56,0,12.56C577.33,233.97,577.33,221.41,569.24,221.41z"/>
	<path class="st5" d="M599.38,173.69c-8.1,0-8.1,12.56,0,12.56C607.47,186.25,607.47,173.69,599.38,173.69z"/>
	<path class="st5" d="M614.45,211.37c-8.1,0-8.1,12.56,0,12.56C622.54,223.93,622.54,211.37,614.45,211.37z"/>
	<path class="st5" d="M1242.37,655.94c-8.1,0-8.1,12.56,0,12.56S1250.47,655.94,1242.37,655.94z"/>
	<path class="st5" d="M1277.54,633.33c-8.1,0-8.1,12.56,0,12.56S1285.64,633.33,1277.54,633.33z"/>
	<path class="st5" d="M1275.03,683.57c-8.1,0-8.1,12.56,0,12.56S1283.12,683.57,1275.03,683.57z"/>
	<path class="st5" d="M1782.39-42.32c-8.1,0-8.1,12.56,0,12.56C1790.49-29.76,1790.49-42.32,1782.39-42.32z"/>
	<path class="st5" d="M1825.09-19.71c-8.1,0-8.1,12.56,0,12.56S1833.19-19.71,1825.09-19.71z"/>
	<path class="st5" d="M1827.6-62.41c-8.1,0-8.1,12.56,0,12.56S1835.7-62.41,1827.6-62.41z"/>
	<path class="st5" d="M1774.85,979.95c-8.1,0-8.1,12.56,0,12.56S1782.95,979.95,1774.85,979.95z"/>
	<path class="st5" d="M1794.95,947.3c-8.1,0-8.1,12.56,0,12.56S1803.05,947.3,1794.95,947.3z"/>
	<path class="st5" d="M1812.53,984.97c-8.1,0-8.1,12.56,0,12.56C1820.63,997.53,1820.63,984.97,1812.53,984.97z"/>
	<path class="st5" d="M147.27-49.85c-8.1,0-8.1,12.56,0,12.56C155.37-37.29,155.37-49.85,147.27-49.85z"/>
	<path class="st5" d="M167.36-85.01c-8.1,0-8.1,12.56,0,12.56S175.46-85.01,167.36-85.01z"/>
	<path class="st5" d="M182.43-52.36c-8.1,0-8.1,12.56,0,12.56S190.53-52.36,182.43-52.36z"/>
	<path class="st21" d="M978.64,213.88c-8.1,0-8.1,12.56,0,12.56C986.74,226.44,986.74,213.88,978.64,213.88z"/>
	<path class="st21" d="M393.42,103.36c-8.1,0-8.1,12.56,0,12.56S401.51,103.36,393.42,103.36z"/>
	<path class="st21" d="M873.15-135.25c-8.1,0-8.1,12.56,0,12.56C881.25-122.69,881.25-135.25,873.15-135.25z"/>
	<path class="st21" d="M855.57,437.42c-8.1,0-8.1,12.56,0,12.56C863.67,449.98,863.67,437.42,855.57,437.42z"/>
	<path class="st21" d="M1202.19,319.37c-8.1,0-8.1,12.56,0,12.56S1210.28,319.37,1202.19,319.37z"/>
	<path class="st21" d="M1483.5,814.18c-8.1,0-8.1,12.56,0,12.56C1491.6,826.74,1491.6,814.18,1483.5,814.18z"/>
	<path class="st21" d="M1782.39,701.15c-8.1,0-8.1,12.56,0,12.56C1790.49,713.71,1790.49,701.15,1782.39,701.15z"/>
	<path class="st21" d="M1674.39,924.69c-8.1,0-8.1,12.56,0,12.56S1682.49,924.69,1674.39,924.69z"/>
	<path class="st21" d="M1277.54,55.64c-8.1,0-8.1,12.56,0,12.56S1285.64,55.64,1277.54,55.64z"/>
</g>
</svg>
