<?xml version="1.0" encoding="utf-8"?>
<!-- Generator: Adobe Illustrator 23.0.3, SVG Export Plug-In . SVG Version: 6.00 Build 0)  -->
<svg version="1.1" xmlns="http://www.w3.org/2000/svg" xmlns:xlink="http://www.w3.org/1999/xlink" x="0px" y="0px"
	 viewBox="0 0 1920 1080" style="enable-background:new 0 0 1920 1080;" xml:space="preserve">
<style type="text/css">
	.st0{display:none;}
	.st1{display:inline;fill:#B7EFF9;}
	.st2{fill:#8AD3DB;}
	.st3{fill:#6395CE;}
	.st4{fill:#E17C37;}
	.st5{fill:#D77062;}
	.st6{fill:#F8EBE5;}
	.st7{fill:#212443;}
	.st8{fill:#FFFFFF;}
	.st9{fill:#4F7CA6;}
	.st10{fill:#EAC2B0;}
	.st11{fill:#CC5B1C;}
	.st12{fill:#1F2241;}
	.st13{fill:#E8A628;}
	.st14{fill:#6297D4;}
	.st15{fill:#D88F25;}
	.st16{fill:#E7A729;}
	.st17{fill:#DD6A3E;}
	.st18{fill:#F9EFE6;}
	.st19{fill:#F4D9C6;}
	.st20{fill:#C34622;}
	.st21{fill:none;stroke:#D88F25;stroke-width:1.4959;stroke-miterlimit:10;}
	.st22{fill:#E28A21;}
</style>
<g id="BACKGROUND" class="st0">
	<rect y="-89.47" class="st1" width="1920" height="1283.87"/>
</g>
<g id="OBJECTS">
	<g>
		<path class="st2" d="M599.43,494.72c-22.43-15.18-51.89-18.19-83.08-0.69c-34.38,19.29-59.66,38.99-101.07,31.35
			c-65.04-12.01-117.68-49.47-186.44-45.89c-36.23,1.89-73.69,14.81-96.87,43.4c-18.32,22.6-25.95,53.64-21.36,82.64
			c4.58,29,21.02,55.63,43.95,73.27c17.56,13.5,39.32,21.95,61.26,20.94c19.95-0.92,38.7-9.39,57.31-16.8
			c44.84-17.85,95.14-30.17,140.61-14.08c27.75,9.82,51.01,29.86,80.5,34.16c29.11,4.25,59.69-1.69,85-17.11
			c32.84-20,57.76-56.56,61.18-95.72C643.89,550.31,626.96,513.35,599.43,494.72z"/>
	</g>
	<g>
		<g>
			<path class="st2" d="M519.02,741.61c-18.37,8.02-40.13,18.74-48.47,38.3c-9.9,23.19,6.19,45.57,25.3,57.64
				c12.06,7.62,25.55,13,38.5,18.91c14.99,6.84,30,13.67,44.98,20.53c12.02,5.5,24.29,11.36,32.17,22.44
				c5.86,8.24,9.29,17.92,12.59,27.39c5.56,15.96,11.19,35.52,28.12,42.9c20.86,9.08,43.21-7.26,46.67-28.26
				c3.85-23.38-11.44-41.28-29.66-53.43c-9.58-6.39-19.79-11.8-29.15-18.53c-10.82-7.77-19.91-17.67-26.64-29.18
				c-8.46-14.49-10.84-29.8-14.27-45.93c-2.62-12.32-7.64-23.43-16.42-32.61c-16.08-16.83-40.94-24.82-63.58-18.52
				c-1.27,0.35-0.73,2.34,0.55,1.99c21.06-5.86,44.06,1.06,59.67,16.08c8.1,7.8,13.69,17.47,16.55,28.33
				c3.26,12.38,4.21,25.17,8.8,37.22c7.78,20.43,22.04,36.6,40.22,48.44c17.54,11.42,39.34,20.98,48.57,41.1
				c5.4,11.78,5.36,26.39-1.34,37.65c-6.19,10.4-18.41,17-30.55,15.96c-20.74-1.78-28.54-23.5-34.35-40.24
				c-5.99-17.27-12.1-34.18-28.02-44.73c-10.81-7.16-23.34-11.89-35.09-17.25c-13.2-6.02-26.39-12.04-39.59-18.06
				c-24.25-11.07-59.81-27.88-54.58-60.66c3.84-24.08,30.04-36.97,50.06-45.71C521.27,742.86,520.23,741.08,519.02,741.61
				L519.02,741.61z"/>
		</g>
	</g>
	<g>
		<path class="st2" d="M1152.97,285.65c-5.66-15.9-17.45-29.89-33.67-33.96c-30.01-2.48-45.67,5.26-61.19,20.46
			c-15.52,15.2-24.42,35.88-33.07,55.94c-8.65,20.06-17.84,40.67-33.72,55.47c-27.12,25.27-68.93,29.24-95.32,55.28
			c-26.4,26.04-30.36,70.53-13.58,103.79c16.78,33.27,51.16,55.21,87.32,62.12c11.76,2.25,23.85,3.07,35.71,1.44
			c34.87-4.79,64.56-30.9,80.52-62.75c15.96-31.85,19.72-68.73,17.84-104.42c-0.92-17.39-2.95-35.66,4.1-51.53
			c13.99-31.47,49.74-42.29,48.82-81.95C1156.58,298.96,1155.29,292.14,1152.97,285.65z"/>
	</g>
	<g>
		<g>
			<path class="st2" d="M507.81,380.7c-4.03-10.35-1.7-21.85,4.92-30.61c6.59-8.72,16.99-13.61,27.58-15.38
				c21.85-3.66,44.38,8.33,65.63-0.49c40.22-16.69,38.65-72.8,76.62-91.93c9.55-4.81,21.1-6.31,30.63-0.6
				c8.64,5.18,13.41,14.99,14.58,24.74c2.58,21.59-12.48,39.86-27.74,53.14c-8.43,7.34-17.5,13.9-25.87,21.3
				c-7.88,6.96-14.75,14.8-21.14,23.13c-13.34,17.38-25.06,36.76-43.02,49.89c-18.86,13.79-44.54,21.08-67.15,12.62
				c-21.19-7.93-37.32-29.06-35.93-52.1c0.09-1.41-2.11-1.41-2.2,0c-1.18,19.53,9.77,37.7,25.84,48.28
				c18.03,11.87,40.87,11.88,60.53,4.14c21.17-8.34,36.23-24.52,49.54-42.38c7.36-9.88,14.34-20.08,22.46-29.37
				c8.23-9.41,17.87-17.2,27.6-24.98c16.92-13.54,35.69-29.65,39.09-52.4c2.53-16.92-5.56-36.94-23.54-41.17
				c-19.97-4.7-38.85,10.95-49.14,26.45c-13.26,19.97-20.04,44.68-38.68,60.79c-11.8,10.2-25.48,12.67-40.7,10.95
				c-13.49-1.52-26.77-4.55-40.32-1.69c-21.46,4.54-40.61,25.45-31.73,48.27C506.2,382.58,508.33,382.02,507.81,380.7L507.81,380.7z
				"/>
		</g>
	</g>
	<g>
		<path class="st2" d="M1494.26,432.61c-14.79-25.23-50.63-40.72-78.86-33.88c-42.5,10.29-43.86,58.22-49.06,94.39
			c-3.99,27.77-12.93,56.38-33.51,75.11c-11.86,10.79-26.69,17.49-41.08,24.41c-36.53,17.56-72.46,38.11-100.41,67.76
			c-27.95,29.65-47.3,69.65-44.98,110.64c0.58,10.31,2.54,20.62,6.62,30.08c8.91,20.68,27.28,35.78,47.02,46.16
			c27.74,14.59,59.42,21.34,90.59,19.3c29.02-1.89,58.45-11.95,78.91-32.93c29.33-30.07,35.15-75.74,38.73-117.91
			c3.57-42.18,7.74-87.62,35.11-119.54c8.46-9.87,18.79-17.95,27.36-27.73c25.65-29.27,38.36-73.5,31.85-112.21
			C1501.01,447.07,1498.16,439.27,1494.26,432.61z"/>
	</g>
	<g>
		<g>
			<path class="st2" d="M1418.27,172.31c-26.67-2.97-54.36,4.67-74.87,22.22c-19.94,17.06-31.53,43.4-30.63,69.65
				c0.85,24.8,13.76,47.96,34.34,61.82c10.22,6.88,22.08,11.12,34.4,11.88c16.73,1.04,33.08-3.65,49.52-5.87
				c29.76-4.02,60.28,3.63,84.45,21.56c12.4,9.2,20.87,21.97,32.54,31.84c8.88,7.51,21.77,12.76,32.95,7.07
				c5.24-2.67,9.13-7.34,12.42-12.09c4.27-6.15,8.35-12.68,11.28-19.59c4.85-11.45,4.56-23.62-1.2-34.67
				c-12.7-24.36-39.91-33.26-62.53-45.45c-12.61-6.8-24.52-15.3-31.56-28.1c-6.87-12.49-10.47-26.05-18.88-37.78
				c-14.76-20.58-37.26-35.59-62.06-40.93c-6.08-1.31-12.25-1.99-18.47-2.13c-1.41-0.03-1.41,2.17,0,2.2
				c25.88,0.59,50.74,11.89,68.82,30.33c9.09,9.26,16.04,20.12,21.04,32.07c4.91,11.75,9.49,22.94,18.99,31.81
				c17.91,16.73,42.77,22.34,62.28,36.63c10.26,7.51,19.93,17.53,23.52,30.04c4.36,15.19-2.97,28.9-11.05,41.35
				c-3.59,5.54-7.66,11.37-13.72,14.42c-7.67,3.87-16.72,1.92-23.86-2.17c-12.17-6.98-19.84-19.73-30.04-29.05
				c-18.07-16.5-41.36-27.06-65.65-29.92c-13.8-1.63-27.3-0.17-40.91,2.23c-15.13,2.67-30.69,5.99-46.04,3.01
				c-24.64-4.78-45.43-23.91-53.96-47.28c-10.16-27.82-2.49-60.55,16.76-82.61c20.22-23.16,51.92-33.62,82.1-30.26
				C1419.67,174.67,1419.66,172.47,1418.27,172.31L1418.27,172.31z"/>
		</g>
	</g>
	<g>
		<g>
			<path class="st2" d="M1763.14,567.03c-31.85-18.96-70.88-15.03-102.03,3.43c-14.89,8.83-28.07,20.78-37.95,35.02
				c-9.77,14.09-16.43,30.07-22.85,45.89c-12.71,31.31-26.92,73.26-62.6,84.82c-10.37,3.36-21.34,4.29-31.75,7.49
				c-7.29,2.24-14.32,5.4-20.98,9.09c-14.49,8.03-27.83,18.79-38.11,31.83c-9.23,11.71-16.25,25.89-16.5,41.06
				c-0.25,15.56,7.18,31.18,18.95,41.29c22.42,19.23,56.05,15.28,81.66,5.47c13.72-5.26,26.89-12.63,37.92-22.41
				c14.25-12.64,23.03-29.93,33.87-45.3c12.23-17.36,28.14-30.16,47.25-39.31c17.8-8.53,36.85-13.98,55.49-20.31
				c34.78-11.82,70.16-29.54,89.3-62.49c18.67-32.14,13.2-71.24-11.37-98.68C1777.53,577.33,1770.66,571.7,1763.14,567.03
				c-1.21-0.75-2.31,1.15-1.11,1.9c31.62,19.6,50.23,59.04,38.53,95.47c-11.87,36.95-46.88,60.29-81.48,73.51
				c-32.62,12.46-68.54,19.39-96.34,41.81c-15.3,12.33-25.05,28.87-35.81,44.98c-9.27,13.88-19.68,25.48-33.89,34.35
				c-24.15,15.08-57.28,25.32-85.31,15.82c-15.16-5.14-27.01-17.16-32.37-32.24c-5.5-15.49-2.17-31.92,5.86-45.87
				c16.87-29.31,48.34-48.14,80.81-54.59c9.44-1.87,18.99-3.83,27.4-8.73c6.69-3.89,12.66-9.22,17.81-14.96
				c10.4-11.57,17.74-25.49,24.02-39.62c13.31-29.95,22.43-62.94,45.97-86.93c25.07-25.55,62.92-41.2,98.74-33.41
				c9.22,2.01,17.94,5.58,26.04,10.4C1763.25,569.65,1764.36,567.75,1763.14,567.03z"/>
		</g>
	</g>
	<g>
		<path class="st2" d="M1710.96,768.79c-14.74-4.77-32.09,5.8-30.83,31.14c0.64,12.84,5.83,26.45,16.9,32.7
			c24.06,13.59,35.85-16.35,33.4-36.27C1728.55,780.95,1720.28,771.81,1710.96,768.79z"/>
	</g>
	<g>
		<g>
			<path class="st2" d="M155.84,322.45c-13.46,6.58-24.79,19.09-24.2,34.91c0.54,14.38,11.97,24.84,25.38,28.21
				c11.33,2.84,25.12,0.84,33.34-8.07c9.35-10.14,8.16-26.19,1.08-37.22c-7.93-12.35-22.48-19.74-37.12-17.59
				c-1.39,0.2-0.8,2.32,0.58,2.12c15.43-2.27,30.99,7.26,37.22,21.36c6.8,15.39,0.4,32.85-16.3,37.26
				c-13.88,3.67-31.65-1.62-38.91-14.67c-9.96-17.88,4.2-36.66,20.04-44.41C158.22,323.73,157.1,321.83,155.84,322.45L155.84,322.45
				z"/>
		</g>
	</g>
	<g>
		<g>
			<path class="st3" d="M426.36,858.74c1.4-4.59,3.17-9.05,4.19-13.78c2.41-11.21,2.61-22.19-2.61-32.74
				c1.38-0.65,2.75-1.32,4.14-1.94c6.08-2.7,12.07-1.32,16.75,3.48c4.75,4.88,6.68,10.64,6.04,17.38
				c-0.49,5.14-0.91,10.3-1.52,15.43c-1.28,10.79-1.5,21.61-1.07,32.46c0.11,2.74-0.24,5.5-0.42,8.25
				c-0.09,1.39-0.47,2.71-1.13,3.94c-2.17,4.05-5.6,4.93-9.23,2.24c-4.77-3.54-7.2-8.57-8.5-14.27c-1.22-5.37-2.34-10.76-4.23-15.95
				C428.17,861.58,427.49,860.05,426.36,858.74z"/>
			<g>
				<path class="st3" d="M547.58,352.61c-3.61-3.6-8.22-6.19-13.69-8.05c-10.5-3.57-22.28-3.42-32.55,0.88
					c-16.21,6.79-27.39,22.32-42.92,30.59c-15.19,8.09-33.79,8.84-47.7,19.04c-8.25,6.05-14.49,15.19-24,18.86
					c-6.39,2.46-13.49,2.1-20.23,0.96c-18.56-3.15-37.39-13.43-44.48-31.14c-4.84-12.09-3.79-26.38-10.62-37.43
					c-4.3-6.97-11.47-12.1-14.27-19.82c-3.97-10.92,2.03-22.66,4.22-34.09c2.52-13.18-0.37-27.45-8.26-38.22
					s-20.74-17.77-33.96-17.94c0,0-9.55-1.03-24.16,7.15c-18.13,12.72-24.25,38.01-20.41,60.05c3.84,22.04,15.8,41.62,27.81,60.38
					c12.01,18.76,24.52,37.83,29.71,59.58c0.83,3.49,1.45,7.27,0.12,10.6c-1.5,3.74-5.08,6.07-8.22,8.53
					c-27.75,21.77-28.88,64.16-49.5,92.97c-6.68,9.34-15.32,17.09-22.03,26.41c-8.17,11.34-12.78,25.93-6.5,39.29
					c5.16,10.97,16.78,18.79,28.83,18.65c0.48-0.01,0.96-0.02,1.44-0.05c4.94-0.32,9.77-1.84,14.73-1.92
					c4.96-0.09,9.83,1.27,14.61,2.61c19.44,5.45,38.93,10.91,57.67,18.48c19.58,7.92,38.35,18.14,58.69,23.75
					c20.34,5.61,43.22,6.09,61.35-4.82c15.63-9.41,25.98-26.58,29.18-44.74c3.2-18.16-0.31-37.14-7.85-53.92
					c-5.47-12.17-13.04-23.41-17.04-36.16c-4.01-12.74-3.74-28.07,5.16-37.93c5.09-5.64,12.27-8.73,18.83-12.5
					c9.68-5.56,18.38-12.88,25.57-21.51c3.88-4.67,7.35-9.74,11.87-13.78c8.38-7.51,19.55-10.79,29.38-16.19
					c11.62-6.38,21.54-15.87,28.55-27.23c6.86-11.11,12.29-24.68,4.41-36.78C550.22,355.5,548.96,353.99,547.58,352.61z"/>
				<path class="st4" d="M426.36,858.74c-0.83,1.29-1.71,2.55-2.49,3.87c-8.99,15.09-25.14,21.64-41.97,17.07
					c-3.45-0.94-6.99-1.94-9.92-3.87c-5.69-3.75-11.2-2.84-16.9-0.5c-5.55,1.46-11.08,2.98-16.64,4.35
					c-1.86,0.46-2.46,1.58-2.43,3.31c0.16,8.51-2.68,16.12-6.82,23.33c-0.14,0.1-0.33,0.16-0.42,0.29
					c-11.95,18.19-36.8,15.55-50.18,2.83c-4.09-3.88-7.84-8.13-11.79-12.16c-2.87-2.93-5.72-5.9-8.74-8.67
					c-7.07-6.49-14.59-12.23-23.35-16.37c-15.71-7.4-31.03-15.6-45.41-25.48c-10.66-7.32-19.73-16.29-27.11-27.01
					c-10.74-15.6-12.85-32.65-8.36-50.83c2.84-11.51,7.94-21.99,14.49-31.73c5.94-8.82,11.75-17.77,18.19-26.2
					c13.08-17.13,23.67-35.76,32.99-55.15c5.74-11.94,11.7-23.73,18.31-35.19c0.6-1.03,1.05-2.15,1.58-3.23
					c4.32-6.02,7.45-12.69,10.37-19.48c2.85-6.62,5.48-13.37,10.27-18.91c1.46,1.18,2.93,2.34,4.37,3.54
					c10.99,9.14,23.01,16.52,36.64,20.69c19.14,5.86,38.48,10.98,58.5,12.75c2.16,0.19,4.46-0.04,6.23,1.7c0,0.68-0.11,1.38,0,2.04
					c2.64,14.78,5.42,29.55,6.66,44.55c0.78,20.62-4.57,39.95-12.17,58.76c-2.9,7.17-6.46,14.05-9.52,21.17
					c-3.44,8.01-4.66,16.24-3.34,24.77c1.9,12.2,2.36,24.35,0.19,36.57c-0.53,3-0.22,3.01,2.93,2.89
					c13.51-0.51,26.65-2.89,39.41-7.48c3.86-1.39,7.92-1.84,12.01-2.1c10.17-0.64,18.16,3.34,24.3,11.47
					c0.51,0.67,1.12,1.27,1.69,1.9c5.22,10.56,5.02,21.53,2.61,32.74C429.53,849.69,427.76,854.15,426.36,858.74z M259.89,753.12
					c-3.52,3.45-6.04,5.98-8.62,8.43c-2.47,2.35-5.09,4.55-7.5,6.97c-4.09,4.11-4.05,8.89-0.07,12.91
					c3.61,3.64,7.19,7.3,10.81,10.93c3.34,3.35,4,3.22,5.77-1.13c0.31-0.77,0.58-1.66,0.5-2.47
					C259.75,777.34,259.03,765.9,259.89,753.12z"/>
				<path class="st5" d="M391.88,392.08c-0.4-1.7-1.51-3.18-3.19-3.56c-0.35-0.08-0.72-0.11-1.06,0.01
					c-0.52,0.18-0.88,0.66-1.17,1.13c-1.16,1.82-2.01,3.92-3.69,5.27s-4.6,1.42-5.57-0.51c-0.22-0.44-0.4-1.01-0.87-1.1
					c-0.37-0.07-0.7,0.2-0.98,0.45c-6.22,5.67-13.11,10.56-20.48,14.55c-0.27,0.14-0.57,0.34-0.58,0.65
					c-0.01,0.27,0.21,0.48,0.38,0.69c0.92,1.14,0.44,2.84-0.13,4.2c-1.66,3.97-4.2,8.21-8.37,9.06c-0.65,0.13-1.34,0.19-1.88,0.58
					c-0.54,0.4-0.81,1.07-1.02,1.72c-2.29,7.18,0.32,15.46,5.6,20.63c2.86,2.8,6.86,4.57,10.79,4.05c2.51-0.33,4.85-1.57,6.84-3.16
					c5.12-4.09,12.53-11.87,7.92-16.21c-7.61-7.16-2.57-24.28,6.54-28.93c1.09-0.56,2.33-0.7,3.52-0.95
					c2.88-0.62,5.8-2.15,7.05-4.86C392.08,394.64,392.17,393.3,391.88,392.08z"/>
				<path class="st3" d="M329.19,906.3c4.15-7.21,6.99-14.81,6.82-23.33c-0.03-1.73,0.57-2.86,2.43-3.31
					c5.57-1.37,11.1-2.89,16.64-4.35c5.1,4,6.35,9.68,6.06,15.7c-0.27,5.83-1.14,11.62-2,17.42c-0.93,6.24-0.67,12.69-0.74,19.04
					c-0.05,4.12,0.31,8.25,0.37,12.37c0.04,2.79-0.4,5.5-2.1,7.84c-2.11,2.91-5.02,3.48-7.98,1.44c-4.48-3.1-6.93-7.77-7.89-12.87
					c-1.9-10.13-4.88-19.68-11.15-27.97C329.28,907.79,329.33,906.97,329.19,906.3z"/>
				<path class="st6" d="M395.23,486.39c2.16-3.97,2.28-7.66-0.12-11.66c-3.76-6.27-5.63-13.15-6.22-20.53
					c-0.42-5.21,0.17-10.31,0.37-15.46c0.19-5.13-1.66-7.24-6.7-7.78c-2.69-0.29-5.41-0.3-8.11-0.43
					c-0.19,7.24-3.45,12.89-9.06,17.08c-4.35,3.25-9.62,3.06-13.86,0.27c-8.44-5.55-11.29-17.51-7.36-24.52
					c-5.84-2.55-9.02-1.76-12.98,3.93c-7.4,10.63-16.27,19.82-25.98,28.24c-0.04,0.03-0.08,0.07-0.12,0.1
					c-0.49,0.38-0.97,0.78-1.42,1.2c-0.53,0.45-1.06,0.91-1.6,1.35c0.02,0.08,0.04,0.17,0.06,0.25c-1.96,2.31-3.26,5.01-3.44,7.76
					c-1.13,17.86,2.85,37.26-6.12,52.67c-4.32,7.43-11.17,12.91-17.62,18.53c-6.45,5.62-12.86,11.86-15.76,19.97
					c-2.33,6.51-1.68,14.52,2.38,19.81c0.07,1.14,0.22,2.3,0.44,3.46c0.8,0.64,1.6,1.28,2.38,1.93
					c10.98,9.14,23.01,16.52,36.63,20.69c19.14,5.86,38.48,10.98,58.5,12.75c2.16,0.19,4.46-0.04,6.23,1.7
					c3.69-1.86,6.08-4.92,7.55-8.71c3.22-8.27,4.95-16.86,4.23-25.76c-1.13-13.94-1.2-27.84,0.25-41.76c1-9.6,2.42-19.05,5.54-28.27
					C386.5,503.84,390.56,494.98,395.23,486.39z M276.27,557.26c-1.06,0.81-2.22,1.63-3.4,2.48c2.43-2.3,5.12-4.31,7.84-6.28
					C279.31,554.79,277.83,556.06,276.27,557.26z"/>
				<path class="st5" d="M384.34,387.91c-3.55,16.41-14.59,27.98-24.62,25.66c-14.33-3.31-15.31-17.37-11.76-33.78
					c3.55-16.41,14.57-27.9,24.62-25.66C382.62,356.38,387.89,371.5,384.34,387.91z"/>
				<path class="st7" d="M359.91,361.77c-3.71-1.22-7.43-2.4-11.12-3.67c-17.97-6.16-30.19-17.88-33.17-37.44
					c-2.15-14.12,1.39-26.8,12.76-36.21c6.2-5.13,13.37-7.44,21.4-5.77c16.34,3.42,20.58,17.04,18.93,28.44
					c-0.79,5.46-2.63,10.69-4.69,15.8c-0.52,1.28-1.06,2.45-0.81,3.94c1.77,10.81,5.69,20.2,15.84,25.71
					c2.68,1.46,5.26,3.16,7.45,5.38c2.59,2.63,3.8,5.77,2.95,9.41c-0.57,2.44-0.38,4.66,0.19,7.08c1.16,4.94-0.81,9.49-2.43,14.02
					c-1.29,2.2-2.38,4.56-4.34,6.27c-2.37,2.07-4.05,1.87-5.94-0.71c-1.89-2.6-2.59-5.56-2.2-8.75c0.58-4.7,2.49-8.83,5.38-12.54
					c2.55-3.27,2.46-3.59-1.3-5.45C372.83,364.33,366.32,363.22,359.91,361.77z"/>
				<path class="st5" d="M393.78,395.61c-3,6.06-8.11,9.6-11.41,7.92c-3.3-1.69-3.53-7.96-0.53-14.02c3-6.06,8.11-9.6,11.41-7.92
					C396.55,383.27,396.79,389.55,393.78,395.61z"/>
				<path class="st5" d="M352.88,381.68c0.8,6.03-1.24,11.29-4.56,11.74c-3.32,0.45-6.65-4.07-7.45-10.1
					c-0.8-6.03,1.24-11.29,4.56-11.74C348.75,371.12,352.08,375.64,352.88,381.68z"/>
			</g>
			<path class="st8" d="M366.73,394.38c-1.55,3.37-5.25,5.15-8.69,3.99c-3.44-1.16-5.37-4.82-4.64-8.47L366.73,394.38z"/>
			<path class="st5" d="M563.94,340.67c-1.66-2.24-10.78,5.8-10.78,5.8s11.24-11.24,10.28-13.16c-1.51-3.03-14.09,9.96-14.09,9.96
				s13.34-14.49,10.36-16.66c-2.97-2.17-14.57,13.69-14.57,13.69s10-15.61,7.15-17.01c-2.85-1.41-14.99,19.23-14.99,19.23
				s-1.78-12.02-4.22-11.81c-4.11,0.36-1.37,26.05-1.37,26.05l10.76,9.02C542.47,365.78,565.6,342.91,563.94,340.67z"/>
			<path class="st5" d="M224.08,223.41c2.04-1.89,9.55,7.72,9.55,7.72s-9.01-13.15-7.72-14.85c2.03-2.69,12.05,12.42,12.05,12.42
				s-10.49-16.73-7.17-18.31c3.31-1.58,11.84,16.18,11.84,16.18s-7.01-17.21-3.95-18.05c3.06-0.85,11.26,21.7,11.26,21.7
				s3.93-11.48,6.28-10.82c3.97,1.12-3.37,25.87-3.37,25.87l-12.21,6.85C240.64,252.1,222.04,225.3,224.08,223.41z"/>
			<g>
				<path class="st9" d="M527.03,358.76c5.28,5.61,10.65,9.69,18.42,10.61c3.95,0.47,3.92-5.82,0-6.29
					c-6.02-0.71-10.04-4.51-14.05-8.77C528.66,351.38,524.28,355.83,527.03,358.76L527.03,358.76z"/>
			</g>
			<g>
				<path class="st9" d="M259.16,243.71c-9.75-0.5-18.51,3.99-24.36,11.81c-2.41,3.22,2.96,6.36,5.35,3.17
					c4.54-6.08,11.6-9.08,19.02-8.7C263.15,250.2,263.14,243.91,259.16,243.71L259.16,243.71z"/>
			</g>
			<g>
				<path class="st9" d="M337.65,412.74c-10.85,21.8-28.52,38.99-50.44,49.03c-18.12,8.3-41.65,16.06-44.46,39.35
					c-0.24,2,2.86,1.99,3.1,0c3.17-26.2,35.23-31.18,53.67-42.23c17.53-10.51,31.66-26.13,40.82-44.56
					C341.22,412.53,338.55,410.94,337.65,412.74L337.65,412.74z"/>
			</g>
			<g>
				<path class="st9" d="M242.59,510.88c-1.48,5.35-3.58,10.39-6.31,15.2c-1,1.76,1.68,3.34,2.67,1.59
					c2.86-5.04,5.07-10.35,6.63-15.95C246.11,509.77,243.13,508.93,242.59,510.88L242.59,510.88z"/>
			</g>
			<g>
				<path class="st9" d="M388.5,424.51c2.9,9.36-0.55,18.46-0.47,27.93c0.06,7.03,2.12,13.79,4.76,20.23
					c5.62,13.72,14.51,27,12.69,42.51c-0.23,2.01,2.86,1.99,3.1,0c1.72-14.67-5.84-27.49-11.52-40.38
					c-3.44-7.79-6.26-15.92-5.87-24.57c0.4-9.06,3.08-17.62,0.31-26.56C390.89,421.75,387.9,422.57,388.5,424.51L388.5,424.51z"/>
			</g>
			<g>
				<path class="st9" d="M408.65,533.19c-0.34,4.08,0.18,8.07,1.53,11.92c0.66,1.89,3.66,1.08,2.98-0.84
					c-1.27-3.61-1.73-7.27-1.42-11.09C411.91,531.18,408.81,531.19,408.65,533.19L408.65,533.19z"/>
			</g>
			<g>
				<path class="st9" d="M381.72,656.25c15.67-0.27,33.19-9.34,38.82-24.84c6.38-17.58-0.81-35.76-7.56-52
					c-0.77-1.86-3.44-0.26-2.67,1.59c5.98,14.4,12.42,30.22,8.33,46.07c-4.17,16.15-21.12,25.77-36.92,26.04
					C379.73,653.14,379.72,656.28,381.72,656.25L381.72,656.25z"/>
			</g>
			<g>
				<path class="st9" d="M230.49,547.53c-11.74,8.54-21.21,22-22.7,36.92c-0.63,6.34,0.96,13.36,6.54,17.04
					c6.89,4.54,15.68-1.03,22.25,3.69c1.63,1.17,3.18-1.56,1.56-2.71c-3.72-2.67-7.59-2.46-11.99-2.17
					c-4.27,0.28-8.79,0.47-12.01-3.02c-3.37-3.64-3.75-9-3.1-13.68c1.88-13.47,10.27-25.55,21.01-33.35
					C233.65,549.08,232.11,546.35,230.49,547.53L230.49,547.53z"/>
			</g>
			<g>
				<path class="st9" d="M273.75,436.21c24.14-16.58,40.81-42.45,45.94-71.61c0.35-1.98-2.63-2.83-2.98-0.84
					c-4.98,28.34-21.02,53.59-44.51,69.73C270.55,434.63,272.09,437.35,273.75,436.21L273.75,436.21z"/>
			</g>
			<g>
				<path class="st9" d="M412.77,391.62c-3.17,18.46-2.05,36.79,2.93,54.81c3.7,13.39,8.13,28.58,20.88,35.81
					c1.74,0.99,3.3-1.73,1.56-2.71c-12.58-7.14-16.63-23.08-20.08-36.27c-4.38-16.7-5.23-33.77-2.3-50.8
					C416.09,390.48,413.11,389.63,412.77,391.62L412.77,391.62z"/>
			</g>
			<g>
				<path class="st10" d="M333.45,430.2c-1.56,12.24,4.69,24.18,16.26,28.68c13.01,5.07,22.04-2.21,28.11-13.35
					c0.97-1.77-1.71-3.36-2.67-1.59c-2.27,4.16-4.65,8.74-8.79,11.31c-5.15,3.19-11.89,2.54-17.15,0.01
					c-9.54-4.59-13.98-14.74-12.66-25.06C336.8,428.2,333.71,428.21,333.45,430.2L333.45,430.2z"/>
			</g>
			<g>
				<path class="st10" d="M262.54,579.08c-3.4-10.33,10.34-15.94,16.9-20.81c5.51-4.1,10.72-8.6,15.58-13.48
					c10.11-10.17,18.51-21.92,25.12-34.7c0.93-1.79-1.74-3.38-2.67-1.59c-8.06,15.58-18.82,29.54-32.03,40.97
					c-6.11,5.29-12.95,9.26-19.3,14.16c-5.18,4.01-8.8,9.55-6.58,16.28C260.18,581.82,263.17,581,262.54,579.08L262.54,579.08z"/>
			</g>
			<g>
				<path class="st10" d="M323.09,489.78c0.06,3.09-0.77,5.87-2.46,8.43c-1.12,1.68,1.57,3.26,2.67,1.59
					c1.97-2.98,2.95-6.42,2.89-10.02C326.15,487.76,323.05,487.75,323.09,489.78L323.09,489.78z"/>
			</g>
			<g>
				<path class="st6" d="M347.88,609.72c15.52,34.41,6.36,73.13-11.94,104.38c-3.22,5.5-9.31,11.63-9.59,18.32
					c-0.31,7.39,3.37,15.64,4.49,22.96c2.76,18.14,0.92,37.91-12.68,51.32c-0.86,0.85-0.41,2.29,0.68,2.63
					c8.15,2.55,13.04,10.24,12.26,18.8c-0.11,1.22,1.39,1.91,2.33,1.36c15.96-9.38,35.76-8.66,51.07,1.76
					c0.6,0.41,1.37,0.19,1.88-0.25c12.06-10.54,29.54-12.07,43.26-3.93c1.72,1.02,3.28-1.69,1.56-2.71
					c-7.56-4.48-16.18-6.41-24.91-5.43c-3.85,0.43-7.62,1.4-11.19,2.9c-3.5,1.47-7.97,6.16-11.36,5.17
					c-4.14-1.2-7.92-4.15-12.22-5.37c-4.3-1.22-8.76-1.86-13.22-1.93c-9.33-0.14-18.36,2.34-26.42,7.08
					c0.78,0.45,1.55,0.9,2.33,1.36c0.91-9.98-5.15-18.9-14.53-21.84c0.23,0.88,0.46,1.75,0.68,2.63
					c11.53-11.37,15.5-27.68,14.64-43.61c-0.51-9.51-2.83-18.55-4.72-27.83c-1.3-6.36,1.09-10.18,4.33-15.25
					c2.56-4.01,4.98-8.11,7.24-12.3c16.76-31.12,23.72-68.54,8.71-101.81C349.72,606.3,347.05,607.89,347.88,609.72L347.88,609.72z"
					/>
			</g>
			<g>
				<path class="st11" d="M261.15,751.49c-7.87-9.27-15.8-19.19-14.41-32.22c0.21-2.01-2.88-1.99-3.1,0
					c-1.47,13.79,6.95,24.59,15.32,34.44C260.27,755.25,262.45,753.01,261.15,751.49L261.15,751.49z"/>
			</g>
			<g>
				<path class="st11" d="M259.73,752c-3.33,28.79-5.29,58.35,12.56,82.92c1.17,1.61,3.86,0.04,2.67-1.59
					c-17.53-24.14-15.4-53.11-12.14-81.33C263.05,750,259.96,750.01,259.73,752L259.73,752z"/>
			</g>
			<g>
				<path class="st11" d="M290.52,854.65c4.38,5.15,8.9,10.4,14.76,13.86c6.21,3.66,13.51,5.48,20.36,7.49
					c6.26,1.84,12.94,4.29,19.55,3.15c6.8-1.17,18.4-8.24,24.65-3.28c1.55,1.23,3.76-0.98,2.19-2.22
					c-4.23-3.36-8.92-2.42-13.88-1.36c-8.67,1.86-15.31,5.08-24.35,2.76c-7.31-1.88-14.81-3.96-21.82-6.79
					c-8.09-3.27-13.7-9.29-19.27-15.84C291.4,850.9,289.22,853.13,290.52,854.65L290.52,854.65z"/>
			</g>
			<g>
				<path class="st11" d="M247.02,736.39c-9.59,12.48-20.54,23.65-32.79,33.43c-0.55,0.44-0.53,1.34-0.24,1.9
					c6.87,13.46,8.5,28.55,4.72,43.21c-0.51,1.96,2.48,2.79,2.98,0.84c1.86-7.23,2.62-14.61,1.93-22.07
					c-0.66-7.12-3.48-13.07-5.14-19.83c-0.69-2.79-1.05-2.12,1.25-4.5c1.22-1.26,2.74-2.3,4.05-3.46c2.94-2.58,5.8-5.25,8.57-8.01
					c6.05-6.04,11.64-12.5,16.85-19.29C250.42,737.04,248.24,734.8,247.02,736.39L247.02,736.39z"/>
			</g>
			<g>
				<path class="st11" d="M221.79,819.36c47.14,6.96,57.3,84.03,109.97,75.88c1.96-0.3,1.13-3.33-0.82-3.03
					c-27.59,4.27-46.17-21.13-60.97-40.55c-12.17-15.97-26.62-32.26-47.36-35.33C220.66,816.04,219.82,819.07,221.79,819.36
					L221.79,819.36z"/>
			</g>
			<g>
				<path class="st11" d="M287.45,597.71c-6.8-14.06-21.44-29.96-37.98-30.68c-7.55-0.33-13.37,3.88-19.09,8.34
					c-3.43,2.67-7.04,5.66-11.37,6.57c-6.57,1.37-13.12-2.09-18.78-4.98c-3.55-1.81-6.69,3.61-3.12,5.43
					c7.24,3.69,15.25,7.51,23.55,5.61c6.89-1.57,11.84-6.83,17.48-10.73c17.28-11.95,36.72,8.62,43.97,23.62
					C283.86,604.51,289.2,601.33,287.45,597.71L287.45,597.71z"/>
			</g>
			<g>
				<path class="st11" d="M313.74,602.77c-5.37-5.78-13.66-5.66-18.92,0.21c-7.34,8.2-9.05,19.98-14.5,29.29
					c-2.88,4.93-7.2,9.92-12.87,11.42c-6.05,1.61-11.82-1.93-17.71-2.76c-8.32-1.17-16.04,3.19-19.93,10.64
					c-1.87,3.57,3.47,6.75,5.35,3.17c2.27-4.33,5.91-7.27,10.81-7.67c5.14-0.42,9.99,2.37,15.01,3.11
					c6.4,0.94,12.32-1.27,17.19-5.48c5.61-4.85,8.95-11.44,11.73-18.25c2.44-5.97,9.84-29.6,19.47-19.23
					C312.1,610.17,316.47,605.71,313.74,602.77L313.74,602.77z"/>
			</g>
		</g>
		<g>
			<path class="st6" d="M335.89,606.54c13.98,32.05,8.64,69.38-12.1,97.01c-4.68,6.23-8.76,12.44-8.94,20.54
				c-0.21,9.63,2.29,19.44,2.79,29.08c0.99,19.37-2.04,39.66-15.62,54.27c-1.62,1.74-0.9,4.56,1.37,5.25
				c11.06,3.39,18.12,13.99,17.46,25.63c-0.23,4.04,5.96,4.03,6.19,0c0.82-14.45-8.42-27.54-22-31.69c0.46,1.75,0.91,3.5,1.37,5.25
				c12.67-13.63,17.44-32,17.63-50.39c0.11-11.12-1.82-21.92-2.76-32.94c-0.99-11.53,5.31-17.81,11.33-26.58
				c19.64-28.62,22.45-66.94,8.64-98.61C339.62,599.68,334.29,602.87,335.89,606.54L335.89,606.54z"/>
		</g>
		<g>
			<path class="st6" d="M327.5,841.82c20.68-7.94,44.38-4.25,61.45,10.18c3.04,2.57,7.44-1.85,4.38-4.45
				c-18.7-15.81-44.62-20.57-67.47-11.8C322.17,837.18,323.77,843.26,327.5,841.82L327.5,841.82z"/>
		</g>
		<g>
			<path class="st6" d="M395.67,850.1c1.84-5.59,8.56-6.92,13.62-7.76c7.65-1.26,15.42-1.58,22.97,0.38c3.86,1,5.51-5.06,1.65-6.06
				c-9.5-2.47-19.78-2-29.32,0.19c-6.61,1.52-12.62,4.72-14.88,11.57C388.43,852.28,394.41,853.93,395.67,850.1L395.67,850.1z"/>
		</g>
		<g>
			<path class="st6" d="M441.76,812.7c4.17,5.41,4.11,12.25,3.94,18.79c-0.19,7.08-0.46,14.15-0.69,21.22
				c-0.22,6.66-0.43,13.32-0.65,19.97c-0.19,5.94,1.29,15.97-3.45,20.34c-1.48,1.36,0.72,3.58,2.19,2.22
				c3.95-3.64,3.89-8.76,4.07-13.82c0.34-9.57,0.62-19.14,0.93-28.71c0.28-8.66,0.91-17.39,0.74-26.06
				c-0.12-5.99-1.21-11.4-4.9-16.18C442.72,808.88,440.55,811.12,441.76,812.7L441.76,812.7z"/>
		</g>
		<g>
			<path class="st6" d="M351.11,877.64c5.37,11.68,2.11,24.15,0.93,36.34c-1.11,11.6,2.91,25.18-4.45,35.22
				c-1.19,1.62,1.5,3.19,2.67,1.59c7.8-10.64,3.69-24.57,4.87-36.81c1.25-12.91,4.3-25.62-1.36-37.93
				C352.94,874.23,350.27,875.82,351.11,877.64L351.11,877.64z"/>
		</g>
	</g>
	<g>
		<g>
			<g>
				<path class="st5" d="M885.21,331.63c-2.05-20.52-5.74-40.7-13.04-60.05c-4.93-0.13-9.85-0.4-14.78-0.7
					c0.57,3.78,0.77,7.61,0.94,11.48c0.31,6.89,0.61,13.78,1.31,20.64c1.63,15.94,3.47,31.87,5.28,47.79
					c0.31,2.69-0.2,5.07-1.37,7.48c-5.77,11.9-10.6,24.27-17.2,35.77c-1.19,2.06-1.9,4.41-2.83,6.63c0.08,0.5,0.03,1.08,0.27,1.49
					c5.05,8.8,10.24,17.52,14.4,26.81c0.13,0.28,0.49,0.45,0.74,0.67c4.36-3.8,7.01-8.81,9.47-13.93
					c4.18-8.69,7.68-17.67,11.04-26.7c3.67-9.86,6.5-19.94,7.31-30.55C887.45,349.41,886.1,340.54,885.21,331.63z"/>
				<g>
					<path class="st12" d="M959.36,733.71c-1.67-14.95-9.1-30.42-25.3-32.65c-8.94-1.23-18.06,1.69-25.8,6.4
						c-17.83,10.83-46.73,45.36-64.27,14.87c-5.97-10.38-8.94-23.08-11.43-34.73c-5.6-26.18-10.65-52.48-16.95-78.5
						c-0.88-2.5-1.73-5-2.55-7.51c-20.85,3.95-41.97,5.36-63.12,6.24c-19.87,0.83-39.28-2.12-58.21-8.33
						c-3.39-1.11-6.83-2.05-10.24-3.07c-28.96,36.2-48.67,77.2-69.71,118.31c-19.1,37.31-48.2,67.81-70.95,102.67
						c-20.14,30.87-45.13,77.86-18.76,112.48c3.7,4.21,7.12,8.69,11.41,12.35c4.42,3.77,9.23,6.87,14.57,9.11
						c2.51,0.38,5.02,0.94,7.55,1.12c25.27,1.78,44.87-9.36,60.11-28.71c9.76-12.4,17.16-26.42,23.46-41.07
						c11.64-27.05,21.29-54.87,31.84-82.34c7.16-18.63,16.35-35.95,28.61-51.64c4.21-5.39,9.14-9.68,15.06-12.89
						c15.59-8.46,28.22,2.62,33.88,17.14c11.72,30.07,21.11,61.78,44.12,85.4c13.01,13.36,30.42,23.09,48.91,23.58
						c38.86,1.03,79.26-34.9,102.38-63.58C953.91,786.04,961.97,756.95,959.36,733.71z"/>
					<path class="st13" d="M834.2,397.82c-0.52,0.43-1.06,0.93-1.65,1.52c-2.39,2.43-4.75,4.93-7.37,7.08
						c-5.82,4.76-11.1,10.08-15.95,15.82c-1.41,1.67-2.94,2.01-4.87,2.05c-6.09,0.14-12.18,0.23-18.26,0.75
						c-3.36,0.29-8.8-2.97-10.77,0.71c-0.23,0.43,0.84,3.39,0.22,3.6c-0.58,8.27-6.5,13.82-14.65,13.74
						c-7.58-0.08-12.71-5.84-13-14.59c-1.09-2.27-2.95-2.46-5.14-2.16c-9.44,1.33-18.96,0.4-28.4,0.99
						c-5.98,0.38-12.02-5.84-16.23-9.46c-8.68-7.47-16.84-9.43-26-16.22c-0.91-0.68-1.73-1.76-3.46-1.1
						c-1.45,5.78-2.96,11.76-4.46,17.74c-2.03,10.62-4.07,21.25-6.1,31.87c-1.36,4.7,0.86,7.89,4.34,10.54
						c1.49,1.14,3,2.25,4.54,3.32c8.06,5.62,16.98,9.39,26.33,12.06c2.86,0.82,3.73,2.14,3.58,5.07c-0.41,8.1-0.9,16.19-2.01,24.21
						c-1.97,14.17-4.16,28.29-9.23,41.77c-4.59,12.22-8.37,24.76-14.13,36.53c-2.18,4.47-1.2,6.89,3.16,9.31
						c2.22,1.23,4.53,2.31,6.79,3.46c3.42,1.02,6.85,1.96,10.24,3.07c18.93,6.2,38.34,9.16,58.21,8.33
						c22.74-0.95,45.43-2.5,67.8-7.17c11.66-5.72,12.69-8.16,9.5-21.07c-3.68-14.9-6.44-29.96-6.9-45.37
						c-0.5-16.73,0.9-33.42,0.93-50.13c0.01-4.33,1.63-6.49,5.23-8.25c4.72-2.3,9.39-4.75,13.63-8.01
						c8.81-6.75,14.25-16.01,19.23-25.69c1.61-3.14,2.29-6.16,1.37-9.13C852.63,420.76,843.57,409.12,834.2,397.82z"/>
					<path class="st5" d="M658.69,412.29c-4.61-6.21-9.54-12.13-14.86-17.72c-4.49-4.72-8.43-9.93-12.6-14.93
						c-1.7-2.04-2.86-4.25-2.96-6.96c-0.47-12.25-2.96-24.26-4.01-36.46c-1.16-13.55-3.28-27.03-5.1-40.52
						c-0.58-4.31,0.13-18.03,1.57-22.16c-4.52,1.74-10.46,11.77-14.92,10.81c0.05,1.4-0.01,2.81-0.27,4.3
						c-2.67,14.93-5.48,29.84-7,44.96c-1.64,16.35-0.86,32.38,5.75,47.68c3.41,7.9,6.95,15.74,10.5,23.57
						c0.78,1.71,1.8,3.32,2.85,4.88c10.86,16.19,24.96,29.03,40.48,40.41c2.03-10.62,4.07-21.25,6.1-31.87
						C661.79,416.85,660.31,414.48,658.69,412.29z"/>
					<path class="st5" d="M775.55,429.36c-0.58,8.27-6.5,13.82-14.65,13.74c-7.58-0.08-12.71-5.84-13-14.59
						c4.95-2.66,7.58-8.12,6.67-13.63c-0.22-1.36-1.02-2.08-2.04-2.74c-2.62-1.67-4.76-3.86-6.4-6.5c-1.89-3.04-2.72-6.71-7.45-7.24
						c-2.58-0.29-3.45-3.58-3.38-6.29c0.09-3.47,1.16-6.44,4.99-7.39c2.46,1.64,4.22,1.03,4.99-1.82c0.64-2.37,1.92-3.37,4.37-3.3
						c1.49,0.04,2.98-0.73,4.49-0.79c6.94-0.3,11.43-3.75,13.55-10.46c0.07-0.22,0.54-0.32,0.96-0.56c2.9,1.31,3.93,4.02,4.52,6.92
						c0.76,3.71,1.24,7.47,2.04,11.17c1.02,4.71,2.4,5.41,7.21,4.05c3.83,2.14,4.17,5.6,3.12,9.33c-0.98,3.49-3.42,5.52-7.11,5.38
						c-1.96-0.07-3.18,0.62-4.07,2.32c-0.47,0.9-1.18,1.67-1.75,2.51c-1.19,1.76-3.86,2.55-3.52,5.3c0.49,3.91,0.87,7.87,3.47,11.1
						C773.53,427.06,774.56,428.2,775.55,429.36z"/>
					<path class="st14" d="M522.07,929.9c3.7,4.21,7.12,8.69,11.41,12.35c4.42,3.77,9.23,6.87,14.57,9.11
						c-1.33,0.29-1.97,1.07-2.1,2.49c-0.24,2.57-0.47,5.16-1,7.68c-2.18,10.42-8.8,14.66-18.69,9.92
						c-5.51-2.64-9.35-7.41-13.72-11.42c-4.73-4.33-9.69-8.06-15.44-10.79c-4.92-2.34-9.77-4.83-14.19-8.11
						c-1.94-1.44-3.77-2.98-4.97-5.11c-3.06-5.45-0.07-11.6,6.07-12.38c2.36-0.3,4.72-0.1,7.08,0.41c8.12,1.79,16.27,3.44,24.4,5.23
						C517.68,929.76,519.87,929.82,522.07,929.9z"/>
					<path class="st14" d="M957.98,733.87c-0.76-3.68-1.35-7.41-2.3-11.04c-3.64-13.94-11.52-22.07-26.47-22.12
						c-0.66,0-1.33-0.2-1.99-0.3c4.66-6.15,10.83-9.21,18.45-8.69c4.79,0.32,9.26,1.91,13.32,4.65c3.67,2.48,7.17,5.19,10.68,7.9
						c6.24,4.82,13.54,7.82,20.31,11.74c2.66,1.54,5.41,2.92,7.64,5.08c5.51,5.33,5.48,10.99-0.36,15.89
						c-3.94,3.31-8.6,4.58-13.79,3.67C974.79,739.13,966.14,737.46,957.98,733.87z"/>
					<path class="st5" d="M780.33,388.44c-0.61,0-1.19,0.16-1.76,0.39c-0.25-14.92-8.5-26.91-18.66-26.91
						c-9.12,0-16.71,9.66-18.35,22.43c-0.31-0.07-0.62-0.14-0.94-0.14c-3.37,0-6.11,3.94-6.11,8.81c0,4.87,2.73,8.81,6.11,8.81
						c0.84,0,1.63-0.24,2.36-0.68c2.44,10.98,9.42,15.97,16.93,15.97c6.64,0,12.45-5.13,15.77-12.84c1.18,1.76,2.82,2.86,4.65,2.86
						c3.58,0,6.48-4.19,6.48-9.35C786.81,392.63,783.91,388.44,780.33,388.44z"/>
				</g>
				<path class="st13" d="M782.29,388.98c-2.16-0.6-4.67,0.57-5.63,2.63c-1.38-5.27-2.41-10.62-3.09-16.03
					c-1.81,3.28-5.68,4.93-9.38,5.04c-3.7,0.11-7.3-1.08-10.82-2.24c0.44,2.61-0.06,5.42-1.63,7.54c-1.57,2.11-4.25,3.41-6.82,3.01
					c-2.46-0.38-4.57-2.27-5.53-4.6c-0.96-2.34-0.83-5.05,0.05-7.41c-3.67-0.29-6.96-2.87-8.59-6.21
					c-1.64-3.34-1.74-7.33-0.77-10.93c0.34-1.28,0.84-2.55,1.72-3.52c1.67-1.84,4.35-2.23,6.8-2.46c-3.6-2.63-5.44-7.35-4.41-11.73
					c1.02-4.38,4.82-7.95,9.19-8.65c1.65-0.26,3.38-0.14,4.9,0.56c1.52,0.71,2.79,2.03,3.23,3.67c-0.78-2.83-1.44-6.14-1.34-9.08
					c0.09-2.94,0.98-5.93,2.92-8.11c1.72-1.93,4.16-3.09,6.67-3.58c6.29-1.22,13.18,1.94,16.43,7.54c3.46,5.96,2.76,13.44,1.6,20.26
					c-0.71,4.16-1.54,8.31-2.5,12.42c0.9-1.97,3.65-2.18,5.41-0.94c1.76,1.24,2.6,3.41,3.2,5.5
					C786.52,370.82,785.71,380.07,782.29,388.98z"/>
			</g>
			<path class="st5" d="M889.51,255c-1.66-2.24-10.78,5.8-10.78,5.8s11.24-11.24,10.28-13.16c-1.51-3.03-14.09,9.96-14.09,9.96
				s13.34-14.49,10.37-16.66c-2.97-2.17-14.57,13.69-14.57,13.69s10-15.61,7.14-17.01c-2.85-1.41-14.99,19.23-14.99,19.23
				s-1.78-12.02-4.22-11.81c-4.11,0.36-1.37,26.05-1.37,26.05l10.76,9.02C868.04,280.11,891.17,257.24,889.51,255z"/>
			<path class="st5" d="M588.35,265.32c1.87-2.06,10.15,6.88,10.15,6.88s-10.05-12.34-8.91-14.15c1.81-2.86,13.02,11.36,13.02,11.36
				s-11.82-15.79-8.65-17.65c3.17-1.86,13.12,15.12,13.12,15.12s-8.39-16.56-5.41-17.66c2.98-1.1,12.99,20.68,12.99,20.68
				s2.97-11.78,5.37-11.31c4.05,0.78-1.24,26.06-1.24,26.06l-11.6,7.86C607.2,292.52,586.48,267.38,588.35,265.32z"/>
			<g>
				<g>
					<path class="st15" d="M666.98,396.85c-3.27,19.94-8.11,39.55-14.51,58.72c-1.02,3.05,3.8,4.36,4.81,1.33
						c6.4-19.17,11.24-38.78,14.51-58.72C672.31,395.04,667.5,393.69,666.98,396.85L666.98,396.85z"/>
				</g>
			</g>
			<g>
				<g>
					<path class="st15" d="M833.82,393.43c9.27,15.03,18.54,30.05,27.82,45.08c1.31-1.01,2.61-2.01,3.92-3.02
						c-0.4-0.39-0.79-0.79-1.19-1.18c-2.28-2.26-5.81,1.26-3.53,3.53c0.4,0.39,0.79,0.79,1.19,1.18c1.98,1.96,5.43-0.57,3.92-3.02
						c-9.27-15.03-18.54-30.05-27.82-45.08C836.44,388.18,832.13,390.69,833.82,393.43L833.82,393.43z"/>
				</g>
			</g>
			<path class="st8" d="M764.56,400.88c-0.61,3.67-3.71,6.38-7.33,6.2c-3.62-0.18-6.44-3.2-6.69-6.91L764.56,400.88z"/>
			<g>
				<g>
					<path class="st15" d="M756.38,520.55c-10.25,12.2-22.04,22.85-35.27,31.74c-1.33,0.89-0.08,3.05,1.26,2.15
						c13.4-9,25.39-19.76,35.78-32.13C759.16,521.09,757.41,519.32,756.38,520.55L756.38,520.55z"/>
				</g>
			</g>
			<g>
				<g>
					<path class="st15" d="M783.77,490.89c-3.74,5.23-7.87,10.12-12.39,14.7c-1.13,1.14,0.63,2.91,1.76,1.76
						c4.66-4.73,8.91-9.8,12.78-15.2C786.86,490.84,784.7,489.6,783.77,490.89L783.77,490.89z"/>
				</g>
			</g>
			<g>
				<g>
					<path class="st3" d="M712.53,605.92c-8.03,15.98-10.37,33.33-11.78,50.96c-1.55,19.41-1.57,38.9-0.22,58.32
						c0.06,0.8,1.3,0.8,1.25,0c-1.27-18.13-1.34-36.31-0.07-54.44c1.3-18.68,3.39-37.28,11.9-54.21
						C713.97,605.84,712.9,605.21,712.53,605.92L712.53,605.92z"/>
				</g>
			</g>
			<g>
				<g>
					<path class="st3" d="M729.9,608.72c-8.35,37.09-7.95,76.14-1.66,113.52c0.13,0.79,1.33,0.45,1.2-0.33
						c-6.25-37.14-6.64-76.01,1.66-112.86C731.27,608.27,730.07,607.93,729.9,608.72L729.9,608.72z"/>
				</g>
			</g>
			<g>
				<g>
					<path class="st3" d="M691.71,717.4c9.76-1.18,20.47-1.55,29.88,1.81c7.37,2.63,13.29,8.17,17.79,14.43
						c8.17,11.37,12.61,25.13,15.83,38.62c0.19,0.78,1.39,0.45,1.2-0.33c-3.44-14.37-8.28-29.31-17.57-41.06
						c-11.77-14.88-29.15-16.89-47.13-14.72C690.93,716.24,690.92,717.49,691.71,717.4L691.71,717.4z"/>
				</g>
			</g>
			<g>
				<g>
					<path class="st3" d="M770.67,609.78c5.84,13.21,11.91,26.83,21.81,37.57c8.88,9.64,22.27,17.94,35.69,13.21
						c0.75-0.26,0.43-1.47-0.33-1.2c-14.6,5.15-28.74-5.51-37.46-16.35c-8.11-10.09-13.44-22.1-18.63-33.85
						C771.42,608.42,770.35,609.05,770.67,609.78L770.67,609.78z"/>
				</g>
			</g>
			<g>
				<g>
					<path class="st3" d="M697.6,603.09c-6.06,11.79-12.25,23.92-21.9,33.24c-4.87,4.7-10.63,8.68-17.05,10.95
						c-3.89,1.38-8.76,1.14-11.97,3.93c-0.61,0.53,0.28,1.41,0.88,0.88c2.61-2.26,6.76-2.14,9.92-3.11
						c2.32-0.71,4.56-1.66,6.72-2.76c5.04-2.58,9.56-6.12,13.52-10.14c9.1-9.22,15.09-20.95,20.95-32.36
						C699.04,603.01,697.97,602.38,697.6,603.09L697.6,603.09z"/>
				</g>
			</g>
			<g>
				<g>
					<path class="st3" d="M710.74,719.93c-28.64,23.22-47.74,55.37-63.47,88.21c-16.92,35.31-30.1,74.17-58.34,102.48
						c-14.99,15.02-38.81,31.83-61.17,25.68c-0.77-0.21-1.11,0.99-0.33,1.2c17.79,4.9,36.55-4.88,50.38-15.44
						c14.23-10.87,25.63-25.05,34.94-40.25c21.46-35.04,33.8-74.79,55.37-109.85c11.8-19.18,25.94-36.91,43.49-51.14
						C712.25,720.3,711.36,719.42,710.74,719.93L710.74,719.93z"/>
				</g>
			</g>
			<g>
				<g>
					<path class="st3" d="M812.98,661.1c2.56,13.42,5.13,26.84,7.69,40.26c1.28,6.71,2.56,13.42,3.85,20.13
						c0.72,3.75,0.71,9,3.68,11.81c3.23,3.07,8.48,4.68,12.22,7.18c4.75,3.17,9.16,6.85,13.06,11.03
						c8.14,8.74,13.53,19.56,13.87,31.61c0.02,0.8,1.27,0.8,1.25,0c-0.56-20.1-14.74-36.28-31.35-46.11
						c-2.02-1.19-4.44-2.05-6.34-3.4c-3.64-2.6-4.03-6.45-4.82-10.53c-1.28-6.71-2.56-13.42-3.85-20.13
						c-2.69-14.06-5.37-28.12-8.06-42.18C814.03,659.98,812.83,660.31,812.98,661.1L812.98,661.1z"/>
				</g>
			</g>
			<g>
				<g>
					<path class="st3" d="M866.11,765.31c13.46-15.55,29.13-29.07,46.63-39.89c15.95-9.86,42.85-26.18,59.25-8.79
						c0.55,0.58,1.43-0.3,0.88-0.88c-15.33-16.25-39.31-3.8-54.95,5.15c-19.91,11.39-37.69,26.2-52.69,43.54
						C864.7,765.03,865.58,765.92,866.11,765.31L866.11,765.31z"/>
				</g>
			</g>
			<g>
				<g>
					<path class="st6" d="M477.01,930.99c13.1,5.25,25.55,11.95,37.07,20.11c5.16,3.66,9.87,7.83,14.91,11.64
						c4.28,3.23,8.76,5.72,14.25,5.07c0.79-0.09,0.8-1.34,0-1.25c-7.53,0.9-13.14-4.5-18.55-8.92c-4.61-3.77-9.4-7.32-14.37-10.62
						c-10.36-6.89-21.44-12.6-32.98-17.23C476.6,929.49,476.28,930.7,477.01,930.99L477.01,930.99z"/>
				</g>
			</g>
			<g>
				<g>
					<path class="st6" d="M500.5,919.53c1.77,5.12,2.93,10.35,3.45,15.75c0.08,0.79,1.32,0.8,1.25,0
						c-0.53-5.51-1.68-10.85-3.49-16.08C501.45,918.45,500.24,918.77,500.5,919.53L500.5,919.53z"/>
				</g>
			</g>
			<g>
				<g>
					<path class="st6" d="M507.09,919.53c1.2,6.44,3.16,12.62,5.88,18.58c0.33,0.73,1.41,0.1,1.08-0.63
						c-2.68-5.87-4.57-11.94-5.75-18.28C508.15,918.41,506.95,918.75,507.09,919.53L507.09,919.53z"/>
				</g>
			</g>
			<g>
				<g>
					<path class="st6" d="M936.07,692.95c7.14,0.3,12.36,4.96,17.46,9.46c4.16,3.67,8.36,6.94,13.28,9.53
						c11.1,5.85,23.62,8.97,32.83,17.94c0.58,0.56,1.46-0.32,0.88-0.88c-9.67-9.41-22.91-12.46-34.41-18.85
						c-10-5.56-17.78-17.93-30.04-18.44C935.27,691.67,935.27,692.92,936.07,692.95L936.07,692.95z"/>
				</g>
			</g>
			<g>
				<g>
					<path class="st6" d="M672.8,410.31c12.51,7.17,24.17,15.58,34.92,25.2c0.6,0.53,1.48-0.35,0.88-0.88
						c-10.83-9.68-22.57-18.17-35.17-25.39C672.73,408.84,672.1,409.92,672.8,410.31L672.8,410.31z"/>
				</g>
			</g>
			<g>
				<g>
					<path class="st6" d="M707.87,435.96c14.66-0.85,29.33-0.63,43.96,0.67c0.8,0.07,0.79-1.18,0-1.25
						c-14.63-1.3-29.29-1.52-43.96-0.67C707.07,434.76,707.06,436.01,707.87,435.96L707.87,435.96z"/>
				</g>
			</g>
			<g>
				<g>
					<path class="st6" d="M674.26,403.58c12.35,6.2,23.61,14.1,33.66,23.59c0.58,0.55,1.47-0.33,0.88-0.88
						c-10.12-9.56-21.47-17.53-33.91-23.78C674.18,402.14,673.55,403.22,674.26,403.58L674.26,403.58z"/>
				</g>
			</g>
			<g>
				<g>
					<path class="st6" d="M709.11,427.22c12.59,0,25.17,0,37.76,0c0.8,0,0.8-1.25,0-1.25c-12.59,0-25.17,0-37.76,0
						C708.31,425.97,708.3,427.22,709.11,427.22L709.11,427.22z"/>
				</g>
			</g>
			<g>
				<g>
					<path class="st6" d="M775.34,426.38c10.77-0.46,21.55-0.58,32.33-0.36c-0.15-0.35-0.29-0.71-0.44-1.06
						c-0.25,0.19-0.5,0.39-0.74,0.58c-0.63,0.49,0.26,1.37,0.88,0.88c0.25-0.19,0.5-0.39,0.74-0.58c0.45-0.35,0.05-1.05-0.44-1.06
						c-10.78-0.22-21.55-0.1-32.33,0.36C774.54,425.16,774.53,426.41,775.34,426.38L775.34,426.38z"/>
				</g>
			</g>
			<g>
				<g>
					<path class="st6" d="M807.59,425.75c7.71-10.48,17.11-19.36,28.02-26.44c0.67-0.44,0.05-1.51-0.63-1.08
						c-11.09,7.2-20.63,16.24-28.47,26.89C806.04,425.77,807.12,426.39,807.59,425.75L807.59,425.75z"/>
				</g>
			</g>
			<g>
				<g>
					<path class="st6" d="M774.11,434.18c12.59-0.79,25.18-1.59,37.77-2.38c0.8-0.05,0.8-1.3,0-1.25
						c-12.59,0.79-25.18,1.59-37.77,2.38C773.31,432.98,773.31,434.23,774.11,434.18L774.11,434.18z"/>
				</g>
			</g>
			<g>
				<g>
					<path class="st6" d="M810.61,432.2c8.38-10.43,18.48-19.08,30.11-25.7c0.7-0.4,0.07-1.47-0.63-1.08
						c-11.72,6.67-21.92,15.38-30.36,25.89C809.23,431.93,810.11,432.82,810.61,432.2L810.61,432.2z"/>
				</g>
			</g>
			<g>
				<g>
					<path class="st6" d="M746.4,425.34c1.01,4.55,0.21,9.88,4.22,13.15c3.12,2.55,7.78,2.92,11.64,2.91
						c11.32-0.04,14.11-9.01,14.31-18.85c0.03-1.6-2.46-1.6-2.49,0c-0.09,4.09-0.12,8.52-2.4,12.09c-2.45,3.85-6.72,4.4-10.87,4.23
						c-3.41-0.14-7.84-0.6-9.94-3.74c-1.92-2.87-1.34-7.13-2.07-10.45C748.46,423.11,746.05,423.77,746.4,425.34L746.4,425.34z"/>
				</g>
			</g>
		</g>
		<g>
			<g>
				<path class="st6" d="M972.61,724.02c0,5.59,0,11.18,0,16.77c0,0.8,1.25,0.8,1.25,0c0-5.59,0-11.18,0-16.77
					C973.86,723.22,972.61,723.21,972.61,724.02L972.61,724.02z"/>
			</g>
		</g>
		<g>
			<g>
				<path class="st6" d="M983.87,733.83c-0.69,2.91-1.23,5.84-1.63,8.8c-0.11,0.78,1.1,1.12,1.2,0.33c0.4-2.96,0.94-5.89,1.63-8.8
					C985.25,733.38,984.05,733.05,983.87,733.83L983.87,733.83z"/>
			</g>
		</g>
	</g>
	<g>
		<path class="st12" d="M1169.29,374.02c-6.79-3.37-12.83-7.68-17.47-13.89c-6.61-8.86-10.17-18.71-9.33-29.88
			c0.77-10.33,7.67-17.57,17.76-18.99c5.69-0.8,11.18,0.05,16.43,2.42c3.1,1.4,6.23,2.76,9.26,4.31c4.34,2.23,8.21,1.28,11.92-1.45
			c5.4-3.96,9.18-9.14,11.46-15.48c2.39-6.64,4.7-13.32,7.2-19.92c3.1-8.21,7.85-15.27,14.8-20.66c11.38-8.82,25.38-9.25,35.92-1.15
			c4.62,3.55,7.82,8.09,9.34,13.81c0.57,2.17,1.1,4.36,1.85,6.46c2.84,7.94,9.39,11.39,17.46,9.23c5.04-1.35,9.23-4.31,13.24-7.54
			c3.34-2.68,6.29-5.79,9.16-8.98c5.65-6.27,11.84-11.84,19.21-16.03c22.41-12.75,48.46-8.64,66.37,15.23
			c14.4,19.19,6.26,44.74-5.99,56.08c-4.84,4.48-10.17,8.06-16.21,10.55c-11.81,4.85-23.65,9.62-35.46,14.46
			c-1.89,0.77-3.74,1.65-5.57,2.56c-9.44,4.65-14.1,12.57-15.11,22.95c-0.6,6.18-1.05,12.38-1.78,18.55
			c-1.46,12.47-7.39,22.45-16.98,30.2c-9.1,7.35-19.65,7.82-29.29,1.16c-4.77-3.29-9.22-7.07-13.78-10.66
			c-3.23-2.54-6.54-4.96-10.18-6.85c-4.84-2.5-6.94-2.1-10.84,1.92c-1.79,1.84-3.45,3.82-5.35,5.54
			c-7.76,7.03-16.68,6.81-24.15-0.43c-4.1-3.97-7.06-8.82-10.22-13.52c2.35-3.09,4.6-5.88,9-6.56c3.67-0.57,6-3.66,6.54-7.66
			c0.32-2.39-0.22-4.47-2.36-5.81c-1.87-1.17-3.53-0.58-5.1,0.74c-0.47,0.4-1.01,1-2.2,0.18c-2.14-3.54-1.24-7.49,0.01-11.46
			c0.31-0.98,0.71-2.14-0.11-2.91c-0.98-0.92-1.89,0.06-2.64,0.66c-6.86,5.55-19.32,2.27-23.96-3.73c-0.71-0.92-1.31-2.03-2.92-2.43
			c-1.61,1.77-3.25,3.79-4.14,6.16C1173.94,374.24,1172.21,375.2,1169.29,374.02z"/>
		<path class="st5" d="M1181.61,409.79c-0.09,0.3-0.19,0.6-0.34,0.93c-2.08,4.76-4.93,9.01-7.96,13.16
			c-1.31,1.8-3.07,1.88-4.99,1.76c-12.07-0.72-43.79,4.3-55.49,7.01c9.8,12.68,51.99,31.77,67.44,33.82
			c30.79,4.08,57.53-6.16,73.94-13.12c-8.38-4.84-42.79-20.49-52.04-23.4c-2.55-0.8-4.06-2.1-4.53-4.82
			c-0.58-3.39-1.5-6.71-2.06-10.1c-0.42-2.55-0.65-4.1-0.43-5.24c4.37-1.82,8.39-5.28,11.52-9.93c0.15-0.12,0.31-0.23,0.47-0.35
			c0.05,0.04,0.08,0.09,0.13,0.13c3.95,3.1,10.16,1.64,13.88-3.25c3.72-4.89,3.54-11.37-0.41-14.46c-2.14-1.68-4.94-1.98-7.65-1.16
			c1-14.12-5.65-26.4-16.23-28.62c-11.88-2.5-24.19,8.63-27.49,24.86C1166.37,391.65,1171.78,405.42,1181.61,409.79z"/>
		<path class="st12" d="M1168.21,368.58c0.55,1.58,1.15,3.19,2.25,4.44c1.89,2.15,4.92,2.84,7.75,2.94
			c6.22,0.22,13.12-2.49,15.52-8.33c-0.43,3.08,0.79,6.34,3.12,8.36c2.33,2.01,5.7,2.71,8.62,1.78c-2.69,4.65,0.02,11.53,5.11,13.02
			c0.28-8.16,6.73-15.67,14.66-17.06c-0.93-10.03-3.73-19.88-8.22-28.87c-1.75-3.5-3.8-6.93-6.7-9.52
			c-9.06-8.09-20.84-4.85-31.67-4.68c-3.17,0.05-6.56-0.07-9.14,2.1c-3.76,3.14-4.88,9.34-5.16,13.96
			C1163.87,354.17,1165.79,361.6,1168.21,368.58z"/>
		<path class="st16" d="M1051.32,887.58c6.22-1.1,12.42-2.54,18.73-0.67c0.11,0.68,0.09,1.41,0.36,2.02
			c2.84,6.41,0.83,11.63-3.61,16.44c-2.68,2.9-5.54,5.55-8.7,7.89c-7.53,5.58-15.02,11.19-21.56,17.99
			c-2.27,2.36-4.95,4.21-8.07,5.21c-2.01,0.64-4.05,0.7-5.67-1.04c-1.67-1.79-1.98-3.91-1.3-6.23c0.6-2.05,1.94-3.61,3.37-5.08
			c3.57-3.67,7.05-7.44,10.79-10.93C1043.23,906.09,1047.36,896.9,1051.32,887.58z"/>
		<g>
			<g>
				<path class="st17" d="M1051.32,887.58c-5.13-1.26-5.58-1.69-6.18-6.09c-2.89-21.36-23.87-139.68-12.59-181.93
					c2.36-9.32,6.68-17.71,12.18-25.46c5.47-7.71,41.49-46.45,51.66-56.41c8.88-8.7,17.05-18.26,24.6-28.27
					c1.69-0.04,3.38-0.17,5.07-0.11c8.48,0.32,16.96,1.06,25.44,0.97c20.73-0.2,41.38,1.47,62.07,2.19c0.99,0.03,1.96,0.46,2.95,0.7
					c6.26,14.2,11.6,28.64,12.24,44.47c0.26,6.45-1.03,12.7-1.87,18.98c-1.34,10.06-2.96,20.1-5.69,29.9
					c-1.01,3.64-0.46,4.31,3.39,3.72c5.7-0.87,11.45-1.64,17.01-3.11c17.86-4.74,36.18-7.69,53.6-14.17
					c1.6-0.59,3.21-1.08,4.62-2.07c1.36,0.92,1.89,2.37,2.32,3.86c1.76,6.07,3.51,12.14,5.26,18.22c-0.31,1.27-1.2,1.97-2.26,2.63
					c-16.66,10.35-33.05,21.17-50.02,30.97c-16.8,9.7-33.14,20.4-51.48,27.13c-8.79,3.23-19.2,7.39-28.53,4.22
					c-20.02-6.8-16.81-43.93-18.26-60.68c-0.66-7.58-2.71-28.02-4.35-30.63c-2.13,0.86-3.44,2.48-4.92,3.84
					c-19.79,18.21-40.89,34.77-62.53,50.61c-9.7,7.1-9.73,6.96-10.01,19.12c-0.75,32.77-0.5,65.53,0.1,98.3
					c0.26,14.48,0.46,28.98-0.3,43.46c-0.22,4.21-0.33,4.2-4.77,4.96C1063.74,885.04,1057.54,886.47,1051.32,887.58z"/>
				<path class="st18" d="M1303.74,458.41c-0.7-0.4-1.45-0.7-2.21-0.93c-1.29-0.39-2.65-0.55-3.98-0.82
					c-6.64-1.35-13.29-2.64-19.91-4.06c-8.89-1.91-17.26-5.33-25.54-8.97c-0.1,0.07-0.19,0.15-0.3,0.22
					c-24.84,16.15-53.58,22.36-82.71,17.22c-21.91-3.87-45.38-15.14-53.19-37.14c-0.1-0.01-0.2-0.01-0.3-0.02
					c-1.86-0.08-3.71-0.4-5.57-0.45c-7.2-0.18-13.44-2.96-19.38-6.89c-6.82-4.53-13.16-9.69-19.6-14.74
					c-5.47-4.29-7.93-3.53-10.44,3.09c-2.45,10.63-4.91,21.26-7.36,31.9c0.12,2.6-4.06,26.72-4.53,36.38
					c-0.26,5.22,0.32,6.26,5.49,7.6c12,3.11,24.02,6.13,36.33,7.73c4,0.52,4.1,0.57,4.42,4.75c0.13,1.71-2.14,70.64-3.69,87.83
					c-0.42,4.69-0.14,5.12,4.45,5.38c27.71,5.22,146.42,9.25,152.17,6.77c4.85-0.26,7.05-2.4,7.52-7.26
					c0.69-7.19,4.58-58.93,4.6-61.67c0.01-2.25,1.1-3.59,3.47-3.41c9.51,0.74,35.07-1.13,38.72-6.65
					C1301.15,495.67,1301.74,477,1303.74,458.41z"/>
				<path class="st5" d="M1034.36,388.11c-8.66-6.69-16.72-14.11-24.98-21.28c-14.86-12.9-60.63-53.41-60.14-55.39
					c-6.98,2.81-4.8,4.38-11.69,7.39c2.66,3.68,5.02,7.58,7.71,11.22c22.18,30.06,46.4,58.16,74.67,82.5
					c4.92,4.24,10.21,8.06,14.92,12.51c5.44,5.15,11.48,9.11,18.4,11.76c2.45-10.63,4.91-21.26,7.36-31.9
					C1051.44,400,1042.62,394.5,1034.36,388.11z"/>
				<path class="st5" d="M1444.04,459.93c-0.99,2.78-2.67,4.22-5.58,5.04c-10.18,2.87-20.56,4.66-30.99,6.12
					c-14.65,2.06-29.45,2.28-44.2,3.08c-12.72,0.69-25.45,1.46-38.17,0.2c-6.93-0.68-13.82-1.71-20.73-2.59
					c-0.96,10.67-2.05,21.34-0.97,32.08c0.32,3.18,46.36,1.74,82.66-6.03c19.67-4.21,38.44-11.44,57.53-19.91
					C1446.52,473.22,1448.04,466.98,1444.04,459.93z"/>
				<path class="st16" d="M1307.39,692.97c-1.75-6.07-3.49-12.15-5.26-18.22c-0.43-1.49-0.96-2.94-2.32-3.86
					c1.01-2.17,1.81-4.48,3.07-6.48c3.98-6.32,10.18-6.79,15.25-1.35c2.62,2.81,4.72,6.06,5.45,9.78
					c1.87,9.53,7.97,16.13,14.43,22.51c3.05,3.01,6.04,6.02,8.34,9.67c1.61,2.55,2.41,5.3,1.87,8.34c-0.68,3.84-3.21,5.61-6.97,4.79
					c-2.22-0.48-4.09-1.67-5.5-3.49c-1.36-1.75-2.76-3.51-3.88-5.42c-2.05-3.49-4.77-6.29-8.16-8.32
					C1318.51,697.8,1313.75,693.67,1307.39,692.97z"/>
				<g>
					<g>
						<path class="st19" d="M1304.2,456.56c-2.75,19.75-3.89,39.62-3.33,59.56c0.08,2.75,4.36,2.76,4.28,0
							c-0.55-19.54,0.48-39.06,3.18-58.43C1308.7,455.01,1304.58,453.84,1304.2,456.56L1304.2,456.56z"/>
					</g>
				</g>
			</g>
			<g>
				<g>
					<path class="st19" d="M1063.04,393.61c-8.35,28.16-13.26,57.19-14.69,86.53c-0.13,2.75,4.14,2.74,4.28,0
						c1.41-28.97,6.29-57.59,14.53-85.4C1067.95,392.1,1063.82,390.97,1063.04,393.61L1063.04,393.61z"/>
				</g>
			</g>
		</g>
		<path class="st5" d="M919.94,294.94c1.8-2.1,10.27,6.52,10.27,6.52s-10.34-11.93-9.25-13.76c1.71-2.89,13.25,10.87,13.25,10.87
			s-12.19-15.3-9.1-17.24c3.09-1.94,13.46,14.6,13.46,14.6s-8.81-16.16-5.88-17.35c2.92-1.18,13.49,20.11,13.49,20.11
			s2.6-11.77,5-11.38c4.04,0.65-0.46,25.88-0.46,25.88l-11.27,8.15C939.44,321.33,918.14,297.03,919.94,294.94z"/>
		<path class="st5" d="M1476.76,455.24c-1.49-2.34-11.08,4.97-11.08,4.97s11.9-10.32,11.09-12.28c-1.29-3.1-14.64,8.84-14.64,8.84
			s14.21-13.38,11.42-15.75c-2.79-2.36-15.37,12.5-15.37,12.5s10.98-14.72,8.26-16.32c-2.73-1.6-16.18,17.95-16.18,17.95
			s-0.92-12.03-3.35-11.99c-4.09,0.06-3.17,25.69-3.17,25.69l-0.16,9.08C1443.59,477.93,1478.24,457.58,1476.76,455.24z"/>
		<g>
			<path class="st15" d="M1204.08,418.9c-1.6-1.06-7.72-3.18-8.39-3.18c0.25,1.4,0.69,3.36,0.69,3.36s0.77,0.24,1.04,0.3
				c11.06,2.77,16.99,15.54,9.96,25.53c-4.95,7.03-15.2,8.95-22.13,13.48c-14.54,9.51-23.88,31.7-42.21,34.23
				c-21.31,2.93-36.94-24.28-36-43.1c0.47-9.43,5.1-18.41,12.71-23.91c8.26-5.97,17.06-4.8,26.39-2.89
				c7.01,1.44,14.42,2.77,20.84-1.31c2.31-1.47,4.03-3.36,6.56-4.5c1.8-0.81,3.56-1.08,5.35-1.1c0.52-1.06,1.03-2.12,1.53-3.19
				c-3.16-0.19-6.32,0.06-9.14,1.64c-5.45,3.05-8.5,7.03-15.41,6.79c-5.73-0.2-11.24-2.1-16.9-2.88
				c-19.43-2.67-35.02,13.85-35.06,33.17c-0.04,18.79,14.33,43.43,34.6,44.64c10.17,0.61,19-5.62,25.82-12.65
				c8.89-9.16,16.02-19.22,27.58-25.21c9.42-4.89,19.95-8.12,21.44-20.43C1214.31,429.79,1210.35,422.75,1204.08,418.9z"/>
		</g>
		<path class="st15" d="M1216.99,400.59c-0.18,2.55-2.36,4.46-4.86,4.28c-2.51-0.18-4.39-2.4-4.21-4.94
			c0.18-2.55,2.36-4.46,4.86-4.28S1217.17,398.04,1216.99,400.59z"/>
		<path class="st8" d="M1192.26,396.04c-0.87,3.61-4.15,6.1-7.75,5.65c-3.6-0.45-6.2-3.66-6.19-7.38L1192.26,396.04z"/>
		<g>
			<g>
				<path class="st20" d="M1206.55,594.21c10.97,17.15,8.63,40.19,8.45,59.65c-0.21,22.39-1.61,44.83-7.31,66.57
					c-0.2,0.78,1,1.11,1.2,0.33c5.89-22.47,7.21-45.67,7.37-68.81c0.13-19.19,2.19-41.45-8.63-58.37
					C1207.2,592.9,1206.12,593.53,1206.55,594.21L1206.55,594.21z"/>
			</g>
		</g>
		<g>
			<g>
				<path class="st20" d="M1210.39,712.09c32.2-7.96,64.13-16.96,95.74-26.98c0.76-0.24,0.44-1.45-0.33-1.2
					c-31.61,10.03-63.54,19.03-95.74,26.98C1209.28,711.08,1209.61,712.28,1210.39,712.09L1210.39,712.09z"/>
			</g>
		</g>
		<g>
			<g>
				<path class="st20" d="M1153.54,671c-1.62-10.19-4.6-19.96-8.93-29.33c-0.34-0.73-1.41-0.09-1.08,0.63
					c4.29,9.27,7.2,18.95,8.8,29.03C1152.46,672.12,1153.67,671.78,1153.54,671L1153.54,671z"/>
			</g>
		</g>
		<g>
			<g>
				<path class="st20" d="M1149.59,658.58c-23.46,16.44-47.69,31.42-69.96,49.55c-9.61,7.83-15.61,17.41-15.64,30.11
					c-0.01,3.19,0.08,6.39,0.12,9.58c0.45,35.14,0.91,70.29,1.36,105.43c0.14,10.98,0.28,21.95,0.43,32.93c0.01,0.8,1.26,0.8,1.25,0
					c-0.34-26.52-0.68-53.04-1.03-79.56c-0.22-17.1-0.44-34.2-0.66-51.3c-0.16-12.12-1.79-25.16,5.05-35.92
					c5.63-8.86,15.81-15.18,24.03-21.4c7.43-5.62,15.01-11.05,22.7-16.32c10.9-7.48,22.16-14.45,32.98-22.03
					C1150.87,659.2,1150.25,658.12,1149.59,658.58L1149.59,658.58z"/>
			</g>
		</g>
		<line class="st21" x1="1022.81" y1="935.41" x2="1071.82" y2="893.93"/>
		<g>
			<g>
				<path class="st15" d="M1307.95,660.85c8.53,6.18,9.08,18.83,14.66,27.28c2.75,4.16,6.12,7.87,9.7,11.32
					c4.5,4.33,13.06,9.43,11.94,16.65c-0.12,0.78,1.08,1.12,1.2,0.33c0.78-5-2.16-8.62-5.66-11.88c-5.37-5-10.9-9.66-15.19-15.69
					c-6.33-8.91-6.81-22.39-16.03-29.07C1307.93,659.3,1307.3,660.38,1307.95,660.85L1307.95,660.85z"/>
			</g>
		</g>
	</g>
	<g>
		<path class="st5" d="M1494.83,211.07c2.5-1.14,6.64,10.28,6.64,10.28s-4.47-15.23-2.74-16.43c2.74-1.9,7.56,15.5,7.56,15.5
			s-4.77-19.08-1.16-19.52c3.61-0.45,6.22,18.98,6.22,18.98s-1.34-18.42,1.8-18.26c3.14,0.17,3.98,24,3.98,24s7.21-9.58,9.23-8.22
			c3.4,2.3-11.08,23.31-11.08,23.31l-13.6,2.61C1501.67,243.33,1492.33,212.21,1494.83,211.07z"/>
		<path class="st5" d="M1816.09,355.4c-1.91-2-9.91,7.07-9.91,7.07s9.69-12.48,8.51-14.25c-1.86-2.79-12.65,11.58-12.65,11.58
			s11.36-15.94,8.17-17.71c-3.19-1.77-12.67,15.31-12.67,15.31s7.94-16.62,4.96-17.64c-2.98-1.02-12.41,20.82-12.41,20.82
			s-3.22-11.61-5.59-11.1c-4,0.87,1.83,25.82,1.83,25.82l11.69,7.52C1798.02,382.82,1818,357.39,1816.09,355.4z"/>
		<g>
			<path class="st12" d="M1798.37,379.3c-5.99-4.17-11.78-8.62-17.56-13.09c-0.25,0.4-0.52,0.83-0.81,1.33
				c-9.43,16.19-19.31,32.06-30.63,46.98c-3,3.95-5.52,8.29-8.76,12.07c-2.63,3.07-2.67,3.08-5.2-0.11
				c-5.88-7.4-10.99-15.34-15.84-23.45c-5.5-9.18-11.73-17.8-19.43-25.18c-11.03-10.58-23.97-17.54-39.21-19.12
				c-8.44-0.88-16.97-0.55-25.45,0.06c-1.5,6.33-2.78,12.73-7.21,17.87c-5.2,6.02-12.81,7.22-19.65,3.15
				c-5.88-3.5-8.52-9.05-9.89-15.46c-0.36-1.67-0.61-3.36-0.91-5.04c-8.3-0.41-16.56-1.56-24.9-1.33c-1.8,0.05-3.24-0.72-4.74-1.6
				c-8.1-4.75-16.6-8.63-25.42-11.77c-11.92-4.24-22.27-11.69-33.68-16.97c-1.74-0.81-1.91-1.97-1.58-3.75
				c2.69-14.56,5.23-29.14,7.94-43.7c2.71-14.55,6.59-28.86,8.93-43.5c0.05-0.33,0.09-0.65,0.12-0.95
				c-9.92-0.72-19.83-1.36-29.67-2.66c-0.21,0.41-0.41,0.83-0.6,1.29c-5.72,13.65-11.07,27.44-15.51,41.58
				c-3.97,12.65-8.11,25.24-12.68,37.68c-2.78,7.6-5.45,15.23-6.93,23.24c-0.97,5.24-0.56,10.25,1.54,15.18
				c3.29,7.7,8.21,14.25,13.54,20.56c14.47,17.11,30.32,30.22,47.93,43.87c2.57,1.99,5.17,4.01,7.12,6.63
				c8.19,10.99,7.82,36.85,8.98,50.58c1.23,14.54-12.53,27.13-14.54,41.13c-1.27,8.85,0.78,17.81,5.24,25.47
				c4.67,8.03,12.5,17.33,20.39,22.29c12.64,7.93,26.44,12.33,41.17,13.83c8.3,0.84,16.63,1.15,24.9-0.04
				c13.92-2.02,25.41-9.21,36.06-18.05c1.05-0.87,2.06-1.79,3.08-2.68c1.83-2.48,3.78-4.87,5.46-7.45
				c6.67-10.26,8.62-21.63,7.01-33.63c-2.38-17.77-0.78-35.42,1.08-53.08c0.3-2.84,1.45-4.87,4.22-5.82
				c2.63-0.9,3.63,1.34,4.99,2.69c10.08,10,20.48,19.63,31.27,28.84c5.49,4.69,11.46,8.57,17.92,11.72
				c6.78,3.31,13.12,2.32,19.23-1.79c4.07-2.74,6.96-6.55,9.37-10.74c6.76-11.75,13.73-23.36,19.53-35.66
				c6.08-12.89,12.6-25.57,18.72-38.44c4.52-9.51,8.26-19.32,10.15-29.78C1801.72,381.48,1800,380.44,1798.37,379.3z"/>
			<path class="st13" d="M1549.32,562.59c12.64,7.93,26.44,12.33,41.17,13.83c8.3,0.84,16.63,1.15,24.9-0.04
				c13.92-2.02,25.41-9.21,36.06-18.05c1.05-0.87,2.06-1.79,3.08-2.68c4.64,9.15,10.15,17.84,12.68,28.03
				c6.05,24.36,1.76,46.38-13.73,66.07c-12.23,15.53-25.69,29.82-41.1,42.15c-1.44,1.15-2.6,2.67-3.89,4.03
				c-1.25,0.12-2.17,0.85-3.11,1.62c-3.95,3.24-7.83,6.59-11.93,9.61c-12.62,9.29-25.03,18.9-38.71,26.62
				c-5.02,2.83-4.9,3.1-1.6,8.25c6.02,9.38,12.42,18.5,18.03,28.15c5.08,5.83,9.36,12.27,13.58,18.72
				c5.73,8.76,11.05,17.8,16.81,26.54c2.01,3.04,2.84,5.7,0.59,8.82c-5.34,6.11-9.9,12.81-14.16,19.72
				c-2.31,1.84-3.66,4.48-5.37,6.81c-1.2,1.65-2.28,1.77-3.73,0.45c-4.54-4.14-9.09-8.26-13.64-12.39c-3.16-2.86-6.2-5.86-9.75-8.24
				c-9.47-7.79-18.93-15.59-28.4-23.38c-9.21-7.57-18.35-15.24-27.68-22.65c-6.27-4.98-11.73-10.96-18.56-15.21
				c-6.24-6.33-12.44-12.69-18.72-18.97c-4.37-4.38-8.27-9.15-11.81-14.22c-7.54-10.83-7.51-19.24,0.23-29.83
				c8.33-11.39,17.97-21.62,27.94-31.5c5.96-5.91,11.92-11.8,17.51-18.07c13.57-15.22,27.82-29.8,41.78-44.64
				c1.87-1.98,2.8-3.89,2.78-6.78C1540.45,590.48,1544.05,576.35,1549.32,562.59z"/>
			<path class="st22" d="M1480.85,769.36c6.83,4.25,12.29,10.24,18.56,15.21c9.33,7.41,18.47,15.08,27.68,22.65
				c9.47,7.79,18.93,15.58,28.4,23.38c0.29,6.06,2.15,11.79,3.56,17.61c4.69,19.34,9.23,38.72,13.1,58.25
				c0.76,3.81,0.61,3.87-2.86,5.1c-1.91,0.68-3.85,1.27-5.78,1.91c-8.01,2.52-16.01,5.04-24.02,7.57c-2.21,0.86-4.41,1.75-6.63,2.57
				c-4.2,1.54-4.23,1.54-5.81-2.51c-3.07-7.84-6.03-15.72-9.17-23.53c-6.55-16.25-13.07-32.52-19.81-48.69
				c-7.88-18.91-13.78-38.51-19.72-58.07C1476.17,783.65,1477.05,776.16,1480.85,769.36z"/>
			<path class="st22" d="M1571.17,770.17c-5.61-9.65-12.01-18.77-18.03-28.15c-3.3-5.15-3.42-5.42,1.6-8.25
				c13.68-7.72,26.09-17.32,38.71-26.62c4.11-3.02,7.98-6.37,11.93-9.61c0.94-0.77,1.86-1.5,3.11-1.62
				c-3.63,7.36-7.16,14.77-10.91,22.07c-8.05,15.69-16.21,31.32-24.3,47C1572.43,766.65,1571.2,768.17,1571.17,770.17z"/>
			<path class="st17" d="M1539.49,921.05c8.01-2.52,16.02-5.04,24.02-7.57c0.22,2.22,0.42,4.45,0.68,6.67
				c0.62,5.28-0.58,10.12-4.46,13.71c-11.03,10.21-21.34,21.22-33.24,30.45c-1.48,1.15-2.93,2.4-4.77,2.91
				c-3.33,0.92-5.37-0.68-5.13-4.21c0.3-4.46,2.49-8.21,5.02-11.68c1.81-2.48,3.9-4.79,6.13-6.89c6.36-5.95,8.86-14.15,12.51-21.67
				C1540.63,922.01,1540.01,921.5,1539.49,921.05z"/>
			<path class="st17" d="M1587.98,843.98c4.26-6.91,8.81-13.61,14.16-19.72c6.84,4.2,9.54,10.34,8.46,18.34
				c-0.78,5.79-1.33,11.61-2.17,17.38c-0.82,5.63-1.1,11.28-0.98,16.96c0.05,2.26-0.25,4.49-1.01,6.59
				c-1.27,3.56-4.46,4.32-7.2,1.73c-1.9-1.79-3.15-4.1-3.81-6.6c-0.87-3.31-1.66-6.68-2.07-10.07
				C1592.35,860.19,1590.55,852,1587.98,843.98z"/>
			<path class="st5" d="M1636.99,305.51c-3.84-0.73-7.68,2.23-9.21,6.79c-0.28-0.19-0.59-0.41-0.93-0.68
				c-2.02-1.61-3.51-3.54-4.37-5.82c-0.44-1.17-0.72-2.43-0.8-3.8c-0.09-1.45-0.15-2.91-0.21-4.77c-0.01,0.01-0.03,0.01-0.04,0.02
				c-1.94,0.74-3.21,1.9-4.36,3.09c-0.37,0.38-0.95-0.97-1.32-0.59c-5.25,5.37-10.27,6.02-18.35,6.59
				c-1.01,0.07-1.95-0.52-2.93-0.78c-0.68-0.56-1.32-1.1-1.91-1.66c-0.55,2.42-0.85,4.96-0.85,7.62c0,6.65,1.88,12.71,4.95,17.34
				c0.05,0.07,0.1,0.14,0.15,0.22c2.88,4.24,6.77,7.22,11.18,8.27c0.9,1.14,1.18,2.58,0.95,4.54c-0.12,1.02,0.02,2.07-0.16,3.07
				c-1.05,5.99-3.01,11.29-9.8,12.77c-0.75,0.16-0.85,1-1.17,1.58c0.3,1.68,0.55,3.37,0.91,5.04c1.38,6.41,4.02,11.95,9.89,15.46
				c6.84,4.08,14.45,2.88,19.65-3.15c4.43-5.14,5.72-11.53,7.21-17.87c-8.21-5.44-12.83-13-13.31-23.06
				c-0.03-0.67-0.17-1.35-0.17-2.01c3.1-2.6,5.6-6.29,7.22-10.69c1.05,1.35,2.42,2.31,4.05,2.62c4.32,0.82,8.66-3.02,9.69-8.58
				C1643.99,311.51,1641.31,306.34,1636.99,305.51z"/>
			<path class="st7" d="M1641.05,253.29c-4.8-4.29-10.75-4.88-16.7-1.94c-5.93,2.93-8.82,7.77-8.88,14.48
				c-0.02,2.63,0.38,5.22,0.94,8.12c-3.57-2-7.43-3.43-11.46-3.99c-6.45-0.89-13.37,0.64-18.34,4.9
				c-4.98,4.26-7.66,11.41-5.94,17.79c1.89,7,8.35,11.14,14.81,13.18c9.67,3.06,18.15-2.57,26.02-7.64
				c0.05,1.41,0.11,2.63,0.18,3.81c0.23,4.04,2.1,7.19,5.16,9.62c2.23,1.77,3.1,1.79,4.4-0.22c0.11-0.19,0.23-0.39,0.36-0.6
				c0.62-1.01,1.08-2.14,1.61-3.19c0.81-4.01,1.32-8.05,1.17-12.06c10.17-1.04,15.38-7.98,16.59-15.97
				C1652.63,268.89,1648.74,260.15,1641.05,253.29z"/>
		</g>
		<g>
			<g>
				<path class="st15" d="M1631.71,572.01c17.52,31.76-7.95,69.49-29.71,91.87c-22.91,23.57-51.3,40.82-79.27,57.65
					c-0.69,0.41-0.06,1.49,0.63,1.08c23.37-14.07,46.86-28.37,67.44-46.4c19.45-17.04,37.94-38.6,45.08-63.96
					c3.84-13.65,3.89-28.22-3.09-40.86C1632.4,570.67,1631.33,571.3,1631.71,572.01L1631.71,572.01z"/>
			</g>
		</g>
		<g>
			<g>
				<path class="st15" d="M1515.93,715.03c25.53,38.36,53.15,75.28,82.75,110.6c0.52,0.62,1.39-0.27,0.88-0.88
					c-29.53-35.23-57.08-72.07-82.55-110.34C1516.56,713.74,1515.48,714.36,1515.93,715.03L1515.93,715.03z"/>
			</g>
		</g>
		<g>
			<g>
				<path class="st18" d="M1564.47,926.74c-12.1,16.84-28.77,29.22-45.35,41.32c-0.64,0.47-0.02,1.55,0.63,1.08
					c16.76-12.23,33.56-24.75,45.79-41.77C1566.01,926.71,1564.93,926.09,1564.47,926.74L1564.47,926.74z"/>
			</g>
		</g>
		<g>
			<g>
				<path class="st18" d="M1526.73,944.82c3.64,2.9,7.21,5.88,10.71,8.95c0.6,0.53,1.49-0.35,0.88-0.88
					c-3.5-3.07-7.07-6.05-10.71-8.95C1526.99,943.44,1526.1,944.32,1526.73,944.82L1526.73,944.82z"/>
			</g>
		</g>
		<g>
			<g>
				<path class="st18" d="M1529.33,939.54c5.04,2.8,9.94,5.8,14.72,9.02c0.67,0.45,1.29-0.63,0.63-1.08
					c-4.78-3.21-9.69-6.22-14.72-9.02C1529.26,938.08,1528.63,939.15,1529.33,939.54L1529.33,939.54z"/>
			</g>
		</g>
		<g>
			<g>
				<path class="st18" d="M1609.66,853.46c-6.04,4.09-12.31,7.77-18.82,11.05c-0.72,0.36-0.09,1.44,0.63,1.08
					c6.51-3.28,12.78-6.97,18.82-11.05C1610.95,854.09,1610.32,853.01,1609.66,853.46L1609.66,853.46z"/>
			</g>
		</g>
		<g>
			<g>
				<path class="st18" d="M1610.34,861.72c-6.27,3.89-12.67,7.54-19.21,10.94c-0.71,0.37-0.08,1.45,0.63,1.08
					c6.54-3.41,12.94-7.05,19.21-10.94C1611.65,862.37,1611.02,861.29,1610.34,861.72L1610.34,861.72z"/>
			</g>
		</g>
		<g>
			<g>
				<path class="st18" d="M1611.42,833.11c-0.42,8.84-1.04,17.68-1.92,26.49c-0.42,4.24-0.9,8.48-1.43,12.71
					c-0.64,5.1-0.91,10.55-3.61,15.05c-0.41,0.69,0.66,1.32,1.08,0.63c4.13-6.88,3.97-16.7,4.81-24.47
					c1.09-10.11,1.84-20.25,2.32-30.4C1612.71,832.31,1611.46,832.31,1611.42,833.11L1611.42,833.11z"/>
			</g>
		</g>
		<ellipse class="st7" cx="1631.62" cy="270.28" rx="23.09" ry="26.96"/>
		<path class="st8" d="M1615.54,319.47c-0.61,3.67-3.71,6.38-7.33,6.2c-3.62-0.18-6.44-3.2-6.69-6.91L1615.54,319.47z"/>
	</g>
	<ellipse class="st13" cx="483.01" cy="215.59" rx="14.47" ry="14.7"/>
	<ellipse class="st13" cx="1846" cy="617.69" rx="14.47" ry="14.7"/>
	<path class="st13" d="M438.9,307.01c0,3.91-3.12,7.09-6.98,7.09c-3.85,0-6.98-3.17-6.98-7.09c0-3.91,3.12-7.09,6.98-7.09
		C435.77,299.93,438.9,303.1,438.9,307.01z"/>
	<path class="st13" d="M132.72,466.92c0,3.53-2.82,6.4-6.3,6.4c-3.48,0-6.3-2.87-6.3-6.4c0-3.53,2.82-6.4,6.3-6.4
		C129.9,460.52,132.72,463.38,132.72,466.92z"/>
	<path class="st13" d="M132.72,720.25c0,3.53-2.82,6.4-6.3,6.4c-3.48,0-6.3-2.86-6.3-6.4c0-3.53,2.82-6.4,6.3-6.4
		C129.9,713.85,132.72,716.72,132.72,720.25z"/>
	<path class="st13" d="M445.45,727.12c0,3.79-3.03,6.87-6.76,6.87c-3.74,0-6.76-3.08-6.76-6.87c0-3.79,3.03-6.87,6.76-6.87
		C442.42,720.25,445.45,723.33,445.45,727.12z"/>
	<path class="st13" d="M1007.6,653.73c0,6.49-5.18,11.75-11.56,11.75c-6.39,0-11.56-5.26-11.56-11.75c0-6.49,5.18-11.75,11.56-11.75
		C1002.42,641.98,1007.6,647.24,1007.6,653.73z"/>
	<ellipse class="st13" cx="631.01" cy="1021.78" rx="11.56" ry="11.75"/>
	<path class="st13" d="M996.03,179.43c0,3.7-2.95,6.7-6.6,6.7c-3.64,0-6.6-3-6.6-6.7c0-3.7,2.95-6.7,6.6-6.7
		C993.08,172.73,996.03,175.73,996.03,179.43z"/>
	<path class="st13" d="M886.95,638.22c0,5.97-4.77,10.81-10.64,10.81c-5.88,0-10.64-4.84-10.64-10.81c0-5.97,4.77-10.81,10.64-10.81
		C882.19,627.41,886.95,632.25,886.95,638.22z"/>
	<path class="st13" d="M1153.02,1002.42c0,5.97-4.77,10.81-10.64,10.81c-5.88,0-10.64-4.84-10.64-10.81
		c0-5.97,4.77-10.81,10.64-10.81C1148.25,991.61,1153.02,996.45,1153.02,1002.42z"/>
	<path class="st13" d="M1402.22,588.72c0,4.26-3.4,7.72-7.6,7.72c-4.2,0-7.6-3.46-7.6-7.72c0-4.26,3.4-7.72,7.6-7.72
		C1398.81,581,1402.22,584.45,1402.22,588.72z"/>
	<path class="st13" d="M1754.96,248.79c0,6.21-4.95,11.24-11.06,11.24c-6.11,0-11.06-5.03-11.06-11.24
		c0-6.21,4.95-11.24,11.06-11.24C1750.01,237.55,1754.96,242.58,1754.96,248.79z"/>
	<path class="st13" d="M1703.84,919.94c0,3.93-3.14,7.12-7.01,7.12c-3.87,0-7.01-3.19-7.01-7.12c0-3.93,3.14-7.12,7.01-7.12
		C1700.71,912.82,1703.84,916.01,1703.84,919.94z"/>
	<path class="st13" d="M1427.71,903.21c0,4.54-3.62,8.22-8.09,8.22c-4.47,0-8.09-3.68-8.09-8.22c0-4.54,3.62-8.22,8.09-8.22
		C1424.09,894.99,1427.71,898.67,1427.71,903.21z"/>
	<ellipse class="st5" cx="190.85" cy="290.58" rx="9.2" ry="9.35"/>
	<path class="st5" d="M124.29,802.32c0,4.2-3.36,7.61-7.49,7.61c-4.14,0-7.49-3.41-7.49-7.61c0-4.2,3.36-7.61,7.49-7.61
		C120.94,794.7,124.29,798.11,124.29,802.32z"/>
	<path class="st5" d="M373.33,1010.03c0,4.2-3.36,7.61-7.49,7.61c-4.14,0-7.49-3.41-7.49-7.61c0-4.2,3.36-7.61,7.49-7.61
		C369.97,1002.42,373.33,1005.83,373.33,1010.03z"/>
	<ellipse class="st13" cx="572.25" cy="547.29" rx="8.23" ry="8.36"/>
	<ellipse class="st13" cx="886.95" cy="951.46" rx="8.23" ry="8.36"/>
	<path class="st5" d="M510.68,634.11c0,3.7-2.96,6.71-6.6,6.71c-3.65,0-6.6-3-6.6-6.71c0-3.7,2.96-6.7,6.6-6.7
		C507.72,627.41,510.68,630.41,510.68,634.11z"/>
	<ellipse class="st5" cx="744.34" cy="904.17" rx="9.04" ry="9.18"/>
	<ellipse class="st5" cx="978.28" cy="526.56" rx="5.05" ry="5.13"/>
	<ellipse class="st5" cx="794.08" cy="193.51" rx="7.27" ry="7.38"/>
	<path class="st5" d="M1098.22,318.56c0,3.93-3.14,7.12-7.01,7.12c-3.87,0-7.01-3.19-7.01-7.12c0-3.93,3.14-7.12,7.01-7.12
		C1095.09,311.45,1098.22,314.63,1098.22,318.56z"/>
	<ellipse class="st5" cx="1271.19" cy="186.47" rx="6.93" ry="7.04"/>
	<ellipse class="st5" cx="1355.23" cy="624.35" rx="6.83" ry="6.94"/>
	<path class="st5" d="M1163.98,856.01c0,4.99-3.98,9.04-8.9,9.04c-4.92,0-8.9-4.05-8.9-9.04c0-4.99,3.98-9.04,8.9-9.04
		C1160,846.97,1163.98,851.01,1163.98,856.01z"/>
	<path class="st5" d="M1831.54,523.9c0,4.3-3.43,7.78-7.66,7.78c-4.23,0-7.66-3.48-7.66-7.78c0-4.3,3.43-7.78,7.66-7.78
		C1828.11,516.13,1831.54,519.61,1831.54,523.9z"/>
	<ellipse class="st5" cx="1623.58" cy="194.3" rx="8.04" ry="8.17"/>
	<path class="st5" d="M1657.5,876.32c0,1.72-1.38,3.12-3.07,3.12s-3.07-1.4-3.07-3.12s1.38-3.12,3.07-3.12
		S1657.5,874.6,1657.5,876.32z"/>
	<ellipse class="st5" cx="1799.61" cy="745.19" rx="6.66" ry="6.76"/>
	<polygon class="st6" points="301.14,132.5 308.95,147.01 323.23,154.94 308.95,162.87 301.14,177.38 293.33,162.87 279.05,154.94 
		293.33,147.01 	"/>
	<polygon class="st6" points="151.61,206.81 156.93,216.7 166.67,222.11 156.93,227.52 151.61,237.41 146.28,227.52 136.55,222.11 
		146.28,216.7 	"/>
	<polygon class="st6" points="181.65,962.96 187.44,973.71 198.02,979.59 187.44,985.47 181.65,996.22 175.86,985.47 165.28,979.59 
		175.86,973.71 	"/>
	<polygon class="st6" points="266.39,1042.7 271.04,1051.34 279.55,1056.07 271.04,1060.8 266.39,1069.44 261.73,1060.8 
		253.22,1056.07 261.73,1051.34 	"/>
	<polygon class="st6" points="706.62,137.1 712.82,148.63 724.17,154.94 712.82,161.24 706.62,172.77 700.41,161.24 689.06,154.94 
		700.41,148.63 	"/>
	<polygon class="st6" points="597.8,117.52 600.41,122.36 605.17,125.01 600.41,127.66 597.8,132.5 595.19,127.66 590.42,125.01 
		595.19,122.36 	"/>
	<polygon class="st6" points="821.17,307.12 823.2,310.88 826.91,312.94 823.2,315 821.17,318.76 819.15,315 815.44,312.94 
		819.15,310.88 	"/>
	<polygon class="st6" points="794.08,965 796.99,970.41 802.32,973.38 796.99,976.34 794.08,981.75 791.16,976.34 785.83,973.38 
		791.16,970.41 	"/>
	<polygon class="st6" points="721.73,825.99 724.87,831.82 730.61,835.01 724.87,838.19 721.73,844.02 718.59,838.19 712.86,835.01 
		718.59,831.82 	"/>
	<polygon class="st6" points="1142.37,82.14 1151.09,98.34 1167.03,107.19 1151.09,116.05 1142.37,132.24 1133.65,116.05 
		1117.71,107.19 1133.65,98.34 	"/>
	<polygon class="st6" points="1112.83,789.52 1116.86,797.01 1124.23,801.1 1116.86,805.2 1112.83,812.69 1108.8,805.2 
		1101.42,801.1 1108.8,797.01 	"/>
	<polygon class="st6" points="1264.26,918.96 1270.49,930.54 1281.88,936.87 1270.49,943.2 1264.26,954.77 1258.03,943.2 
		1246.63,936.87 1258.03,930.54 	"/>
	<polygon class="st6" points="1308.26,771.71 1312.24,779.09 1319.5,783.12 1312.24,787.16 1308.26,794.54 1304.29,787.16 
		1297.02,783.12 1304.29,779.09 	"/>
	<polygon class="st6" points="1014.63,283.26 1014.63,283.26 1014.63,283.26 1014.63,283.26 1014.63,283.26 1014.63,283.26 
		1014.63,283.26 1014.63,283.26 	"/>
	<polygon class="st6" points="1680.08,131.76 1682.96,137.1 1688.22,140.02 1682.96,142.95 1680.08,148.29 1677.2,142.95 
		1671.94,140.02 1677.2,137.1 	"/>
	<polygon class="st6" points="1550.79,107.19 1554.38,113.87 1560.96,117.52 1554.38,121.17 1550.79,127.85 1547.19,121.17 
		1540.62,117.52 1547.19,113.87 	"/>
	<polygon class="st6" points="1091.22,162.4 1094.81,169.08 1101.39,172.73 1094.81,176.38 1091.22,183.06 1087.62,176.38 
		1081.05,172.73 1087.62,169.08 	"/>
	<polygon class="st6" points="1783.1,842.23 1788.1,851.53 1797.25,856.61 1788.1,861.69 1783.1,870.99 1778.09,861.69 
		1768.94,856.61 1778.09,851.53 	"/>
	<polygon class="st6" points="1326.67,953 1331.68,962.29 1340.83,967.38 1331.68,972.46 1326.67,981.76 1321.67,972.46 
		1312.52,967.38 1321.67,962.29 	"/>
</g>
</svg>
